<svg width="205" height="227" fill="none" xmlns="http://www.w3.org/2000/svg"><g clip-path="url(#a)" fill="#000"><path d="M44.892 199.241a35.772 35.772 0 0 1-3.633-1.632 1.985 1.985 0 0 1-.908-.818c-.202-.369.087-.967.527-.975.114.016.225.051.328.103a67.85 67.85 0 0 0 4.727 2.837.916.916 0 0 1 .287.29.332.332 0 0 1 .01.351.244.244 0 0 1-.168.104.246.246 0 0 1-.1-.009 7.412 7.412 0 0 1-1.07-.251Zm3.072 3.369a.326.326 0 0 1-.077.256c-.348.31-.773.52-1.231.606-1.28.349-2.59.654-3.885.977l-.256.069a.616.616 0 0 1-.73-.238.66.66 0 0 1 .31-.829c.239-.141.498-.245.768-.308 1.55-.256 3.105-.474 4.464-.677.157-.014.316-.014.473 0 .056.028.151.082.164.144ZM61.51 101.525l.016-.033h.02a.067.067 0 0 1 0 .021c.257-.095.385.118.482.305.842 1.606 1.638 3.235 2.516 4.818 1.083 1.947 1.835 4.053 2.99 5.962.48.798.732 1.701 1.064 2.566.064.161.182.382.318.418.256.069.412-.141.535-.349.473-.795.957-1.585 1.418-2.388.64-1.106 1.574-1.943 2.513-2.771a1.56 1.56 0 0 1 .492-.239c.145-.056.366.177.33.326a5.493 5.493 0 0 1-.975 1.842c-1.121 1.593-2.104 3.274-3.105 4.941a10.6 10.6 0 0 1-.768 1.165c-.576.723-1.31.667-1.792-.141a10.817 10.817 0 0 1-.893-1.727 10.225 10.225 0 0 0-.89-1.885 3.59 3.59 0 0 1-.372-.896 9.576 9.576 0 0 0-.69-1.665c-.39-.769-.618-1.639-.943-2.452a58.409 58.409 0 0 1-2.073-6.35c-.13-.477-.28-.934-.177-1.429l-.015-.039Zm-2.119 82.146a.366.366 0 0 1-.087-.315.359.359 0 0 1 .202-.257c.217-.076.447-.106.676-.09 1.418.303 2.762 0 4.095-.441.256-.082.512-.257.794-.09a.833.833 0 0 1-.512.608 6.899 6.899 0 0 1-4.687.829 1.302 1.302 0 0 1-.48-.244ZM79.1 124.646a1.006 1.006 0 0 1 .072-.398 18.785 18.785 0 0 1 2.34-3.276c.04-.049.148-.036.225-.054.023.046.074.1.061.128a22.497 22.497 0 0 1-1.7 3.336 1.176 1.176 0 0 1-.608.546c-.146.057-.407-.12-.39-.282Z"/><path d="M194.255 210.86c-.134-.554-.692-.138-1.063-.182-.278 0-.556-.017-.832-.051a5.983 5.983 0 0 0-1.791-.093c-1.339.08-2.675.244-4.014.236-.872 0-1.75.295-2.623 0-1.137.234-2.304-.112-3.453.27a2.892 2.892 0 0 1-1.239-.013 3.129 3.129 0 0 0-.819-.067c-1.792.208-3.583.2-5.375.27-1.989.077-3.952.408-5.946.423-1.564 0-3.125.241-4.689.308a26.197 26.197 0 0 1-3.327.038c-1.147-.095-2.304.113-3.461-.03a3.37 3.37 0 0 0-1.241.092c-.404.105-.822.15-1.239.133a15.828 15.828 0 0 0-4.006.398.51.51 0 0 1-.594-.195c-.842-1.062-2.047-1.721-2.984-2.696a2.226 2.226 0 0 0-.614-.313c-1.564-.826-3.243-1.36-4.917-1.901-.438-.142-.899-.231-1.326-.362-.691-.211-1.385-.067-2.048-.223a27 27 0 0 0-6.186-.791l-7.52-.02h-1.649c-.304-.167-.227-.321-.256-.444-.174-1.07-.476-1.365-1.494-1.462-1.198-.113-2.393-.231-3.584-.339-1.108-.097-2.216-.256-3.327-.256a60.324 60.324 0 0 1-6.204-.257 31.908 31.908 0 0 0-4.436-.159c-.973.033-1.94.085-2.918.028-.596-.033-1.2.095-1.792-.046-.294-.069-.499-.192-.512-.546 0-.56-.079-1.119-.048-1.673.123-2.137-.154-4.264-.159-6.399 0-2.509-.151-5.02-.21-7.532-.051-2.181-.23-4.361-.125-6.545a2 2 0 0 0 0-.277c-.156-1.98-.41-3.948-.469-5.941-.046-1.66-.386-3.313-.604-4.967-.192-1.475-.512-2.933-.62-4.423a126.844 126.844 0 0 0-.58-5.401c-.187-1.516-.435-3.027-.653-4.543-.171-1.196-.297-2.399-.512-3.592-.317-1.734-.768-3.445-1.039-5.187-.42-2.661-.701-5.339-1.07-8.007-.24-1.748-.427-3.505-.745-5.237-.194-1.049-.307-2.124-.576-3.142-.284-1.088-.378-2.197-.614-3.284-.095-.447-.148-.911-.256-1.363-.396-1.669-.79-3.34-1.182-5.013a2.362 2.362 0 0 1 .325-1.983c1.466-2.201 2.874-4.443 4.308-6.67.929-1.447 1.832-2.912 2.815-4.323 1.298-1.86 2.69-3.651 3.98-5.516.791-1.144 1.687-2.201 2.56-3.268.496-.598 1.077-1.134 1.622-1.691.602-.61 1.024-.808 1.708-.257.122.1.361.05.542.082 1.482.29 2.995.447 4.513.993-.453 1.314-.819 2.661-1.377 3.926-.735 1.662-1.342 3.36-1.956 5.066a35.608 35.608 0 0 0-1.152 3.431 4.768 4.768 0 0 1-.563 1.562c-.291.444-.181 1.057-.56 1.565-.481-.441-.94-.826-1.357-1.252a51.112 51.112 0 0 0-4.553-4.105 2.515 2.515 0 0 0-.589-.362.513.513 0 0 0-.384.044.377.377 0 0 0-.146.485c.141.416.474.68.768.983 1.454 1.505 2.913 3.004 4.131 4.717.378.529.79 1.032 1.234 1.506.706.77 1.715.634 2.201-.269.198-.369.354-.76.463-1.165.512-1.88 1.183-3.707 1.656-5.6a71.626 71.626 0 0 1 2.406-7.415c.382-1.026.812-2.052 1.226-3.101.574.159 1.111.451 1.636.43 1.938-.074 3.699.842 5.598.911.046.01.09.026.13.05 1.646.615 3.407.887 4.971 1.757 1.006.556 2.096.967 3.071 1.567a25.047 25.047 0 0 1 2.816 2.053c.893.738 1.723 1.539 2.611 2.278a17.824 17.824 0 0 1 3.015 3.253c1.374 1.86 2.815 3.692 3.811 5.803.074.172.177.33.305.467.545.528.842 1.211 1.185 1.868.837 1.601 1.635 3.225 2.531 4.792.512.888.937 1.811 1.462 2.689 1.087 1.826 2.27 3.591 3.286 5.467a20.2 20.2 0 0 0 1.075 1.95 51.587 51.587 0 0 1 2.304 3.625c.793 1.354 1.663 2.663 2.505 3.981.697 1.093 1.316 2.227 1.997 3.336.606.981 1.218 1.961 1.838 2.94.148.236.391.441.453.695.151.616.558 1.052.88 1.56.722 1.126 1.329 2.324 2.048 3.458.614.975 1.1 2.027 1.669 3.033.256.441.578.838.839 1.282.643 1.07 1.252 2.163 1.899 3.23.794 1.306 1.603 2.599 2.335 3.944.414.769.821 1.577 1.535 2.144a1.686 1.686 0 0 0 1.48.284 1.683 1.683 0 0 0 1.111-1.02c.074-.219.126-.445.153-.675a12.925 12.925 0 0 0-.542-5.5c-.571-1.865-1.024-3.764-1.756-5.583-.666-1.68-.85-3.517-1.672-5.149a.961.961 0 0 1-.084-.256c-.292-1.701-1.308-3.169-1.551-4.875-.625-1.147-.955-2.414-1.457-3.604-1.023-2.407-1.707-4.901-2.385-7.407-.312-1.157-.689-2.309-1.062-3.435-.512-1.57-1.05-3.143-1.666-4.685-.413-1.026-.807-2.068-1.319-3.055a3.672 3.672 0 0 1-.363-.752c-.312-1.27-1.195-2.294-1.508-3.559-1.072-1.482-1.589-3.224-2.203-4.91-.3-.829-.594-1.655-.958-2.458a17.738 17.738 0 0 1-.668-1.68.623.623 0 0 1 .009-.548.615.615 0 0 1 .442-.322 9.684 9.684 0 0 0 1.157-.462c1.924-.808 3.875-1.539 6.004-1.539a1.5 1.5 0 0 0 1.024-.367.937.937 0 0 1 .673-.256c.512.556 1.042 1.128 1.549 1.726.768.914 1.338 1.996 2.27 2.789.185.207.337.443.448.698.445.769.806 1.588 1.346 2.275.95 1.206 1.577 2.599 2.36 3.9.379.626.712 1.283 1.144 1.886.679.936 1.134 1.998 1.754 2.971.944 1.477 1.676 3.078 2.618 4.566s1.495 3.079 2.475 4.474c.122.199.213.415.269.642.256.821.973 1.465.898 2.414 0 .115.113.256.195.362.497.685.768 1.48 1.08 2.25.353.885.422 1.86.996 2.688.24.347.222.88.404 1.319 1.009 2.432 1.984 4.874 2.967 7.319.381.942.785 1.878 1.118 2.838.364 1.052.704 2.119.963 3.199.171.724.401 1.421.611 2.129.512 1.683 1.4 3.254 1.47 5.062.028.137.084.266.163.38.709 1.347.768 2.85.958 4.31.138 1.003.043 2.052.176 3.045.167 1.239.371 2.473.512 3.718.215 2.024.333 4.058.73 6.062.032.184.032.373 0 .557a6.559 6.559 0 0 0 .03 1.521c.069.926.203 1.87-.033 2.784-.21.805-.512 1.588-.801 2.373-.801 2.222-2.419 3.735-4.415 4.818-.96.513-1.964 1.047-3.095 1.188a5.968 5.968 0 0 0-.934.279c-1.137.373-2.294.68-3.466.919-1.364.241-2.721.513-4.095.77a6.778 6.778 0 0 1-1.377.138c-.97-.026-1.948-.233-2.903-.141-1.023.097-1.886-.382-2.83-.529a4.113 4.113 0 0 1-.551-.092 6.45 6.45 0 0 1-1.187-.392c-.981-.514-1.941-1.086-2.898-1.65-1.443-.849-2.593-2.083-3.931-3.079a4.406 4.406 0 0 1-1.178-1.324 1.88 1.88 0 0 0-.819-.882 1.693 1.693 0 0 1-.64-.513 39.915 39.915 0 0 0-2.695-3.553c-.629-.744-1.059-1.637-1.679-2.374-.842-1-1.436-2.152-2.176-3.214-.583-.836-1.103-1.719-1.645-2.584-.981-1.565-2.186-2.986-2.977-4.671a9.683 9.683 0 0 0-.635-1.237 14.866 14.866 0 0 1-1.136-2.052c-.318-.706-.886-1.296-1.334-1.943a4.138 4.138 0 0 1-.23-.513 53.64 53.64 0 0 0-2.749-4.99c-1.098-1.772-2.03-3.65-3.328-5.3a1.097 1.097 0 0 1-.271-.631c.021-1.137-.978-1.76-1.318-2.712-.095-.256-.561-.241-.701 0a2.337 2.337 0 0 0-.354.752 14.19 14.19 0 0 0-.209 1.939c-.021.783.151 1.586.023 2.345a4.098 4.098 0 0 0 .041 1.647c.12.591.174 1.193.161 1.796.024.931.141 1.856.348 2.763.093.312.154.633.182.957-.021 1.44.327 2.861.199 4.305-.022.322-.003.645.057.962a31.87 31.87 0 0 1 .368 3.03c.133 1.943.225 3.889.277 5.837.053 1.985.125 3.976.184 5.965.051 1.718.223 3.432.256 5.146s.476 3.399.309 5.131c0 .187.043.372.126.539.328.746.348 1.539.366 2.332.018.603.084 1.203.197 1.796.484 2.699.957 5.4 1.441 8.099.064.352.092.726.392 1.026.138-2.378.066-4.707 0-7.032-.1-2.917-.256-5.834-.228-8.753v-3.479c0-.77.317-1.555-.159-2.309-.097-.157.036-.449.051-.683.052-.787.269-1.616.103-2.357-.241-1.07-.121-2.122-.169-3.179-.08-1.716-.072-3.435-.12-5.152-.024-.921-.274-1.813-.349-2.737-.099-1.252-.184-2.504-.189-3.751 0-2.052-.686-4.035-.594-6.093a4.208 4.208 0 0 0-.105-.546c-.13-1.283-.338-2.545-.325-3.956.129.113.244.241.343.382.899 1.945 2.094 3.725 3.087 5.613.497.944 1.024 1.868 1.536 2.822.54 1.027 1.059 2.053 1.592 3.079.091.215.215.414.368.59a5.524 5.524 0 0 1 1.229 1.991c.105.256.256.492.368.749.374.918 1.083 1.619 1.575 2.458.696 1.19 1.369 2.391 2.147 3.532.159.231.3.473.443.711.663 1.111 1.28 2.232 2.048 3.292 1.3 1.796 2.526 3.658 3.788 5.487a27.608 27.608 0 0 0 2.738 3.336c.725.769 1.728 1.236 2.355 2.121 1.723 1.075 3.361 2.276 5.293 3.007 1.024.39 1.999.885 3.103 1.121a20.79 20.79 0 0 0 2.838.47c.63.046 1.19-.221 1.792-.165.98.098 1.937-.105 2.902-.156 1.992-.103 3.914-.634 5.795-1.283a27.33 27.33 0 0 1 2.885-.962c.87-.2 1.646-.616 2.47-.911.824-.295 1.694-.513 2.201-1.334a.222.222 0 0 1 .115-.074c.847-.221 1.206-.972 1.692-1.575.404-.513.929-.993 1.103-1.578.238-.795.853-1.442.829-2.337 0-.288.285-.575.407-.875.256-.598.643-1.157.617-1.835-.036-1.01.374-2.019 0-3.029a.864.864 0 0 1 0-.278c.062-1.821-.361-3.591-.491-5.387-.09-1.25-.44-2.476-.325-3.746a1.977 1.977 0 0 0-.105-.818 4.264 4.264 0 0 1-.179-1.239c-.057-1.114-.092-2.23-.162-3.335a15.441 15.441 0 0 0-.238-2.494c-.535-2.353-1.146-4.69-1.735-7.03a11.106 11.106 0 0 0-.617-1.685c-.289-.667-.228-1.491-.53-2.148-.849-1.854-1.062-3.94-2.111-5.716a1.257 1.257 0 0 1-.167-.661c.039-.555-.212-.988-.478-1.427a8.167 8.167 0 0 1-1.134-2.822 3.011 3.011 0 0 0-.648-1.519 2.157 2.157 0 0 1-.512-.982c-.225-1.255-.798-2.368-1.279-3.525-.256-.644-.587-1.283-.681-1.968a3.48 3.48 0 0 0-.484-1.419 1.748 1.748 0 0 1-.274-.639 3.867 3.867 0 0 0-.911-2.009 2.918 2.918 0 0 1-.55-.964c-.256-.811-.753-1.486-1.183-2.199-.192-.315-.351-.654-.532-.975-.528-.928-1.024-1.867-1.6-2.77a20.034 20.034 0 0 1-1.262-2.168 5.942 5.942 0 0 0-.607-1.088c-.829-1.119-1.648-2.25-2.362-3.446-.832-1.39-1.513-2.873-2.324-4.279-.532-.921-1.203-1.757-1.774-2.658-.571-.9-1.438-1.565-1.807-2.596-.038-.108-.217-.164-.325-.257-1.06-.839-1.955-1.849-2.915-2.791a1.118 1.118 0 0 1-.343-.428c-.159-.647-.579-1.16-.835-1.747-.594-1.368-1.377-2.63-2.075-3.941-.699-1.311-1.324-2.673-1.308-4.213 0-.695.079-1.39.148-2.083a9.252 9.252 0 0 0-.069-2.632c-.156-.834-.832-1.324-1.71-1.27-.207.013-.425.223-.676-.077 0-.688.162-1.427 0-2.163-.284-1.385-.67-1.66-2.121-1.496-.075 0-.159-.056-.318-.115.026-.754-.151-1.524-.217-2.309-.087-.988-.83-1.357-1.569-1.56a1.702 1.702 0 0 0-1.738.603c-1.595 1.876-3.218 3.728-4.213 6.027a2.086 2.086 0 0 1-.256.351c-.291-.79-.5-1.607-.622-2.44-.156-.87-.156-1.796-.451-2.606a37.61 37.61 0 0 1-1.441-4.924 4.62 4.62 0 0 0-1.441-2.473 1.397 1.397 0 0 0-1.881-.033c-.307.28-.538.633-.671 1.026-.783 2.052-.826 4.174-.768 6.324.034 1.455.512 2.822.702 4.24a7.74 7.74 0 0 0 .826 2.756 8.15 8.15 0 0 1 .72 1.958c.476 1.88 1.159 3.7 1.814 5.523.098.312.252.603.456.857.365.422.627.923.768 1.463.073.221.183.428.325.613 1.28 1.752 2.56 3.502 3.862 5.241.72.967 1.467 1.917 2.202 2.874-.74.997-.679 1.952-.062 2.911.074.118.141.24.202.365.697 1.352 1.398 2.699 2.089 4.053.947 1.858 1.6 3.848 2.695 5.644.166.281.28.588.338.909a4.45 4.45 0 0 0 .563 1.447c.357.598.646 1.235.863 1.898.268.884.59 1.752.965 2.596.954 2.068 1.474 4.285 2.229 6.414.292.824.43 1.706.857 2.491.06.127.096.263.108.403.164 1.139.464 2.254.896 3.32.361.949.601 1.944.901 2.917.256.839.714 1.616.745 2.527.002.188.07.369.192.513.424.426.465.995.629 1.521.14.588.336 1.16.586 1.709.433.788.648 1.632.909 2.476.369 1.195.799 2.375 1.218 3.555.295.832.72 1.632.886 2.484.148.749.63 1.349.714 2.101.138 1.211.609 2.309 1.08 3.425.298.82.282 1.721-.046 2.53a4.23 4.23 0 0 1-.949-1.365 13.787 13.787 0 0 0-1.636-2.589c-.113-.136-.143-.341-.256-.487-.709-.985-1.098-2.145-1.725-3.176-.53-.87-1.08-1.73-1.582-2.617a75.035 75.035 0 0 1-1.561-2.956c-.504-.993-1.372-1.767-1.6-2.906a.761.761 0 0 0-.223-.349c-.56-.513-.811-1.242-1.177-1.883-.947-1.653-1.807-3.359-2.854-4.942-.558-.844-1.144-1.672-1.669-2.542-.926-1.539-1.914-3.033-2.843-4.567-.93-1.534-1.971-3.024-2.724-4.677a1.76 1.76 0 0 0-.356-.595c-.686-.603-.744-1.603-1.425-2.199-.4-1.126-1.05-2.111-1.646-3.135-1.096-1.883-2.086-3.827-3.102-5.757-.543-1.026-.986-2.108-1.82-2.955a2.643 2.643 0 0 1-.282-.475c-1.057-1.737-2.047-3.517-3.327-5.1-.755-.931-1.472-1.904-2.424-2.671-.793-.641-1.536-1.352-2.265-2.052a26.393 26.393 0 0 0-7.587-5.049c-.768-.341-1.599-.513-2.329-.898-1.418-.726-2.956-1.06-4.454-1.478-1.906-.533-3.895-.77-5.83-1.216-1.185-.27-2.393-.074-3.584-.33-1.313-.283-2.662-.257-4-.296-.704-.013-1.078-.48-1.334-1.026a4.03 4.03 0 0 1-.35-1.342c-.256-2.686-.679-5.341-1.157-7.991-.08-.434 0-.637.425-.729a4.095 4.095 0 0 0 2.229-1.334c.215-.239.512-.393.755-.613.617-.572 1.28-1.16 1.449-2.006a2.887 2.887 0 0 1 1.123-1.699c.679-.562 1.377-1.098 2.048-1.66.86-.716 1.264-1.688 1.536-2.742.409-1.54-.387-2.8-.945-4.105a.982.982 0 0 0-.289-.295c-.284-.257-.655-.293-.87 0-.44.603-1.103.81-1.723 1.106a2.32 2.32 0 0 0-.235.151c-.151.162-.405.108-.561.257h-.015c-.141.18-.389.13-.556.256h-.017c-.103.323.11.416.337.493l.044.015c.065.006.131.006.197 0a.62.62 0 0 0 0-.192l.284-.067a.51.51 0 0 0 .589-.195.239.239 0 0 0 .256-.077.254.254 0 0 0 .291-.089.27.27 0 0 0 .044-.098c.166.038.392-.049.458.202.082.31.31.58.233.934-.026.231.015.464.118.672.512 1.483.159 2.671-1.083 3.672-.724.582-1.436 1.18-2.15 1.772-.361.3-.683.619-.727 1.14-.054.638-.46.93-1.054 1.128-.965.324-1.987.488-2.887.998-.244.136-.512.242-.74.39-.663.418-.768.757-.512 1.522.113.2.185.42.212.649-.202 2.052.336 4.05.4 6.088.048 1.521.366 3.043.64 4.551a2.486 2.486 0 0 1-.366 1.963c-2.504 3.791-4.956 7.619-7.459 11.414-1.38 2.096-2.603 4.284-3.857 6.452-.699 1.203-1.554 2.309-2.084 3.612-.512-.056-.653-.531-.978-.769a6.609 6.609 0 0 1-.918-.852c-1.946-2.053-3.878-4.118-5.829-6.157-.511-.539-1.023-1.078-1.492-1.65a14.097 14.097 0 0 0-1.59-1.539c-2.026-1.771-3.808-3.8-5.843-5.57-.9-.785-1.704-1.696-2.759-2.414.555-1.127.074-2.202-.136-3.269-.57-2.91-1.215-5.806-1.858-8.7a16.996 16.996 0 0 0-.624-1.996.725.725 0 0 1 .143-.87 7.843 7.843 0 0 0 1.154-1.89c.348-.713.517-1.5.494-2.294-.015-1.026-.102-2.052-.15-3.078a4.43 4.43 0 0 0-1.564-3.158c-.722-.655-1.429-1.332-2.174-1.958a4.156 4.156 0 0 1-1.203-1.844 2.12 2.12 0 0 1 .935-2.521c.28-.163.595-.26.918-.281a1.1 1.1 0 0 1 .768.257c.498.346.886.827 1.119 1.388.256.692.632 1.344.95 2.016.175.4.486.724.877.916.998.504 2.1.768 3.218.77.496 0 .819-.38.816-.942a7.9 7.9 0 0 0-.542-3.007c-.53-1.283-.93-2.645-1.623-3.833-1.085-1.855-1.633-3.933-2.616-5.818-1.024-1.945-1.669-4.02-2.35-6.08.226-.257.512-.154.768-.196 1.736-.269 2.647-1.09 3.005-2.822a.971.971 0 0 1 .768-.833c2.13-.644 3.553-2.091 4.5-4.06.14-.292.269-.592.391-.892.702-1.688.512-1.144 2.035-.806.576.129 1.08.467 1.713.514 2.28.195 4.128-.642 5.738-2.189.422-.403.543-.962.832-1.406.284-.133.458.077.65.172a5.706 5.706 0 0 0 2.421.529c1.329.036 2.578-.123 3.773-.747 1.439-.752 2.621-1.747 3.271-3.268.19-.523.456-1.015.789-1.46.65.357.855 1.085 1.369 1.567.599.565 1.22 1.122 1.792 1.724.379.395.688.683.609 1.26-.04.232-.013.47.077.688.379.718.094 1.318-.24 1.942-.367.682-.7 1.383-1.048 2.075a.766.766 0 0 1-.125-.182h-.034a.277.277 0 0 0 .021-.038.77.77 0 0 1-.061-.416c.037-.367.056-.736.056-1.106a.419.419 0 0 0-.282-.387.452.452 0 0 0-.512.123c-.202.257-.386.513-.57.782a2.82 2.82 0 0 1-.768.88 3.229 3.229 0 0 0-.215-.713c-.2-.351-.768-.384-.934-.038-.564 1.167-1.093 2.355-1.16 3.681a.569.569 0 0 0 .41.644.656.656 0 0 0 .729-.287c.233-.344.433-.708.655-1.062.315-.513.638-1.003.98-1.54.257.288.124.47.031.647-.22.431-.16.908-.21 1.362a.537.537 0 0 0 .407.637.637.637 0 0 0 .717-.306c.456-.751.888-1.516 1.328-2.268.295-.102.256.175.359.285.373.45.376.452.98.018.059.02.11.056.149.105l.033-.038c0-.031.02-.062.03-.093a1.71 1.71 0 0 0 .05-.377v.739a.36.36 0 0 0 .255.213c.159.165.302.345.428.536.163.313.051.565-.28.59a6.219 6.219 0 0 0-1.863.547c-.396.135-.755.36-1.05.66-.964 1.174-2.047 2.277-2.449 3.827-.15.639-.083 1.31.19 1.906a1.442 1.442 0 0 0 1.866.77 9.673 9.673 0 0 0 1.581-.865c1.073-.705 2.304-.954 3.504-1.283.226-.059.341.093.395.285l.768 2.81c.05.274-.001.558-.144.797-.327.77-.663 1.54-.985 2.31a1.03 1.03 0 0 0-.074.407.287.287 0 0 0 .028.129.3.3 0 0 0 .079.105.333.333 0 0 0 .256-.02c.251-.124.457-.322.591-.568.333-.495.691-.972 1.024-1.44.151.063.271.073.3.13.678 1.318 1.84 2.177 2.917 3.119.205.18.418.351.694.585a6.92 6.92 0 0 1-1.74.923c-1.024.431-2.048.824-3.072 1.263a40.11 40.11 0 0 1-6.611 2.106 5.46 5.46 0 0 0-.656.22 29.25 29.25 0 0 1-4.14 1.104 67.75 67.75 0 0 0-2.957.687c-.768.2-1.536.298-2.304.454a.213.213 0 0 0-.133.326c.56.737.85 1.632 1.457 2.348.768.933 1.69 1.728 2.726 2.35.624.367 1.123.982 1.942.957 1.137.751 2.432.554 3.66.513 1.208-.04 2.4-.279 3.53-.708.735-.285 1.49-.514 2.237-.77h.015l.046-.103c-.255-.438-.624-.256-.98-.195-.356.062-.73.118-1.088.21a11.699 11.699 0 0 1-3.16.445c-1.117-.029-2.225-.126-3.129-.921a2.3 2.3 0 0 0-.601-.342c-.87-.38-1.495-1.095-2.252-1.626a.816.816 0 0 1-.302-.447c-.139-.638-.656-.964-1.073-1.37 1.426-.428 2.913-.38 4.364-.6 3.23-.495 6.274-1.54 9.273-2.768 1.669-.685 3.202-1.67 4.933-2.214.261-.097.51-.225.742-.38.84-.513.962-1.193.333-1.97-.438-.539-.911-1.05-1.372-1.57a10.098 10.098 0 0 1-1.362-1.917c-.512-.936-.632-2.032-1.31-2.886-.226-.285-.348-.652-.548-.962-.2-.31-.458-.639-.801-1.108 1.19-.177 1.305-1.07 1.569-1.863a2.035 2.035 0 0 0-.297-1.85 2.584 2.584 0 0 0-1.828-1.141.928.928 0 0 1-.847-.77 4.06 4.06 0 0 0-.256-.646 1.17 1.17 0 0 1 .131-1.188c.179-.272.256-.308.494-.075.64.642.906.65 1.364-.059a50.112 50.112 0 0 0 1.505-2.509c.084-.166.141-.346.166-.53a.246.246 0 0 0-.018-.12.263.263 0 0 0-.071-.099.299.299 0 0 0-.256-.02 9.614 9.614 0 0 0-.789.513c-.189-.334-.089-.667-.125-.986-.241-.633-.648-.366-.993-.148-.512.323-.916.325-1.567-.31 1.091.156 1.866.202 2.611-.106a9.365 9.365 0 0 0 3.31-1.362c1.884-1.247 3.583-2.681 4.607-4.754.934-1.911.988-3.505-.394-5.031a2.62 2.62 0 0 1-.185-.28c1.142-.672 1.388-1.885 1.759-3.02a1.33 1.33 0 0 0 .069-.546c-.133-1.09-.046-2.26-1.024-3.078-.1-.082-.133-.244-.207-.36a3.305 3.305 0 0 0-1.367-1.152c-1.17-.559-2.35-1.026-3.686-1.164-1.438-.134-2.843-.321-4.236.223-.33.128-.555 0-.591-.346-.125-1.23-.868-2.125-1.579-3.048a2.722 2.722 0 0 0-1.096-.813c-.875-.406-1.81-.352-2.72-.47a8.973 8.973 0 0 0-6.223 1.485c-.996.657-2.035 1.304-2.815 2.255-.172.22-.394.397-.648.514-.322.13-.394-.303-.645-.406-.468-.19-.898-.482-1.372-.667a4.792 4.792 0 0 0-2.588-.344c-.547.095-1.103.139-1.653.229a3.69 3.69 0 0 0-.94.256c-.706.331-1.4.69-2.083 1.07a9.443 9.443 0 0 0-3.965 3.969c-.19.372-.437.713-.627 1.085a1.202 1.202 0 0 1-1.259.672c-.184-.012-.371 0-.556-.023-1.348-.182-2.687.044-3.992.285-1.214.226-2.376.747-3.556 1.152a2.356 2.356 0 0 0-.811.513c-.768.718-1.623 1.355-2.362 2.137a31.03 31.03 0 0 0-2.473 3.004 4.19 4.19 0 0 0-.804 2.053c-.066.6-.163 1.198-.256 1.796-.04.256-.2.467-.458.42-.724-.123-1.21.393-1.791.64a3.98 3.98 0 0 0-1.636 1.256c-.724.962-1.536 1.868-2.18 2.881-.444.693-1.025 1.376-1.112 2.227-.071.662-.46 1.221-.476 1.883-.015.662-.23 1.283-.256 1.93-.035.862-.215 1.388-1.174 1.493-.39.043-.735.39-1.124.53-.39.155-.714.443-.911.814a7.355 7.355 0 0 0-.827 6.032 14.686 14.686 0 0 0 2.68 5.172c.737.954 1.48 1.903 2.209 2.863.271.354.297.646-.041 1-.4.421-.579.932-.817 1.435-.972 2.052-1.1 5.254.82 7.468.473.506.986.974 1.535 1.398a4.173 4.173 0 0 0 2.8 1.042c1.316 0 1.316.066 1.595 1.336.048.226.102.454.133.683.174 1.303.558 2.493 1.438 3.535a19.047 19.047 0 0 0 1.63 1.68c.365.345.79.617 1.255.803a6.323 6.323 0 0 0 2.992.475c.371-.033.512.12.57.428.09.598.16 1.201.229 1.796.207 1.796.483 3.592.847 5.365.24 1.18.512 2.352.75 3.535.2 1.008.061 1.283-.835 1.817-.399.236-.837.413-1.213.674-1.152.803-2.475 1.265-3.711 1.896a34.461 34.461 0 0 1-3.34 1.38c-1.168.447-2.21 1.145-3.422 1.519-1.053.323-2.048.87-3.041 1.347-1.047.498-2.235.624-3.225 1.262-.845.062-1.52.68-2.386.708a1.505 1.505 0 0 0-.768.301 3.77 3.77 0 0 1-1.679.608 1.752 1.752 0 0 0-.665.174c-1.137.734-2.414 1.173-3.635 1.727a128.667 128.667 0 0 1-4.566 1.993c-.632.257-1.339.316-1.792.954-.138.19-.491.231-.747.331-.783.306-1.536.629-2.096 1.317a2.622 2.622 0 0 1-.438.333 22.219 22.219 0 0 0-4.625 4.936c-.205.305-.284.711-.53.967-.655.696-.973 1.586-1.41 2.397-.438.81-1.07 1.511-1.28 2.439a1.953 1.953 0 0 1-.361.588 3.445 3.445 0 0 0-.512 1.131 10.393 10.393 0 0 1-.998 2.435c-.184.27-.3.579-.34.903-.037 1.283-.454 2.445-.93 3.607-.11.256-.17.53-.179.808 0 1.026-.292 2.022-.425 3.03a126.63 126.63 0 0 0-.624 5.808c-.203 2.358-.29 4.726-.425 7.089-.046.79-.174 1.586-.118 2.368.085 1.203-.107 2.394-.054 3.592.054 1.198-.082 2.427.026 3.627.12 1.345.138 2.689.174 4.033.038 1.386.256 2.769.113 4.159-.018.187-.008.376.03.559.28 1.522.046 3.053.113 4.58.08 1.811-.195 3.617-.028 5.428.056.598.074 1.204.08 1.796.02 1.72.176 3.436.467 5.131.325 1.927.305 3.882.592 5.809.08.546.076 1.105.192 1.657.384 1.819.43 3.687.734 5.513.284 1.694.108 3.42.497 5.108.322 1.396.443 2.84.696 4.257.325 1.818.796 3.607 1.247 5.387.25.943.597 1.857 1.036 2.727.161.329.448.606.568.947.5 1.39 1.477 2.447 2.373 3.574a6.668 6.668 0 0 0 2.637 2.055 1.345 1.345 0 0 1-.855 0 1.83 1.83 0 0 0-.96.041c-2.11.618-4.298.728-6.463.9-2.224.18-4.436.37-6.617.849-.906.201-1.812.393-2.715.611a.443.443 0 0 0-.272.272c-.064.257.192.257.336.339a.874.874 0 0 0 .407.069c.65-.015 1.3-.033 1.947-.067 1.792-.097 3.597-.3 5.411-.131.968.107 1.945.096 2.91-.033a24.212 24.212 0 0 1 4.992-.133 63.04 63.04 0 0 0 2.782.089c.458 0 .904-.189 1.38-.107a1.916 1.916 0 0 0 1.471-.257.775.775 0 0 1 .789-.026c.31.102.61.227.9.375.932.552 1.969.79 2.995 1.078 2.104.587 4.231.31 6.353.182.093 0 .186-.02.271-.057.743-.4 1.536-.256 2.322-.238.46 0 .924.095 1.387.084 2.452-.064 4.902.064 7.351.154 1.344.049 2.695-.12 4.029.141 1.792-.256 3.612.026 5.413-.136 1.06-.095 2.122-.172 3.185-.256 1.62-.11 3.243-.195 4.863-.318 1.024-.077 2.027-.203 3.043-.313 1.746-.188 3.491-.388 5.237-.562 1.024-.103 2.048-.095 3.043-.257a36.932 36.932 0 0 1 5.247-.513c1.715-.046 3.39-.403 5.107-.426 1.612-.02 3.214-.328 4.832-.402 1.206-.054 2.404-.275 3.606-.285 1.672 0 3.305-.359 4.961-.483.512-.035 1.003-.223 1.51-.256 1.758-.08 3.519-.113 5.28-.175.325-.003.647-.049.96-.136.855-.256 1.743-.256 2.619-.325.875-.07 1.725-.378 2.605-.072a.889.889 0 0 0 .548-.052 4.362 4.362 0 0 1 1.659-.138c2.303.087 4.627-.118 6.944.074.679.081 1.364.103 2.047.067 1.28-.126 2.493.077 3.73.257 1.377.197 2.746.461 4.128.59 1.536.143 1.756-.108 1.792-1.617.374-.12.74.029 1.085.106.66.146 1.293.018 1.925-.083.632-.1 1.257-.354 1.479-.918.315-.788.784-.898 1.495-.736.23.038.464.038.694 0 .78-.085 1.162-.477 1.198-1.265.002-.418-.018-.836-.062-1.252a.566.566 0 0 1 .19-.493c.368.419.885.442 1.379.485.842.08 1.198-.241 1.262-1.093.021-.274 0-.556 0-.833 0-.278-.333-.565-.128-.873.222-.106.475-.127.712-.059.824.121 1.643.303 2.472.354 1.748.108 3.494.311 5.252.177.277-.024.555-.019.83.016 1.709.231 3.417-.157 5.119-.016 1.07-.328 2.193-.328 3.284-.382 1.149-.056 2.278-.256 3.43-.3a62.083 62.083 0 0 0 7.046-.654c1.326-.19 2.67-.277 4.008-.388 2.163-.182 4.351-.036 6.502-.4.139-.007.278-.002.417.015 1.303.031 2.585-.048 3.744-.751.244-.138.495-.261.753-.37.33-.128.909-.233.822-.59Zm-42.592-106.369a.5.5 0 0 1-.395.098.525.525 0 0 1-.342-.224 2.032 2.032 0 0 1-.24-.341c-1.078-2.07-2.56-3.866-3.819-5.821-1.024-1.6-1.093-2.027-.394-3.753.24-.596.588-1.145.847-1.732.258-.588.696-1.098.827-1.76.101-.37.344-.687.675-.88.228 1.05.123 1.973.072 2.886-.029.978.057 1.955.256 2.912a1.377 1.377 0 0 0 .512.993c.056-.436.092-.85.161-1.255.172-1.003.302-2.003.678-2.97a7.368 7.368 0 0 0 .338-3.83c-.12-.786-.588-1.21-1.318-1.45-.668-.22-1.164 0-1.63.456a6.127 6.127 0 0 0-1.101 1.434 20.398 20.398 0 0 0-1.587 3.551c-.049.3-.19.576-.404.79-.469-.538-.558-1.218-.673-1.862-.128-.69-.256-1.357-.697-1.937a2.018 2.018 0 0 1-.34-.77c-.276-1.283-.978-2.414-1.208-3.707a2.64 2.64 0 0 0-.256-.641c-.87-1.766-1.421-3.592-1.344-5.598.044-1.16-.061-2.325.159-3.474.024-.136.057-.27.097-.403a.132.132 0 0 1 .11-.064c.077.02.207.059.213.103.13 1.441.811 2.737 1.087 4.14.058.227.144.445.256.65.871 1.854 1.349 3.848 2.007 5.772.236.685.417 1.431 1.006 1.95.417.367.857.37 1.218-.047.185-.209.332-.448.435-.708.684-1.84 1.82-3.437 2.783-5.13.407-.714 1.059-1.283 1.477-2.012a.21.21 0 0 1 .348.03c.118.198.2.416.243.642a7.464 7.464 0 0 1-.348 3.977 5.31 5.31 0 0 0-.21.513c-.128.456-.016.862.256 1a1.062 1.062 0 0 0 1.167-.133c.194-.199.372-.413.532-.641.195-.257.359-.542.558-.798a.515.515 0 0 1 .325-.206c.256 0 .208.257.228.419a4.96 4.96 0 0 1-.164 2.07c-.081.218-.148.44-.199.667a.832.832 0 0 0 .658.92.832.832 0 0 0 .409-.017c.302-.108.578-.292.873-.428.74-.342 1.024-.175 1.024.659a7.325 7.325 0 0 1-.174 1.796 5.91 5.91 0 0 0 .256 3.681 27.488 27.488 0 0 0 1.643 3.656c.699 1.25 1.262 2.566 1.899 3.849.184.374.184.643-.397.81-.441.147-.912.18-1.369.098-.548-.113-1.085-.203-1.628.092a1.514 1.514 0 0 1-.681.075 3.342 3.342 0 0 0-1.589.451c-.439.256-.9.472-1.377.644-.604.231-1.221.398-1.749.808Zm-44.536-81.476c.241-.382.594-.513.934-.338 1.086.564 1.513 1.539 1.682 2.763-.059.154-.13.372-.228.577a.33.33 0 0 1-.21.149c-.161.04-.256-.075-.304-.206a5.133 5.133 0 0 1-.161-.528 2.033 2.033 0 0 0-.96-1.296 4.27 4.27 0 0 1-.558-.405c-.231-.185-.387-.41-.197-.71l.002-.006Zm-10.62 30.348c-.355.19-.621-.051-.596-.447.023-.276.118-.542.277-.77.386-.62.767-1.236 1.172-1.862.074.036.195.057.205.103.235 1.026.972 1.303 1.873 1.342-.978.554-1.958 1.113-2.933 1.639l.003-.005Zm4.851-4.028c.095-.436.256-.513.678-.452.325.033.633.158.888.362a.727.727 0 0 1 .26.546.735.735 0 0 1-.244.552c-.183.14-.38.26-.589.357a9.662 9.662 0 0 1-2.815.993c-.054-.218.148-.257.284-.326a3.05 3.05 0 0 0 1.535-2.035l.003.003Zm-1.876-4.854c-.033-.34.035-.681.194-.983-.129.314-.196.65-.197.988l.003-.005Zm-4.738-25.935a.414.414 0 0 1 .256-.09 4.899 4.899 0 0 1 2.695.957c-1.103.167-1.986-.148-2.884-.151a.286.286 0 0 1-.285-.257.463.463 0 0 1 .218-.459ZM79.21 21.881a6.242 6.242 0 0 1 2.383-.68 8.05 8.05 0 0 1 .822 0c0 .072 0 .147-.018.218l-.88.375c-.815.334-1.616.69-2.202 1.393-.129.13-.284.23-.456.293a.437.437 0 0 1-.552-.442c.071-.554.445-.887.903-1.144v-.013ZM62.061 33.17c.208-.36.466-.69.768-.975a9.575 9.575 0 0 1 2.83-1.676 13.51 13.51 0 0 1 1.537-.39c.159.032.314.082.46.152.105.07.208.184.087.338a1.13 1.13 0 0 1-.586.342c-1.024.34-1.85 1.008-2.61 1.755-.495.484-.963.992-1.454 1.48-.2.197-.44.341-.738.182a.769.769 0 0 1-.401-.682.902.902 0 0 1 .112-.511l-.005-.015ZM51.372 51.167c-.02.09-.038.18-.056.256-.19.888-.378 1.776-.566 2.663-.081-.033-.217-.048-.235-.102a3.896 3.896 0 0 1 .143-2.822.717.717 0 0 1 .167-.216c.1-.092.21-.187.358-.115s.225.184.194.351l-.005-.015ZM54 68.335c-.223 1.14-.367 2.284-.144 3.44.026.135.026.274 0 .408 0 .065-.102.126-.171.165-.07.038-.167 0-.228-.098a3.599 3.599 0 0 1-.512-1.426 21.164 21.164 0 0 1-.24-2.204 2.57 2.57 0 0 1 .43-1.58.53.53 0 0 1 .573-.285c.256.054.35.277.414.498.027.127.043.257.049.387-.049.264-.123.482-.166.71L54 68.335Zm65.237 139.205a4.466 4.466 0 0 1-.168.665c-.198 1.003-.407 2.001-.569 3.009-.059.357.067.719-.02 1.101a15.585 15.585 0 0 0-.476 2.73c-.039.926-.08 1.852-.136 2.778a6.215 6.215 0 0 1-.225 1.368c-.241.833-.225.792-.934.918-1.695.305-3.412.323-5.12.408-1.707.085-3.419.141-5.119.2a5.333 5.333 0 0 0-1.238.167 3.712 3.712 0 0 1-1.513.156 1.605 1.605 0 0 0-.553 0c-1.364.3-2.772.285-4.131.534-1.144.21-2.304.238-3.445.387-.909.121-1.833.226-2.744.349-1.011.136-2.027.234-3.03.362-1.188.151-2.381.172-3.561.336a39.13 39.13 0 0 1-3.719.346c-1.25.054-2.467.362-3.724.429-2.399.128-4.794.333-7.187.554-2.905.257-5.82.213-8.728.331-1.618.064-3.233.059-4.848.138-1.024.049-2.012-.105-3.023-.033-.97.069-1.943.046-2.916.064-.138.014-.277.02-.417.018-2.547-.256-5.09.051-7.637.041-1.575 0-3.149-.018-4.723-.059-2.347-.061-4.576-.692-6.795-1.406-3.254-1.046-5.767-3.078-7.71-5.839a10.384 10.384 0 0 1-.706-1.352 7.492 7.492 0 0 0-.476-1.003c-.653-.934-.868-2.034-1.265-3.079-.366-.951-.338-2.021-.916-2.899a.512.512 0 0 1-.08-.256c.026-1.357-.48-2.625-.64-3.951-.158-1.326-.255-2.581-.496-3.848-.202-1.098-.192-2.225-.422-3.3-.49-2.273-.443-4.618-.934-6.878-.174-.811-.167-1.662-.256-2.491-.277-2.309-.566-4.618-.848-6.909a11.124 11.124 0 0 1-.04-2.086c.074-1.157.038-2.324 0-3.486-.039-1.162.053-2.327-.149-3.479-.113-.631.325-1.283-.036-1.904-.038-1.483-.056-2.968-.12-4.451-.051-1.198-.169-2.393-.236-3.592-.056-1.026-.082-2.052-.117-3.058-.029-.836-.026-1.675-.082-2.509-.098-1.485.082-2.96.115-4.441.043-1.903.223-3.804.43-5.687.235-2.161.491-4.326.796-6.484.077-.543.36-1.062.425-1.606.256-2.173 1.054-4.215 1.443-6.352.658-1.09.579-2.416 1.132-3.55.588-1.204 1.085-2.451 1.658-3.661a4.19 4.19 0 0 1 .673-.888c.304-.292.5-.678.556-1.096a.773.773 0 0 1 .184-.513c.686-.544.927-1.37 1.36-2.073a13.204 13.204 0 0 1 2.144-2.522 5.08 5.08 0 0 0 .39-.4c1.202-1.47 2.815-2.388 4.458-3.235.61-.313 1.193-.731 1.93-.77a.765.765 0 0 0 .489-.228 1.923 1.923 0 0 1 1.37-.59.736.736 0 0 0 .396-.118c.842-.695 1.91-.934 2.838-1.439.628-.341 1.303-.472 1.94-.742 1.49-.626 2.926-1.382 4.472-1.88a17.287 17.287 0 0 0 3.481-1.663c1.024-.61 2.17-1.026 3.253-1.557.873-.423 1.792-.77 2.56-1.393a.984.984 0 0 1 .233-.151c1.822-.69 3.483-1.722 5.273-2.476.166-.044.339-.064.511-.059.226-.49.671-.734 1.13-.919.575-.233 1.023-.644 1.5-1.003.475-.359 1.023-.626 1.366-1.282.484.461.934.841 1.328 1.282 1.662 1.817 3.504 3.443 5.301 5.131.707.657 1.352 1.383 2.025 2.076.745.77 1.602 1.401 2.326 2.196 1.403 1.539 2.944 2.958 4.334 4.513 1.574 1.755 3.184 3.484 4.56 5.41.128.19.28.363.451.514a.8.8 0 0 1 .315.587c.146 1.48.274 2.963.448 4.441.11.921.305 1.834.44 2.753.149 1.008.182 2.052.43 3.022.249.97.443 1.991.676 2.984.21.903.448 1.795.599 2.714.287 1.739.637 3.469.901 5.211.489 3.217.921 6.439 1.549 9.636.33 1.677.437 3.399.621 5.105.136 1.239.18 2.489.364 3.72.212 1.429.284 2.868.386 4.302.064.921.326 1.837.105 2.769.308.741.356 1.521.415 2.309.213 2.909.67 5.793.911 8.702.113 1.331.24 2.658.284 3.994.031.973.19 1.942.308 2.912.414 3.335.696 6.671.808 10.006.087 2.593.238 5.198.072 7.799-.041.6-.233.882-.768.944a9.812 9.812 0 0 1-1.661.072c-2.14-.144-4.252.256-6.381.313-.957.031-1.912.177-2.887.038-.722-.102-1.477.034-2.217.049-.65.013-1.303.075-1.937-.108a3.026 3.026 0 0 0-1.372-.13 1.232 1.232 0 0 1-.806-.147 1.068 1.068 0 0 0-.533-.138c-1.692.09-3.284-.513-4.93-.672-.993-.103-1.976-.149-2.966-.349-.512-.106-1.093.043-1.602-.257a.398.398 0 0 0-.272-.031c-.988.257-1.92-.172-2.88-.243-.96-.072-1.947 0-2.889-.339a2.285 2.285 0 0 0-.97-.039c-1.062.108-2.114-.274-3.18-.053-.613-.28-1.279-.195-1.911-.229a.753.753 0 0 1-.768-.677c-.143-.867-.481-1.688-.566-2.566-.048-.495-.325-.962-.45-1.452-.512-2.014-1.067-4.017-1.436-6.072-.24-1.357-.256-2.776-.855-4.061.015-1.54-.617-2.989-.696-4.541a20.5 20.5 0 0 0-.568-3.423c-.343-1.508-.397-3.045-.604-4.564-.256-1.886-.325-3.802-.423-5.708-.069-1.337-.064-2.673-.038-4.018.044-2.132.056-4.261.256-6.388-.328-1.116-.054-2.286-.353-3.433-.23-.869-.141-1.844-.371-2.742a27.94 27.94 0 0 0-.889-3.179 27.087 27.087 0 0 1-.727-2.24c-.23-.81-.675-1.521-.982-2.309a1.515 1.515 0 0 0-.323-.438c-.138-.154-.512-.046-.594.141-.126.304-.15.641-.069.959.256 1.417.333 2.866.727 4.262.149.442.222.906.215 1.372-.074.991.18 1.93.31 2.886.034.322.042.645.025.968-.022.515.01 1.031.098 1.539a36.37 36.37 0 0 1 .568 4.962c.035.51.096 1.019.182 1.524.284 1.796.107 3.609.322 5.405.159 1.339.256 2.684.397 4.026.048.513.082 1.026.128 1.539.197 2.224.37 4.448.601 6.67.136 1.283.371 2.566.54 3.848.095.734.11 1.481.228 2.212.213 1.324.318 2.668.553 3.982.18.998.448 1.99.61 2.996.223 1.368.451 2.737.685 4.105.18 1.19.436 2.368.768 3.525a2.88 2.88 0 0 0 1.423 1.796c.689.372 1.198 1.047 2.02 1.198.225.041.476.192.663.131.622-.205 1.164.031 1.743.174 1.241.313 2.477.698 3.783.639.14-.004.28.017.412.064a10.68 10.68 0 0 0 3.565.393.649.649 0 0 1 .256 0c1.213.551 2.54.462 3.811.649a26.63 26.63 0 0 0 3.876.341c1.615 0 3.23.077 4.84.113 2.41.051 4.804-.167 7.21-.177 1.925 0 3.865-.195 5.787-.131 2.35.074 4.687-.197 7.034-.054 1.474.09 2.966-.061 4.438.041 1.472.103 2.951.062 4.408.344.317.058.641.068.962.031a4.829 4.829 0 0 1 1.792.1c1.279.344 2.559.174 3.839.256 1.206.07 2.378.319 3.568.462.63.075 1.28.175 1.886.229.249.236.131.523.11.779Zm28.199 7.81a.26.26 0 0 1-.23.069c-.553-.231-1.109-.462-1.649-.726-.373-.182-.727-.413-1.085-.626a19.375 19.375 0 0 0-4.881-1.968 13.077 13.077 0 0 0-2.332-.305 1.4 1.4 0 0 0-.637.223c-.179.093-.164.513.018.603.158.098.331.168.512.208 1.881.341 3.655 1.026 5.421 1.729a6.774 6.774 0 0 1 2.966 2.224c.255.334.431.722.512 1.134a.4.4 0 0 1-.233.512.405.405 0 0 1-.204.02 5.34 5.34 0 0 1-2.271-.591c-1.172-.543-2.324-1.136-3.506-1.657a5.408 5.408 0 0 0-2.273-.559c-.737 0-1.472-.18-2.217-.095a2.353 2.353 0 0 0-.545.103.6.6 0 0 0-.22.836c.193.265.478.448.799.513.758.217 1.527.395 2.303.531 1.564.217 3.06.78 4.38 1.65a.365.365 0 0 1 .199.382 2.82 2.82 0 0 1-1.73-.198c-1.331-.559-2.734-.849-4.129-1.164a4.246 4.246 0 0 0-1.932.038.476.476 0 0 0-.312.257.41.41 0 0 0 .143.356c.337.248.698.46 1.078.634 1.023.421 1.75 1.198 2.505 1.952a.36.36 0 0 1 .093.229c0 .207-.182.207-.297.2a15.694 15.694 0 0 1-1.662-.167c-1.824-.323-3.644-.682-5.469-1.011-1.536-.274-3.092-.562-4.646-.769a21.336 21.336 0 0 0-2.78-.134c-.798 0-1.558-.292-2.336-.305-1.28-.018-1.142-.172-1.17-1.316 0-.554.063-1.105.187-1.645.284-1.403.417-2.837.619-4.259a45.6 45.6 0 0 0 .384-4.728c.018-.477.146-.59.596-.513 1.702.257 3.428.123 5.135.282 1.748.165 3.501.257 5.25.431 2.237.229 4.351.842 6.488 1.486.92.289 1.805.681 2.639 1.167.484.266.988.495 1.507.682a4.62 4.62 0 0 1 1.736 1.134c.512.549 1.326.673 1.792 1.283a6.28 6.28 0 0 0 1.42 1.516.212.212 0 0 1 .082.111c-.01.069.028.179-.008.241h-.01Z"/><path d="M124.121 52.28c-1.28.552-2.122 1.283-2.959 1.98a40.664 40.664 0 0 0-5.856 6.117c-.108.15-.227.293-.356.426a.459.459 0 0 1-.512.108.417.417 0 0 1-.212-.467c.069-.631.453-1.116.806-1.599a22.048 22.048 0 0 1 3.478-3.781c1.444-1.232 2.911-2.453 4.574-3.394a6.687 6.687 0 0 1 1.127-.542c.468-.156.911-.11 1.215.38.226.294.41.62.546.965.104.351.255.687.417 1.1.957-.636 1.991-1.003 2.846-1.757 1.044-.921 2.365-1.437 3.688-1.83 2.171-.64 4.369-1.185 6.55-1.795.817-.223 1.654-.2 2.483-.285a.485.485 0 0 1 .345.18c.172.218-.074.359-.184.436a6.155 6.155 0 0 1-1.791.746 24.546 24.546 0 0 0-3.374 1.283 25.727 25.727 0 0 0-3.356 1.896c-.732.487-1.512.906-2.247 1.375-.891.572-1.774 1.162-2.708 1.657-.934.496-1.912 1.099-3.089 1.063-.965-.029-1.69-.593-1.792-1.558a5.55 5.55 0 0 1 .361-2.704Zm-.862 10.732c.601.061 1.208.09 1.791.192.768.129 1.024.457 1.024 1.24 0 .184-.046.369-.048.556-.003.187.087.408.307.36 1.213-.257 2.49-.198 3.642-.758.196-.125.429-.18.66-.159.684.21 1.28-.092 1.892-.256.129-.051.263-.09.399-.118.586-.054 1.147.287 1.769.015.573-.256 1.195-.028 1.792.072.596.1 1.19.156 1.791.257a8.28 8.28 0 0 1 2.834 1.07c.239.138.457.31.647.513a.713.713 0 0 1 .128.77.585.585 0 0 1-.688.346 17.942 17.942 0 0 0-3.873-.1c-.186.02-.373.003-.553-.05-.962-.325-1.945-.128-2.9-.063a30.17 30.17 0 0 0-6.022.975 3.833 3.833 0 0 1-1.792 0c-1.073-.219-1.536-1.045-1.221-2.084.154-.513.671-1.067.235-1.539-.358-.395-.972 0-1.456.046a21.922 21.922 0 0 0-5.413 1.214 1.79 1.79 0 0 1-.796.215.51.51 0 0 1-.474-.23.445.445 0 0 1 .092-.514 3.482 3.482 0 0 1 1.024-.723c1.641-.773 3.361-1.273 5.209-1.247Zm-5.017 6.542a2.392 2.392 0 0 1 2.26 1.09c.512.71 1.103 1.357 1.395 2.206.102.3.338.383.645.419a13.75 13.75 0 0 1 2.163.451c.49.13.96.324 1.397.58 1.603.967 3.041 2.117 4.029 3.75.224.3.361.655.397 1.027a.42.42 0 0 1-.035.2.418.418 0 0 1-.307.25.424.424 0 0 1-.203-.009 3.27 3.27 0 0 1-1.16-.751 5.34 5.34 0 0 0-2.163-1.214 4.853 4.853 0 0 1-1-.47 9.611 9.611 0 0 0-1.4-.551 26.491 26.491 0 0 0-3.312-.903c-1.065-.223-1.413-1.116-1.626-2.052-.143-.629-.215-1.283-.307-1.914-.13-.911-.317-1.121-1.198-1.196-.601-.049-1.205-.033-1.807-.046-.123 0-.184-.062-.159-.162a.444.444 0 0 1 .116-.23 1.41 1.41 0 0 1 .478-.257c.317-.066.638-.112.96-.139.282-.033.553-.059.837-.08ZM0 122.042c.024-.399.095-.793.21-1.175a28.233 28.233 0 0 1 3.238-5.796c.11-.148.24-.282.363-.418.256-.274.484-.6.922-.485.256.067.22.536-.098 1.103a19.036 19.036 0 0 0-2.047 6.012c-.098.546-.151 1.103-.256 1.647a2.454 2.454 0 0 1-1.024 1.593.498.498 0 0 1-.393.08.494.494 0 0 1-.321-.242A5.485 5.485 0 0 1 0 122.042Zm204.893 53.896c.038 1.07.064 2.14-.512 3.107a3.22 3.22 0 0 1-.384.575c-.189.197-.428.403-.719.333-.389-.089-.428-.436-.43-.769v-1.386a9.007 9.007 0 0 0-.29-2.185c-.17-.71-.27-1.434-.299-2.163-.036-.565.768-1.06 1.331-.826.473.2.924.495 1.06 1.026.135.531.532 1.095.256 1.737a1.501 1.501 0 0 0-.013.551ZM43.198 14.482c.469.147 1.07.308 1.523.714 1.001.893 2.048 1.747 2.765 2.917.227.37.42.718.366 1.167a.475.475 0 0 1-.594.42 3.651 3.651 0 0 1-.73-.394 28.197 28.197 0 0 1-1.658-1.258 1.699 1.699 0 0 0-.717-.397c-.717-.164-1.162-.742-1.717-1.144-.256-.188-.338-.534-.4-.868-.138-.743.435-1.16 1.162-1.157Zm155.728 166.595c-.169.572-.159 1.17-.366 1.758a40.947 40.947 0 0 1-2.514 5.726c-.24.449-.453.921-.939 1.17a.314.314 0 0 1-.256 0 .257.257 0 0 1-.097-.231c.337-.862.673-1.727 1.036-2.566a18.67 18.67 0 0 0 1.403-5.508 4.018 4.018 0 0 1 .409-1.601.548.548 0 0 1 .835-.133c.478.354.46.872.489 1.385ZM8.44 124.459a8.09 8.09 0 0 1 .232-1.065 173.164 173.164 0 0 1 1.592-4.302c.147-.288.324-.56.528-.811a.141.141 0 0 1 .045-.055.145.145 0 0 1 .195.019c.064.056.156.136.154.203-.006.23-.033.459-.082.685-.138.585-.271 1.175-.445 1.749a16.83 16.83 0 0 0-.674 3.541 2.368 2.368 0 0 1-.235.79.644.644 0 0 1-.689.362.624.624 0 0 1-.552-.539 4.215 4.215 0 0 1-.07-.577Zm8.723-23.244a1.38 1.38 0 0 1 .039-.434c.543-1.59 1.292-3.053 2.62-4.145a.55.55 0 0 1 .257-.124c.088-.017.18 0 .256.047a.272.272 0 0 1 .097.225 1.978 1.978 0 0 1-.256.48 11.777 11.777 0 0 0-1.61 3.199A5.387 5.387 0 0 1 18 101.72c-.115.172-.255.298-.445.257a.51.51 0 0 1-.381-.513c-.013-.039-.01-.085-.01-.249Zm124.644 44.838a1.393 1.393 0 0 1-.118.343c-.177.27-.376.513-.566.783-.455.626-.893 1.267-1.372 1.878-.32.408-.801.474-1.069.161-.382-.446-.597-.769-.203-1.203.702-.79 1.408-1.578 2.322-2.139a.907.907 0 0 1 .632-.216.425.425 0 0 1 .374.393ZM89.094 5c.236-1.27.384-2.557.443-3.848.031-.275.099-.545.2-.803A.46.46 0 0 1 90.12 0a.511.511 0 0 1 .543.341c.15.29.201.622.148.944-.064.408-.125.821-.225 1.222a54.437 54.437 0 0 1-.691 2.532c-.088.21-.215.4-.376.559-.041.049-.167.033-.256.03-.029 0-.072-.053-.077-.089-.033-.172-.062-.354-.092-.539ZM30.455 33.844a30.418 30.418 0 0 1-3.445-.313 1.278 1.278 0 0 1-.768-.297.495.495 0 0 1-.181-.49.437.437 0 0 1 .378-.352c.181-.037.367-.044.55-.023 1.355.277 2.709.567 4.06.86.176.04.348.1.512.174.123.054.256.154.19.31a.272.272 0 0 1-.208.124c-.355.012-.719.007-1.088.007Zm93.807-16.404c.017.321-.215.419-.415.514-1.336.633-2.66 1.282-3.711 2.362a.593.593 0 0 1-.372.154.674.674 0 0 1-.378-.112.36.36 0 0 1-.123-.488c.115-.25.286-.47.499-.644 1.28-.841 2.58-1.624 4.128-1.845.126 0 .252.02.372.06Zm44.228 153.601a.396.396 0 0 1 0 .451c-.597 1.255-1.185 2.509-1.792 3.761a2.282 2.282 0 0 1-.366.56.479.479 0 0 1-.624.11.566.566 0 0 1-.256-.598.645.645 0 0 1 .084-.256c.868-1.36 1.615-2.802 2.767-3.962a.77.77 0 0 1 .187-.066Zm-62.039-99.832a1.013 1.013 0 0 1-.197 0l-.043-.016c-.428.257-.924.318-1.388.465-1.115.351-2.208.787-3.368.987h-.015c-.225-.34-.625-.161-.917-.3.645-.372 1.39-.415 2.084-.628.977-.26 1.934-.59 2.864-.988.132-.034.269-.045.404-.03.118.256.384.222.587.32a.605.605 0 0 1-.011.19Zm-83.285 32.892c.029.172.085.29.05.329-.759.865-1.522 1.724-2.292 2.578a1.741 1.741 0 0 1-.204.185.37.37 0 0 1-.497.012.42.42 0 0 1-.154-.487.655.655 0 0 1 .134-.241c.854-.942 1.743-1.845 2.963-2.376Zm168.355 87.128c.028.085.102.185.079.256a7.21 7.21 0 0 1-2.304 3.056.694.694 0 0 1-.386.128.508.508 0 0 1-.54-.346.382.382 0 0 1 .146-.488c1.093-.569 1.845-1.513 2.677-2.373.106-.083.224-.149.351-.195l-.023-.038ZM103.911 40.56c-.256-.091-.512-.281-.747 0-.213.258-.423.493-.648.727a.224.224 0 0 1-.181.078.222.222 0 0 1-.172-.096.945.945 0 0 0-.842-.585c-.43-.038-.417-.418-.451-.741a.237.237 0 0 1 .121-.256.232.232 0 0 1 .097-.027 2.4 2.4 0 0 1 .686.093 7.946 7.946 0 0 0 2.199.256c-.029.175-.044.365-.062.552Zm34.266 99.897c-.02.077-.018.175-.064.216a19.913 19.913 0 0 1-2.756 2.052.293.293 0 0 1-.125.055.284.284 0 0 1-.25-.086.278.278 0 0 1-.066-.12.449.449 0 0 1 .069-.37c.492-.513 2.401-1.559 3.192-1.747Zm34.811 32.277c-.016.136-.046.27-.09.4a7.446 7.446 0 0 1-.591 1.247c-.335.493-.391 1.214-1.093 1.424-.151-.649.295-1.129.487-1.675.192-.547.343-1.062.719-1.483a.52.52 0 0 1 .371-.087c.074-.003.136.105.197.174Zm-65.965-102.57a.444.444 0 0 1-.56.257.512.512 0 0 1 .56-.257Zm-.584.267a.423.423 0 0 1-.225.247.426.426 0 0 1-.333.01.493.493 0 0 1 .558-.257Zm85.103 120.829c.155-.108-.103-.095.08-.056l-.101.025.021.031Zm-146.65 7.981a35.772 35.772 0 0 1-3.633-1.632 1.985 1.985 0 0 1-.908-.818c-.202-.369.087-.967.527-.975.114.016.225.051.328.103a67.85 67.85 0 0 0 4.727 2.837.916.916 0 0 1 .287.29.332.332 0 0 1 .01.351.244.244 0 0 1-.168.104.246.246 0 0 1-.1-.009 7.412 7.412 0 0 1-1.07-.251Zm3.072 3.369a.326.326 0 0 1-.077.256c-.348.31-.773.52-1.231.606-1.28.349-2.59.654-3.885.977l-.256.069a.616.616 0 0 1-.73-.238.66.66 0 0 1 .31-.829c.239-.141.498-.245.768-.308 1.55-.256 3.105-.474 4.464-.677.157-.014.316-.014.473 0 .056.028.151.082.164.144Zm17.11-20.127a.833.833 0 0 1-.512.608 6.899 6.899 0 0 1-4.686.829 1.274 1.274 0 0 1-.479-.257.36.36 0 0 1 .115-.572c.217-.075.447-.106.676-.09 1.418.303 2.762 0 4.095-.441.251-.077.504-.254.791-.077Zm8.804-72.65c-.176.05-.343.13-.491.238-.94.829-1.874 1.665-2.514 2.771-.46.803-.944 1.593-1.418 2.388-.123.208-.291.419-.535.349-.135-.036-.256-.256-.317-.418-.333-.864-.584-1.767-1.065-2.565-1.154-1.909-1.907-4.015-2.99-5.963-.877-1.583-1.673-3.212-2.515-4.818-.098-.187-.213-.4-.482-.305a.056.056 0 0 0 0-.02h-.02l-.015.033.02.036c-.102.495.046.952.177 1.429a58.37 58.37 0 0 0 2.073 6.349c.325.814.553 1.673.942 2.453.282.532.514 1.089.69 1.665.083.314.208.615.372.895.36.597.659 1.229.89 1.886.246.601.545 1.179.894 1.727.481.808 1.216.864 1.792.141a10.6 10.6 0 0 0 .768-1.165c1-1.667 1.983-3.335 3.104-4.941a5.51 5.51 0 0 0 .976-1.842c.03-.146-.19-.38-.336-.323Zm-4.423 7.463c-.668 1.049-1.226 1.005-1.832-.098-1.17-2.119-2.068-4.361-2.977-6.606-1.172-2.894-2.084-5.875-3.02-8.848 2.27 4.227 4.35 8.543 6.424 12.873.215.449.256 1.101.87 1.139.615.039.896-.567 1.178-1.044.143-.238.256-.5.41-.728.875-1.24 1.699-2.525 3.014-3.366-1.338 2.25-2.662 4.484-4.067 6.678Zm12.343 3.75a22.497 22.497 0 0 1-1.7 3.336 1.176 1.176 0 0 1-.608.546c-.146.051-.407-.126-.39-.287a1.003 1.003 0 0 1 .072-.398 18.785 18.785 0 0 1 2.34-3.276c.04-.049.148-.036.225-.054.023.051.074.105.061.133Zm-9.656-42.821v2.612c-.63-1.188-.909-2.22-.876-2.989a.764.764 0 0 1 .054-.27.415.415 0 0 1 .417-.279.446.446 0 0 1 .302.257 2.2 2.2 0 0 1 .103.67Zm1.379.413c.08.631.169 1.268-.085 1.891a2.286 2.286 0 0 1-.47-1.84.308.308 0 0 1 .256-.256.24.24 0 0 1 .299.205Zm5.196-15.762a3.17 3.17 0 0 1-.256.49c-.466.744-.934 1.485-1.413 2.222-.126.26-.343.464-.61.574 0-.136-.071-.282-.028-.39.41-1.026.835-2.052 1.265-3.078a.843.843 0 0 1 .256-.321.463.463 0 0 1 .627 0 .408.408 0 0 1 .159.503Zm-5.174-9.475a9.043 9.043 0 0 1-.688.873.8.8 0 0 1-.896.205c-.361-.131-.369-.482-.41-.813-.053-.434.162-.803.256-1.306-.496.24-.632.672-.85 1.026-.217.354-.396.741-.647 1.072a.494.494 0 0 1-.632.123.486.486 0 0 1-.325-.41 1.889 1.889 0 0 1 .05-.682c.31-.826.642-1.644.997-2.453.124-.249.286-.477.48-.675.513-.551.666-.541 1.38.052a5.956 5.956 0 0 0 1.173-1.54c.468-.77.8-.79 1.474-.113.061.05.13.089.202.118.35-.205.456-.582.666-.882.476-.69 1.008-.7 1.535-.039.082.1.149.21.223.316.466-.257.543-.77.865-1.096.225-.228.392-.195.737.185l.325.613c.456-.33.466-.9.789-1.282.161-.188.34-.344.591-.236a.581.581 0 0 1 .41.513c-.016.359-.098.713-.167 1.177.548-.326.75-.788 1.009-1.198.097-.156.138-.349.235-.513.379-.593.783-.652 1.336-.17.205.18.333.321.512 0a.884.884 0 0 1 .08-.112c.202-.275.447-.513.81-.426.415.097.543.48.653.836.079.273.053.565-.074.819-.468 1.008-1.023 1.975-1.305 3.078a.359.359 0 0 1-.433.257.957.957 0 0 1-.455-.29c-.238-.31.069-.741-.218-1.096-.425.124-.596.514-.837.834-.14.185-.256.395-.397.572-.284.344-.565.329-.92-.036a2.077 2.077 0 0 1-.142-.233c-.018-.026-.069-.023-.179-.054-.312.354-.632.747-.983 1.111a.632.632 0 0 1-.768.1.612.612 0 0 1-.327-.577c0-.272.1-.544.128-.819.015-.148-.09-.24-.256-.24a.295.295 0 0 1-.213.335.606.606 0 0 1-.332.513.382.382 0 0 1-.018.136c-.197.36-.371.886-.832.803-.607-.105-.218-.69-.307-1.054a2.032 2.032 0 0 0-.085-.208c-.36.595-.678 1.152-1.024 1.69-.458.724-.604.735-1.387.147-.028-.02-.077-.015-.164-.03-.202.376-.41.738-.645 1.08Zm9.185 8.246c-.034.134-.095.26-.179.37-.256.379-.53.769-.816 1.123-.602.757-1.216 1.5-1.892 2.335-.182-.48 0-.721.1-.97.45-1.072 1.139-2.009 1.73-3 .108-.148.246-.273.405-.366a.401.401 0 0 1 .512 0 .445.445 0 0 1 .14.508Zm2.274-7.394a4.514 4.514 0 0 0-3.463-1.452c-.82 0-1.62.513-2.45.07-1.476.274-2.892.692-3.916 1.877-.389.45-.852.888-.99 1.496a6.522 6.522 0 0 0-.128 2.489c.238 1.467 1.408 2.134 2.88 1.675.489-.14.968-.311 1.435-.513a21.464 21.464 0 0 1 5.178-1.527 8.148 8.148 0 0 0 1.075-.27 1.37 1.37 0 0 0 .817-.715c.455-.903.266-2.38-.438-3.13Zm-1.559 2.979c-.57.198-1.15.364-1.738.497-1.22.28-2.395.726-3.493 1.327-.534.282-1.09.52-1.662.713-.706.23-1.133-.164-1.136-.936 0-.968.525-1.696 1.136-2.31.413-.42.87-.805 1.26-1.26a.41.41 0 0 1 .483-.168c.031.9.116 1.252.448 1.816a1.6 1.6 0 0 0 1.767.81 1.6 1.6 0 0 0 .624-.297 3.904 3.904 0 0 0 1.415-2.027c.095-.292.292-.336.543-.164.379.257.768.5.87 1.026.087.454-.061.826-.517.973Zm2.354 4.11c-.65.96-1.302 1.915-1.955 2.868a6.78 6.78 0 0 1 1.41-3.461.456.456 0 0 1 .369-.103c.217.039.256.239.256.429a.513.513 0 0 1-.08.267Zm7.526 21.008c0 .05-.143.132-.21.124a1.279 1.279 0 0 1-1.052-.95.489.489 0 0 1 .33-.513.43.43 0 0 1 .13.019c.352.15.835.928.802 1.32Zm.703-2.147c.256.431.494.873.724 1.283-.079.118-.138.257-.174.257-.56-.087-1.131-.919-1-1.463a.277.277 0 0 1 .197-.146.308.308 0 0 1 .253.07Zm-5.503-31.338c-.094-.292.287-.551.512-.785.911-.938 1.672-.336 1.881.45.267.837.404 1.711.407 2.59-.038 1.065.372 2.084.679 3.1.169.551.714.808.972 1.326a14.342 14.342 0 0 0 2.304 3.435.72.72 0 0 1 .025 1.014c-.565.664-.939 1.483-1.622 2.052-.105.087-.19.229-.31.27-.512.18-1.024.364-1.385.83-.053.068-.256.047-.386.019s-.19-.188-.184-.326a9.624 9.624 0 0 1 .069-1.247c.135-.82.645-1.406 1.31-1.863.218-.124.445-.234.678-.328-.181-.172-.256-.308-.386-.357-1.308-.536-2.048-1.695-2.923-2.69-.348-.393-1.28-2.887-1.28-3.456a3.19 3.19 0 0 0-.345-1.476.805.805 0 0 1-.07-.12c-.312-.813.323-1.596.054-2.438Zm8.741-4.733.153.162v.018l-.023-.029-.13-.15Zm1.976 14.98a.408.408 0 0 1-.098-.554c.3-.77.6-1.54.924-2.309a1.11 1.11 0 0 1 .356-.408.373.373 0 0 1 .512.062.677.677 0 0 1 .131.356.496.496 0 0 1-.077.257 10.634 10.634 0 0 1-1.748 2.596Z"/><path d="M97.278 44.086a.079.079 0 0 0 0 .026c.036-.026.034-.077.041-.121a.231.231 0 0 1-.04.095Zm2.207.895a.197.197 0 0 0-.057-.015.454.454 0 0 0-.212.026c.059.02.11.056.148.105.053.072.098.15.133.233a.36.36 0 0 0 .257.213c-.182-.095-.088-.467-.27-.572v.01Zm6.975 26.035c-.08.066-.166.123-.256.172l.043.016c.066.006.132.006.197 0a.622.622 0 0 0 .016-.188Zm.284-.067a.51.51 0 0 0 .588-.195c-.181.11-.407.083-.588.195Zm.837-.272a.253.253 0 0 0 .29-.089.256.256 0 0 0 .045-.098 1.103 1.103 0 0 0-.335.188Zm-8.052-18.935h-.097l.061-.034.036.034Z"/><path d="m99.529 51.742-.037-.039h.026a.152.152 0 0 0 .01.04Zm.455-8.359c-.338.703-.305 1.424-.226 2.157a.358.358 0 0 1-.256-.212 1.23 1.23 0 0 0-.133-.234.315.315 0 0 0-.148-.105c.076-.729.146-1.457.24-2.183.033-.183.101-.358.203-.513a.318.318 0 0 1 .225-.11.22.22 0 0 1 .256.256c.004.322-.051.642-.161.944Zm7.349 27.372a.513.513 0 0 1-.589.195.407.407 0 0 1 .589-.195Zm.582-.265a.254.254 0 0 1-.335.188.256.256 0 0 1 .335-.188ZM97.406 44.317l-.123-.095s.016.033.03.041a.97.97 0 0 0 .111.038l-.018.016ZM61.547 101.49a.074.074 0 0 0 0 .023l-.031.013.031-.036Z"/><path d="M74.21 110.158a5.482 5.482 0 0 1-.976 1.842c-1.12 1.594-2.103 3.274-3.104 4.942-.23.405-.487.794-.768 1.164-.576.724-1.31.667-1.792-.141a10.798 10.798 0 0 1-.893-1.726 10.235 10.235 0 0 0-.89-1.886 3.571 3.571 0 0 1-.372-.895 9.544 9.544 0 0 0-.691-1.665c-.39-.77-.617-1.64-.942-2.453a58.316 58.316 0 0 1-2.073-6.35c-.13-.477-.28-.933-.177-1.429a.384.384 0 0 1 0-.048c.256-.095.384.118.481.305.843 1.606 1.639 3.235 2.516 4.818 1.083 1.947 1.836 4.053 2.99 5.962.481.798.732 1.701 1.065 2.566.064.161.181.382.317.418.256.069.412-.141.535-.349.474-.795.957-1.585 1.418-2.388.64-1.106 1.574-1.943 2.514-2.771.148-.108.315-.189.491-.239.166-.059.387.175.35.323Zm-27.941 89.139a.244.244 0 0 1-.206.199.246.246 0 0 1-.102-.009 7.553 7.553 0 0 1-1.07-.256 35.772 35.772 0 0 1-3.631-1.632c-.382-.17-.7-.456-.91-.818-.201-.37.088-.968.528-.975.114.016.225.051.328.102a67.486 67.486 0 0 0 4.727 2.838.916.916 0 0 1 .287.29.334.334 0 0 1 .049.261Zm1.618 3.559c-.348.31-.773.52-1.231.605-1.28.349-2.59.655-3.885.978l-.256.069a.613.613 0 0 1-.73-.239.657.657 0 0 1 .31-.828c.239-.142.498-.245.768-.308 1.55-.257 3.105-.475 4.464-.677.157-.014.316-.014.473 0 .07.023.164.087.177.148a.332.332 0 0 1-.09.252Zm17.187-20.373a.833.833 0 0 1-.512.608 6.899 6.899 0 0 1-4.686.829 1.274 1.274 0 0 1-.479-.257.36.36 0 0 1 .115-.572c.217-.075.447-.106.676-.09 1.418.303 2.762 0 4.095-.441.251-.077.504-.254.791-.077Zm16.724-61.437a22.497 22.497 0 0 1-1.7 3.336 1.176 1.176 0 0 1-.608.546c-.146.051-.407-.126-.39-.287a1.003 1.003 0 0 1 .072-.398 18.785 18.785 0 0 1 2.34-3.276c.04-.049.148-.036.225-.054.023.051.074.105.061.133Zm3.204-66.793a4.514 4.514 0 0 0-3.463-1.452c-.82 0-1.62.513-2.45.07-1.476.274-2.892.692-3.916 1.877-.389.45-.852.888-.99 1.496a6.522 6.522 0 0 0-.128 2.489c.238 1.467 1.408 2.134 2.88 1.675.489-.14.968-.311 1.435-.513a21.464 21.464 0 0 1 5.178-1.527 8.148 8.148 0 0 0 1.075-.27 1.37 1.37 0 0 0 .817-.715c.455-.903.266-2.38-.438-3.13Zm-1.559 2.979c-.57.198-1.15.364-1.738.497-1.22.28-2.395.726-3.493 1.327-.534.282-1.09.52-1.662.713-.706.23-1.133-.164-1.136-.936 0-.968.525-1.696 1.136-2.31.413-.42.87-.805 1.26-1.26a.41.41 0 0 1 .483-.168c.031.9.116 1.252.448 1.816a1.6 1.6 0 0 0 1.767.81 1.6 1.6 0 0 0 .624-.297 3.904 3.904 0 0 0 1.415-2.027c.095-.292.292-.336.543-.164.379.257.768.5.87 1.026.087.454-.061.826-.517.973Zm11.847 2.763c-.566.664-.94 1.483-1.623 2.052-.105.087-.19.229-.31.27-.512.18-1.024.364-1.385.83-.053.068-.256.047-.386.019s-.19-.188-.184-.326a9.624 9.624 0 0 1 .069-1.247c.135-.82.645-1.406 1.31-1.863.218-.124.445-.234.678-.328-.181-.172-.255-.308-.386-.357-1.308-.536-2.048-1.695-2.923-2.69-.348-.393-1.28-2.887-1.28-3.456a3.19 3.19 0 0 0-.345-1.476.815.815 0 0 1-.07-.12c-.291-.816.344-1.598.072-2.44-.094-.292.287-.552.512-.785.911-.94 1.671-.336 1.881.449.266.838.404 1.712.407 2.591-.038 1.065.371 2.083.679 3.1.169.55.714.807.972 1.326a14.342 14.342 0 0 0 2.304 3.435.72.72 0 0 1 .008 1.016ZM78.331 50.36a.06.06 0 0 1 0-.022v.022Z"/><path d="M78.558 50.01c-.093.095-.21.172-.223.318-.256.09-.172.385-.323.539a.382.382 0 0 1-.018.136c-.197.359-.37.885-.832.803-.606-.106-.217-.69-.307-1.055a2 2 0 0 0-.084-.208c-.361.596-.678 1.152-1.024 1.691-.458.724-.604.734-1.387.146-.028-.02-.077-.015-.164-.03-.21.338-.417.7-.653 1.041a9.043 9.043 0 0 1-.688.872.8.8 0 0 1-.896.206c-.361-.131-.369-.483-.41-.814-.053-.433.162-.803.256-1.306-.496.242-.632.673-.85 1.027-.217.354-.396.741-.647 1.072a.494.494 0 0 1-.632.123.486.486 0 0 1-.325-.41 1.889 1.889 0 0 1 .05-.683c.31-.826.642-1.643.997-2.452a2.64 2.64 0 0 1 .48-.675c.513-.552.666-.541 1.38.051a5.956 5.956 0 0 0 1.173-1.54c.468-.769.8-.79 1.474-.112.061.049.13.089.202.118.35-.205.456-.582.666-.883.476-.69 1.008-.7 1.535-.038.082.1.149.21.223.316.466-.257.543-.77.865-1.096.225-.228.392-.195.737.185.256.995.272 1.924-.575 2.658Z"/><path d="M85.651 47.419c-.468 1.008-1.024 1.975-1.305 3.078a.359.359 0 0 1-.433.257.957.957 0 0 1-.455-.29c-.239-.31.069-.742-.218-1.096-.425.123-.596.513-.837.834-.14.185-.256.395-.397.572-.284.344-.565.329-.921-.036a2.077 2.077 0 0 1-.14-.233c-.019-.026-.07-.023-.18-.054-.312.354-.632.747-.983 1.11a.632.632 0 0 1-.768.1.612.612 0 0 1-.327-.576c0-.272.1-.544.127-.819.016-.148-.089-.24-.255-.24l.59-2.64.326.612c.456-.33.466-.9.788-1.282.161-.188.34-.344.591-.236a.58.58 0 0 1 .41.513c-.015.359-.097.713-.166 1.177.547-.326.75-.787 1.008-1.198.097-.156.138-.349.236-.513.378-.593.783-.652 1.336-.17.204.18.332.321.512 0a.885.885 0 0 1 .079-.112c.202-.275.448-.513.811-.426.415.097.543.48.653.836.08.278.05.575-.082.831Zm-2.923 14.228c-.034.134-.095.26-.179.37-.256.379-.53.769-.816 1.123-.602.757-1.216 1.5-1.892 2.335-.182-.48 0-.721.1-.97.45-1.072 1.139-2.009 1.73-3 .108-.148.246-.273.405-.366a.401.401 0 0 1 .512 0 .445.445 0 0 1 .14.508Zm-4.011 1.229a3.17 3.17 0 0 1-.256.49c-.466.744-.934 1.485-1.413 2.222-.126.26-.343.464-.61.574 0-.136-.071-.282-.028-.39.41-1.026.835-2.052 1.265-3.078a.843.843 0 0 1 .256-.321.463.463 0 0 1 .627 0 .408.408 0 0 1 .159.503Zm7.149-1.801c0 .09-.024.178-.069.256-.65.96-1.302 1.916-1.955 2.869a6.779 6.779 0 0 1 1.41-3.461.454.454 0 0 1 .369-.103c.217.049.253.241.245.439Zm15.198-4.815a.486.486 0 0 1-.076.256 10.617 10.617 0 0 1-1.756 2.594.408.408 0 0 1-.097-.554c.299-.77.599-1.54.924-2.31.083-.163.205-.303.355-.407a.374.374 0 0 1 .512.061c.08.104.128.229.138.36ZM72.157 80.837c-.63-1.188-.908-2.22-.875-2.989 0-.092.019-.183.054-.27a.416.416 0 0 1 .417-.279.446.446 0 0 1 .302.257c.067.218.1.446.097.675.01.772.005 1.547.005 2.606Zm1.279-.307a2.286 2.286 0 0 1-.47-1.84.308.308 0 0 1 .256-.257.24.24 0 0 1 .294.216c.084.62.174 1.257-.08 1.88Zm19.887 1.82c0 .05-.143.132-.21.124a1.279 1.279 0 0 1-1.052-.95.489.489 0 0 1 .33-.513.43.43 0 0 1 .13.019c.352.15.835.928.802 1.32Zm1.427-.861c-.079.118-.138.256-.174.256-.56-.087-1.131-.918-1-1.462a.277.277 0 0 1 .333-.138.307.307 0 0 1 .12.066c.253.42.491.865.721 1.278ZM78.346 50.333a.606.606 0 0 1-.333.534c0-.257.04-.467.323-.54l.01.006Z"/><path d="M78.556 50.017a.296.296 0 0 1-.212.336h-.013a.36.36 0 0 1 .225-.336Z"/></g><defs><clipPath id="a"><path fill="#fff" d="M0 0h205v227H0z"/></clipPath></defs></svg>