<svg width="260" height="233" fill="none" xmlns="http://www.w3.org/2000/svg"><g clip-path="url(#a)"><path d="m47.419 164.698-.277-.399c-1.671-2.469-3.379-4.916-5.001-7.421a30.923 30.923 0 0 1-3.028-6.25c-.089-.246-.204-.484-.305-.715-1.689.435-7.426 3.123-9.511 4.447.063.247.156.485.277.71 1.175 1.674 2.359 3.348 3.284 5.174.134.198.288.382.46.548 2.188-1.452 4.312-2.949 6.778-3.826.158-.025.32-.025.478 0 .149.396-.177.475-.381.594-1.336.773-2.697 1.522-4.017 2.31-.843.511-1.632 1.111-2.49 1.708.867 2.082 2.063 3.872 3.043 5.783.98 1.912 1.924 3.717 2.938 5.671.235-.069.46-.171.666-.304a49.22 49.22 0 0 0 4.669-4.204 38.738 38.738 0 0 1 4.444-4.204c.697-.538 1.397-1.074 2.285-1.302 1.005-.256 1.58-.077 2.085.782.253.426.457.883.679 1.327 1.929 3.85 4.087 7.58 6.462 11.172.186.23.39.446.608.645.15-.304.305-.475.332-.67.091-1.738.73-3.348 1.306-4.937.666-1.863 1.491-3.671 2.194-5.522 1.257-3.312 2.764-6.508 4.337-9.674a2.01 2.01 0 0 0 .086-.52c-1.358-.195-2.654.13-3.957.158a8.7 8.7 0 0 1-1.48 0c-.7-.113-1.004-.636-.806-1.33a19.862 19.862 0 0 1 1.847-4.597c1.723-2.95 3.421-5.918 5.199-8.828a34.08 34.08 0 0 0 2.465-5.226c.426-1.078.868-2.149 1.288-3.23.04-.184.053-.372.042-.56-.946-.088-1.871-.18-2.797-.262-2.995-.265-5.828-1.163-8.625-2.201-.789-.304-1.522-.703-1.845-1.555-.106-.271-.182-.573.067-.758a.959.959 0 0 1 .73-.216c.725.249 1.425.578 2.131.895.782.404 1.584.765 2.405 1.083a26.01 26.01 0 0 0 6.315 1.245c1.54.104 3.09.095 4.636.07 1.044-.015 2.084-.158 3.128-.219 1.267-.07 2.536-.103 3.802-.173.88-.049 1.76-.104 2.636-.195 3.295-.341 6.59-.692 9.882-1.053.551-.058 1.087-.226 1.635-.271.74-.061 1.445-.146 1.798-1.02 1.303.98 2.645.609 3.902.46a66.91 66.91 0 0 1 8.261-.53c.773.009 1.546-.024 2.316-.098a6.055 6.055 0 0 0 1.117-.334c-.761-.57-1.552-.442-2.313-.515a.66.66 0 0 1-.454-.371c-.1-.305.134-.527.423-.582.378-.07.776-.042 1.148-.127.314-.101.62-.228.913-.381-.676-.572-1.422-.472-2.112-.563-.868-.116-1.218-.304-1.102-.67.191-.587.703-.609 1.217-.639.515-.03 1.099-.076 1.641-.164.282-.086.555-.202.812-.347-1.217-1.419-3.162-1.045-4.389-2.034.064-.548.427-.609.728-.685.867-.17 1.741-.304 2.617-.42a3.907 3.907 0 0 0 1.787-.609 2.043 2.043 0 0 0-.584-.383 18.22 18.22 0 0 0-2.289-.335c-1.373-.079-2.739-.027-4.124-.277-.965-.177-1.982-.076-2.977-.088-1.379-.019-2.757-.046-4.136-.034-2.319.018-4.642.043-6.96.098-1.927.045-3.851.146-5.784.213a23.131 23.131 0 0 0-4.602.52 6.6 6.6 0 0 1-.815.125c-2.13.231-4.261.521-6.42.67-1.521.103-3.08.018-4.723.018-.344.794-1.114 1.047-1.887 1.376a76.967 76.967 0 0 0-10.205 5.105c-.189.115-.36.262-.554.365-.691.368-1.321.283-1.729-.393a11.668 11.668 0 0 1-1.02-2.249c-.44-1.294-.32-2.615.022-3.915a1.15 1.15 0 0 1 .359-.533c.335-.286.706-.529 1.132-.84.15-2.115.846-4.149 1.656-6.133.748-1.827 1.522-3.653 2.739-5.248 1.172-1.522 2.17-3.191 3.549-4.566a51.337 51.337 0 0 1 5.305-4.484 49.65 49.65 0 0 1 3.81-2.64c2.131-1.312 4.502-2.07 6.864-2.83.84-.271 1.713-.424 2.563-.67a38.207 38.207 0 0 1 6.832-1.218c.822-.079 1.638-.283 2.463-.304 1.759-.076 3.527-.131 5.289-.098a58.44 58.44 0 0 1 4.782.305 39.8 39.8 0 0 1 4.261.654c.791.17 1.522.61 2.386.944.725-.792.819-2.012 1.358-3.014.538-1.001 1.053-1.936 1.64-3.007a2.936 2.936 0 0 0-.831-.396c-1.217-.143-1.847-.913-2.194-1.966-.241-.725-.359-1.492-.551-2.329a4.38 4.38 0 0 1-2.739-3.534c-.247-1.696.027-2.481 1.275-4.444-.043-.098-.058-.232-.131-.305-.986-.782-1.324-1.75-1.272-3.044.076-1.842 1.02-3.093 2.31-4.189.442-.33.917-.613 1.418-.843.874-.465 1.756-.913 2.618-1.357-.046-.174-.043-.305-.104-.375-.913-1.087-.831-2.362-.636-3.625.454-2.959 2.179-5.002 4.76-6.374 1.477-.786 3.029-1.343 4.852-1.05.061-.969.085-1.885.183-2.795a6.836 6.836 0 0 1 .353-1.604c.794-2.216 2.34-2.74 4.148-2.463 2.468.387 4.821 1.276 6.711 2.998.721.658 1.218 1.562 1.805 2.363.189.265.326.563.478.828.493.07.487-.4.718-.59a4.49 4.49 0 0 0 .682-.72c2.13-2.739 4.925-3.786 8.327-3.15 2.268.423 4.359 1.276 5.99 2.968 1.802 1.87 2.292 4.097 1.567 6.578-.374 1.279-1.32 2.17-2.294 2.965-.43.35-1.129.393-1.717.511-.861.174-1.156.61-.889 1.37.393 1.114.512 1.255 1.726 1.93l-.861 1.066c.211.11.438.188.672.228 1.753-.13 3.187.609 4.602 1.522a5.997 5.997 0 0 1 1.394 1.352c.88 1.068.81 2.23.557 3.451-.417 2.004-1.655 3.45-3.211 4.67-.131.1-.28.18-.414.277-.134.097-.249.213-.456.39-.149 1.522-.256 3.11-.478 4.688-.192 1.357-.338 2.77-1.032 3.957a14.074 14.074 0 0 1-3.348 4.036 12.403 12.403 0 0 1-2.55 1.522c-1.601.737-3.239 1.385-4.87 2.037a1.924 1.924 0 0 0-1.193 1.068c-.329.813-.63 1.635-.913 2.365l1.406 2.1c.222-.084.475-.164.706-.28.344-.17.66-.413 1.017-.547 2.13-.813 3.984-2.131 5.865-3.391 2.06-1.38 4.178-2.673 6.251-4.037 1.473-.974 2.919-1.99 4.359-3.013a264.752 264.752 0 0 0 4.821-3.501c.319-.21.582-.497.764-.834.188-.414.453-.505.849-.636a3.732 3.732 0 0 0 1.217-.81c.913-.797 1.665-1.735 2.739-2.386 1.014-.61 1.961-1.02 3.114-.332 1.893-1.522 3.735-3.026 5.57-4.524.511-.417.971-.913 1.503-1.284 3.391-2.46 6.803-4.892 10.19-7.352 1.826-1.327 3.628-2.688 5.433-4.045 1.982-1.489 3.984-2.95 5.92-4.493 1.464-1.166 2.831-2.454 4.261-3.653a22.215 22.215 0 0 1 2.064-1.644c1.601-1.074 3.068-2.328 4.742-3.312.788-.462 1.421-1.217 2.091-1.86.59-.575 1.135-1.199 1.798-1.908a2.611 2.611 0 0 0-.048-.649c-.439-1.54-.932-3.062-1.343-4.608-.843-3.197-1.795-6.365-2.41-9.622a7.836 7.836 0 0 1-.11-.655c-.173-1.553.073-2.076 1.455-2.819 3.308-1.775 6.571-3.628 9.703-5.71a71.288 71.288 0 0 0 5.074-3.717c1.85-1.492 3.701-2.98 5.509-4.517 2.103-1.784 4.163-3.617 6.233-5.44a29.584 29.584 0 0 0 3.957-4.234c.468-.61.934-1.236 1.43-1.827.442-.523 1.026-.423 1.303.207.088.202.155.414.198.63.216 1.08.441 2.161.624 3.251.608 3.59 1.217 7.178 2.288 10.654.743 2.436 1.355 4.87 2.131 7.306.545 1.726 1.217 3.41 1.689 5.175.363 1.327.839 2.62 1.425 3.866a3.304 3.304 0 0 1-.168 3.318 213.65 213.65 0 0 1-3.394 5.287c-1.625 2.47-3.865 4.369-5.95 6.411a28.414 28.414 0 0 1-4.185 3.455c-1.61 1.063-3.177 2.189-4.787 3.245a11.35 11.35 0 0 1-1.775.88c-1.567.67-3.18 1.25-4.717 1.985-1.537.733-3.123 1.056-4.739 1.357-.624.119-1.3-.033-1.89-.06l-.642-.938a2.043 2.043 0 0 0-.46.158c-2.712 1.696-5.454 3.348-7.956 5.355-.992.79-1.878 1.71-2.855 2.523-1.61 1.342-3.266 2.633-4.885 3.957-2.003 1.647-3.984 3.324-5.987 4.974-2.002 1.65-4.112 3.349-6.154 5.035-.849.703-1.71 1.403-2.483 2.186-1.754 1.771-3.732 3.266-5.634 4.87-1.522 1.276-2.977 2.621-4.468 3.942 0 .536.344.892.636 1.294.691.956.66 1.64-.177 2.496-.654.67-1.381 1.266-2.075 1.896-.283.256-.673.457-.834.777a1.354 1.354 0 0 1-1.114.825c-.347.051-.664.368-.962.608a3009.65 3009.65 0 0 0-8.129 6.524c-1.933 1.552-3.957 3.013-5.783 4.691-2.067 1.905-4.243 3.701-6.088 5.829-1.193 1.367-2.456 2.673-3.652 4.042a16.764 16.764 0 0 0-2.77 4.472c-.56 1.318-1.202 2.603-1.771 3.918-.609 1.409-1.217 2.806-1.92 4.182a18.349 18.349 0 0 0-1.264 3.754c-.913 3.586-2.282 7.001-3.518 10.486-.441 1.239-.746 2.53-1.181 3.775-.742 2.131-1.406 4.304-2.499 6.301-.66 1.218-1.308 2.435-2.008 3.619a18.136 18.136 0 0 1-1.312 1.882c-.505.648-1.059 1.26-1.659 1.963 1.087 1.522 2.213 3.026 3.251 4.584a33.172 33.172 0 0 1 1.71 3.017 182.66 182.66 0 0 1 2.608 5.175c.743 1.522 1.434 3.096 2.131 4.651 1.015 2.263 2.029 4.529 3.044 6.798.353.8.712 1.604 1.01 2.435.609 1.704 1.102 3.47 1.826 5.126 1.111 2.53 1.498 5.3 2.721 7.79.335.685.387 1.503.709 2.197 1.346 2.908 2.046 6.049 3.327 8.98.463 1.054.661 2.223 1.096 3.291.913 2.256 1.342 4.66 2.145 6.95.201.569.43 1.129.661 1.689.517 1.242.414 1.714-.609 2.615a3.197 3.197 0 0 1-.517.411c-1.689.913-3.366 1.826-5.278 2.298-2.572.609-5.146 1.257-7.609 2.286a2.875 2.875 0 0 1-.797 0c.712-.825 1.47-1.16 2.194-1.504 1.988-.949 3.972-1.914 6.087-2.551a13.744 13.744 0 0 0 4.566-2.474c-.585-1.072-.405-2.381-1.187-3.331-.165.034-.232.028-.268.058-1.826 1.595-4.045 2.436-6.224 3.349-1.625.688-3.239 1.406-4.87 2.094-.651.274-1.321.505-2.13.804.066.858.432 1.826.142 2.764-.66.277-1.013-.122-1.259-.539a20.565 20.565 0 0 1-1.291-2.493c-.84-2.028-1.555-4.11-2.535-6.088-.363-.731-.512-1.568-.807-2.341a84.67 84.67 0 0 0-4.358-9.631c-1.47-2.774-2.928-5.559-4.487-8.283-.654-1.142-1.254-2.317-1.947-3.431-.786-1.26-1.662-2.466-2.508-3.686-.81-1.172-1.699-2.295-2.344-3.574a1.714 1.714 0 0 0-.274-.411c-1.607-1.607-2.739-3.592-4.191-5.315-.816-.962-1.461-2.073-2.197-3.105a72.681 72.681 0 0 0-1.964-2.666c-1.406-1.827-2.8-3.653-4.261-5.425-1.826-2.213-3.652-4.417-5.56-6.545-1.218-1.348-2.581-2.553-3.957-3.896-.192.25-.368.442-.505.658-1.33 2.097-2.615 4.222-3.993 6.289-1.072 1.601-2.277 3.114-3.385 4.694a59.594 59.594 0 0 0-2.365 3.595 464.265 464.265 0 0 0-4.787 8.127 50.212 50.212 0 0 1-3.57 5.175c-.868 1.142-1.705 2.307-2.588 3.434a96.37 96.37 0 0 1-2.739 3.348 297.918 297.918 0 0 1-4.83 5.449 12.28 12.28 0 0 1-8.732 4.14c-.165 0-.329.039-.493.058-2.663.319-5.113-.399-7.512-1.483-2.216-1.001-3.938-2.566-5.521-4.365-1.166-1.327-2.322-2.657-3.43-4.033-1.826-2.277-3.592-4.606-4.992-7.193-.63-1.16-1.263-2.317-1.795-3.522-.11-.253-.225-.503-.305-.764-.844-2.509-1.684-5.018-2.52-7.528-.192-.579-.392-1.151-.557-1.735-.362-1.282-.195-2.378 1.005-3.206.858-.59 1.64-1.287 2.514-1.984a3.334 3.334 0 0 0-.408-.758c-1.461-1.48-2.359-3.306-3.202-5.175-.091-.201-.155-.414-.256-.609-1.619-3.199-3.235-6.393-4.87-9.595-.499-.977-1.07-1.918-1.664-2.968-.487.201-.947.35-1.373.569-2.456 1.255-4.97 2.396-7.226 4.022a12.03 12.03 0 0 1-2.498 1.275 3.72 3.72 0 0 1-2.435.18c-1.394-.381-2.13-1.498-1.686-2.856a5.978 5.978 0 0 1 .913-1.744 10.09 10.09 0 0 1 1.722-1.781c1.741-1.357 3.473-2.724 5.479-3.704 1.634-.801 3.192-1.754 4.827-2.554a57.906 57.906 0 0 1 7.764-3.27c.837-.27 1.708-.441 2.563-.651a1.19 1.19 0 0 1 1.303.508c.178.212.316.454.407.716.369 1.263 1.178 2.377 1.245 3.753.015.359.265.715.442 1.059a63.864 63.864 0 0 0 5.201 8.652 19.02 19.02 0 0 1 2.526 4.821c.073.256.128.516.165.78l-.29.088Zm97.584-90.256c.161-.46.368-.913.027-1.41l-.024 1.407c.246.283.481.575.742.84.563.57 1.254 1.014 2.046.825 1.047-.246 2.17-.396 2.988-1.187a7.557 7.557 0 0 0-.608-3.68 6.57 6.57 0 0 0-.679.441c-.852.697-1.707 1.388-2.526 2.13-.39.348-.761.61-1.318.521-.221.002-.44.04-.648.113Zm-25.411 5.342c-.609.067-1.218.268-1.781.165-.563-.104-1.041-.515-1.482-.752-.505.371-.947.694-1.382 1.02-.412.275-.804.58-1.172.913-.52.532-.468 1.2 0 1.78.469.582 1.062.752 1.732.871.67.119 1.306.222 1.942.393a.64.64 0 0 1 .478.658.64.64 0 0 1-.083.28 7.277 7.277 0 0 1-.772 1.062 14.167 14.167 0 0 0-2.804 4.83c-.542 1.705-.42 3.252 1.008 4.506.289.255.578.508.873.749 1.282 1.05 2.542 2.13 3.853 3.132 1.218.935 2.475 1.826 4.07 2.085 1.032.158 2.051.442 3.089.536 1.583.143 3.159.563 4.757.243 1.184-.24 2.435-.073 3.692-.675.304-.953.642-2 1.014-3.044.261-.725.407-1.602.913-2.098.657-.651.8-1.41 1.056-2.182.187-.577.416-1.14.685-1.684a1.41 1.41 0 0 1 .654-.681c1.826-.68 3.348-1.927 5.086-2.767a11.3 11.3 0 0 0 4.142-3.443 7.255 7.255 0 0 0 1.403-3.321c.186-1.245.235-2.515.305-3.772a9.052 9.052 0 0 0-.089-1.285l-2.088.235-1.859.198c-.368.526-.609 1.178-1.068 1.464-.816.505-1.766.785-2.794 1.218 0-1.334 1.202-1.657 1.606-2.524-.639-1.218-1.284-2.41-1.95-3.653-.71.305-1.522.305-1.921.782-.146 1.197-.183 2.195-.405 3.154-.581 2.517-2.051 4.493-3.99 6.137a5.01 5.01 0 0 1-1.272.77 12.225 12.225 0 0 1-5.975 1.038c-.764-.073-1.567-.125-2.197-.633-.913-.728-1.747-1.522-2.094-2.7-.25-.837-.515-1.668-.798-2.572-2.036.264-3.798 1.385-5.749 1.86-.234-.646-.244-.761-.07-.941.461-.467.924-.93 1.391-1.388.319-.027.636-.079.946-.155 1.102-.36 2.177-.807 3.291-1.1a3.99 3.99 0 0 0 1.951-1.135c1.348-1.379 2.739-2.74 4.498-3.604 2.943-1.412 5.926-2.13 8.951-.365.843-.238 1.635-.45 2.42-.691.143-.046.256-.195.368-.283a8.933 8.933 0 0 1-.368-1.163.68.68 0 0 1 .18-.578.667.667 0 0 1 .608.036c.356.235.697.491 1.023.767.249-.511.426-.913.636-1.3.21-.386.447-.764.7-1.126.253-.362.533-.703.81-1.047s.608-.795.949-1.148c.325-.3.67-.58 1.032-.834.323-.25.81-.304 1.077-.819-.246-.048-.392-.124-.511-.094a37.97 37.97 0 0 0-1.914.536 2.108 2.108 0 0 1-1.753-.207.96.96 0 0 1-.531-.7.969.969 0 0 1 .254-.84c.2-.26.441-.485.724-.789l-1.75-1.13c-.591.515-1.068.972-1.589 1.374a2.39 2.39 0 0 1-2.651.234 8.425 8.425 0 0 1-.816-.487c-.359.24-.815.383-.974.682-.49.913-1.396 1.2-2.191 1.665-.345.17-.672.374-.977.609-.374.329-.837.54-1.33.609a3.74 3.74 0 0 0-.953.27 3.08 3.08 0 0 1-1.944.186c-.305-.049-.609-.158-.977-.256-.39.764-.71 1.462-1.09 2.131-.813 1.43-1.887 2.576-3.509 3.105-.408.157-.807.335-1.196.533.17 1.397-.235 2.569-.774 3.744-.605 1.34-1.561 2.383-2.574 3.406Zm2.964 68.092c-.718 0-1.26-.018-1.799 0-1.095.046-2.185.168-3.278.162-2.474 0-4.952-.104-7.426-.107-.983 0-1.966.265-2.952 0-.095-.027-.213.046-.323.055-1.75.122-3.509.405-5.25.323a28.812 28.812 0 0 0-7.22.669c-.7.14-1.418.192-1.917.841-.143.188-.484.222-.73.334a5.174 5.174 0 0 0-1.175.561c-1.124.913-2.435 1.522-3.714 2.149a14.083 14.083 0 0 1-4.87 1.552c-1.482.143-2.945.374-4.422.539-2.13.243-4.26.472-6.559.724-.192.393-.456.871-.666 1.373-2.56 6.17-4.922 12.414-6.775 18.834-.286.992-.935 1.881-.87 2.983 0 .106-.323.231-.46.319-.588-.523-1.127-.983-1.64-1.473-.28-.262-.643-.536-.743-.873-.284-.965-1.06-1.523-1.644-2.241a11.97 11.97 0 0 1-1.239-1.747c-.74-1.349-1.406-2.74-2.112-4.104-.192-.377-.408-.745-.676-1.217-.651.673-1.193 1.287-1.792 1.826-1.626 1.495-3.278 2.962-4.922 4.435a64.449 64.449 0 0 0-5.61 5.632 3.594 3.594 0 0 1-.459.475c-.137.112-.228.408-.511.182.048-.584.426-.995.748-1.43a39.886 39.886 0 0 1 4.505-5.078c.962-.913 1.939-1.808 2.885-2.739 1.492-1.462 2.883-3.044 4.937-3.857-.1-.402-.161-.722-.259-1.029a9.532 9.532 0 0 0-.404-1.087c-.372-.794-.898-.983-1.58-.45-1.257.986-2.514 1.981-3.668 3.083-2.154 2.058-4.245 4.183-6.622 5.997-1.315 1.008-2.587 2.07-3.924 3.044a1.69 1.69 0 0 0-.66 2.037 69.248 69.248 0 0 0 1.172 3.436 527.536 527.536 0 0 0 2.343 6.365c.22.622.487 1.226.798 1.809.776 1.397 1.552 2.8 2.416 4.142 1.13 1.76 2.277 3.516 3.707 5.063.52.566 1.014 1.16 1.522 1.726 1.674 1.826 3.324 3.653 5.57 4.87 2.7 1.458 5.479 2.25 8.565 1.951a9.943 9.943 0 0 0 5.691-2.395 38.492 38.492 0 0 0 3.589-3.632 109.141 109.141 0 0 0 6.391-8.006c.974-1.336 2.06-2.59 2.983-3.957a83.79 83.79 0 0 0 4.565-7.278c1.881-3.522 4.322-6.661 6.645-9.884 1.966-2.74 3.956-5.443 5.922-8.17.14-.173.244-.371.305-.585.134-.609.56-.764 1.095-.816.375.395.771.768 1.188 1.118 2.48 1.856 4.583 4.106 6.695 6.359.713.761 1.391 1.561 2.1 2.316.675.724 1.303 1.49 1.882 2.292.386.536.815 1.044 1.235 1.559.98 1.193 1.975 2.374 2.946 3.58.655.809 1.263 1.659 1.915 2.474.377.472.818.892 1.193 1.367.849 1.081 1.677 2.18 2.514 3.269 1.175 1.522 2.389 3.044 3.515 4.603.801 1.114 1.47 2.32 2.216 3.473.98 1.522 2.03 3.005 2.958 4.566.789 1.324 1.473 2.71 2.152 4.095.913 1.878 1.954 3.695 2.831 5.601.709 1.546 1.552 3.044 2.173 4.627.782 1.993 1.58 3.981 2.328 5.99.913 2.435 1.966 4.776 2.971 7.157.055.128.216.213.265.255 1.607-.63 3.144-1.217 4.672-1.826 1.527-.609 3.135-1.105 4.583-1.884 1.449-.78 3.117-1.044 4.486-2.025-.21-.818-.356-1.57-.608-2.292-.509-1.522-1.081-2.998-1.604-4.505a229.931 229.931 0 0 0-3.397-9.132c-1.217-3.071-2.194-6.231-3.266-9.357-.231-.676-.35-1.398-.608-2.058-.862-2.149-1.766-4.28-2.658-6.417-.809-1.933-1.564-3.893-2.462-5.784a23.342 23.342 0 0 1-1.573-3.981 4.214 4.214 0 0 0-.405-.913 13.521 13.521 0 0 1-1.284-3.045 1.63 1.63 0 0 0-.329-.745c-.609-.609-.874-1.391-1.236-2.131a45.988 45.988 0 0 0-1.549-2.919c-.834-1.428-1.714-2.825-2.584-4.232-.164-.264-.368-.499-.533-.721a1.69 1.69 0 0 0-.411.128c-1.826 1.297-4.023 1.796-6.06 2.612a24.928 24.928 0 0 1-3.816 1.025c-.928.207-1.918.46-2.931.162-1.09-.323-1.367-.627-1.218-1.754.101-.764.22-1.522.363-2.286.347-1.826.508-3.716 1.12-5.506.283-.834.52-1.684.77-2.53.408-1.373.831-2.74 1.217-4.125.338-1.178.724-2.331.773-3.796h-.012Zm42.385-63.766c-1.083.727-2.024 1.403-3.004 2.009-3.104 1.915-6.059 4.046-9.039 6.143-2.569 1.808-5.031 3.784-7.813 5.284-1.014.548-2.018 1.12-3.029 1.678a1.569 1.569 0 0 0-.846.965c-.526 1.914-1.08 3.823-1.592 5.744a6.1 6.1 0 0 0-.082 1.153c.002.166-.011.331-.039.493a.584.584 0 0 1-.609.448 1.118 1.118 0 0 1-.989-.505c-.216-.305-.402-.661-.609-.987-.304-.447-.435-1.01-1.047-1.333a3.17 3.17 0 0 0-.28.566 872.435 872.435 0 0 0-1.659 6.061c-.627 2.344-1.439 4.633-1.884 7.029a65.885 65.885 0 0 1-2.343 8.776c-.889 2.666-1.918 5.284-2.697 7.984-.487 1.696-1.029 3.376-1.482 5.078-.304 1.172-.49 2.377-.767 3.558a941.508 941.508 0 0 1-2.058 8.523c-.234.962-.514 1.912-.733 2.877-.749 3.281-1.484 6.565-2.207 9.851-.022.276-.015.555.019.831 1.473-.372 2.806-.716 4.142-1.042 2.989-.727 5.768-1.859 7.968-4.115.423-.432.804-.913 1.218-1.346 3.271-3.479 5.603-7.473 6.711-12.151.344-1.449.788-2.877 1.184-4.314.523-1.907 1.047-3.818 1.57-5.732.323-1.169.472-2.377.77-3.543.572-2.24 1.327-4.432 2.021-6.642.107-.315.241-.62.399-.913.806-1.626 1.622-3.245 2.435-4.871.87-1.738 1.902-3.348 3.372-4.66.739-.658 1.472-1.324 2.201-2 .401-.374.773-.785 1.184-1.154 1.555-1.394 3.086-2.819 4.687-4.155 1.99-1.656 4.045-3.236 6.066-4.87.688-.551 1.345-1.139 2.039-1.681 1.388-1.086 2.803-2.13 4.182-3.232 1.379-1.102 2.867-2.201 4.215-3.568a7.552 7.552 0 0 0-.752-.685c-.989-.682-2.017-1.309-2.988-2.015a19.238 19.238 0 0 1-3.254-3.01c-1.689-1.955-3.406-3.876-4.581-6.527Zm60.13-28.919c.287.03.577.03.864 0a26.793 26.793 0 0 0 2.855-.806c2.675-1.032 5.195-2.411 7.792-3.626 2.176-1.02 4.06-2.453 5.877-3.957a51.671 51.671 0 0 0 6.805-6.733c.35-.42.761-.795 1.072-1.242.724-1.035 1.327-2.165 2.13-3.136 1.126-1.363 1.467-2.678.682-4.38a59.66 59.66 0 0 1-2.283-6.027c-.785-2.344-1.448-4.728-2.176-7.093-.179-.578-.478-1.13-.584-1.717-.305-1.567-.795-3.074-1.072-4.65-.304-1.736-.657-3.462-.913-5.212-.158-1.13-.365-2.253-.581-3.574-.374.329-.609.52-.834.737-1.452 1.436-2.873 2.904-4.352 4.307-.962.913-2.055 1.68-3.004 2.6-2.907 2.8-6.148 5.205-9.271 7.74-2.569 2.089-5.494 3.687-8.34 5.376-1.801 1.069-3.652 2.043-5.478 3.044a.978.978 0 0 0-.536 1.1c.205 1.53.526 3.041.959 4.523.761 2.593 1.437 5.211 2.197 7.802.259.873.372 1.805.798 2.648.63-.329 1.15-.633 1.698-.877.691-.304 1.415-.402 2 .204a1.761 1.761 0 0 1 .359 1.997c-.128.326-.383.609-.35 1.06h.73c.774 0 1.142.517.99 1.37a3.855 3.855 0 0 1-.366.912c-.21.439-.441.862-.7 1.37.578.03 1.153.092 1.723.186a1.288 1.288 0 0 1 .962 1.053c.085.502-.049 1.044-.089 1.604.434-.07.871-.11 1.309-.121a.945.945 0 0 1 .961.813.93.93 0 0 1-.048.453 2.445 2.445 0 0 1-.456.858c-.341.411-.74.789-1.318 1.395h-.012ZM123.14 145.826c.183-.886.305-1.586.472-2.28.536-2.435.947-4.871 1.647-7.254.934-3.166 2.085-6.271 3.165-9.394.846-2.435 1.632-4.907 2.274-7.424 1.181-4.646 2.459-9.27 4.173-13.76.18-.402.305-.827.371-1.263.027-.277-.186-.572-.305-.876-.864.462-1.637.849-2.532.913-1.701.109-3.403.258-5.092-.159-.529-.13-1.08-.194-1.622-.277-2.505-.383-4.8-1.287-6.72-2.955-1.413-1.218-2.715-2.579-4.057-3.885a12.51 12.51 0 0 1-.889-.98c-.305-.362-.585-.742-.941-1.2-.163.201-.31.415-.438.64a196.644 196.644 0 0 0-1.485 3.498 70.976 70.976 0 0 0-1.622 4.322c-.81 2.396-1.668 4.767-2.35 7.209-.381 1.369-.718 2.776-1.54 3.993a1.285 1.285 0 0 0-.052 1.428c.244 0 .46.037.67.03a29.451 29.451 0 0 1 8.354.847c.795.218 1.573.493 2.329.822.444.185.995.408.913 1.022-.061.542-.542.816-1.005 1.011a5.881 5.881 0 0 1-.961.234l-1.34.305c.663.359 1.307.751 1.93 1.175.727.539.721 1.035.088 1.796l-.344.408c.503.505.825 1.059.457 1.774-.164.305.119.494.225.734.286.648.168 1.044-.426 1.382a2.615 2.615 0 0 1-.913.356c-.864.164-1.741.249-2.621.253-3.101-.143-6.175.201-9.255.426-.77.058-1.522.192-2.298.289a.951.951 0 0 0-.864.667c-.375 1.153-.816 2.295-1.075 3.476a19.606 19.606 0 0 1-.88 2.828c-.304.822-.636 1.641-.928 2.472-.88 2.49-1.749 4.982-2.605 7.476-.021.064.082.17.143.289a21.57 21.57 0 0 1 5.037-.676c1.975 0 3.957-.115 5.929-.015.545.028 1.105-.134 1.644-.073 2.293.263 4.6.398 6.909.405 2.766.003 5.515-.009 8.43-.009Zm-15.595-53.027c-1.327-.19-2.307-.305-3.269-.475a29.878 29.878 0 0 0-7.058-.585c-1.93.095-3.862.186-5.783.4a47.527 47.527 0 0 0-4.89.83c-1.508.323-2.997.73-4.46 1.218-1.613.548-3.272 1.032-4.705 2.006-1.184.803-2.392 1.577-3.522 2.435a47.498 47.498 0 0 0-4.924 4.164 32.078 32.078 0 0 0-4.87 6.654 23.396 23.396 0 0 0-2.41 6.14c-.147.609-.506 1.218-.29 1.976a6.14 6.14 0 0 0 1.769-.518 4.05 4.05 0 0 1 .934-.322c1.613-.35 3.226-.7 4.843-1.017 1.296-.253 2.599-.609 3.907-.645a5.582 5.582 0 0 0 2.627-.813c1.004-.575 1.975-1.218 3.016-1.723 3.278-1.574 6.51-3.248 9.877-4.642.797-.329 1.46.137 1.39.995a3.083 3.083 0 0 1-.669 1.489c-1.059 1.546-2.283 2.965-3.479 4.401-.514.609-1.04 1.267-1.153 2.232.398-.025.721-.034 1.04-.067 1.863-.213 3.708-.579 5.598-.579 3.147 0 6.294-.064 9.435-.124 1.041-.022 2.079-.125 3.059-.189a2.394 2.394 0 0 0 .545-2.091 3.236 3.236 0 0 1 .496-2.527c.262-.402.338-.928.499-1.394.609-1.72.849-3.546 1.631-5.212.585-1.245 1.114-2.517 1.659-3.783.119-.274.192-.569.304-.944-.937-.158-1.753-.283-2.565-.435-.813-.152-1.623-.329-2.435-.5a1.85 1.85 0 0 1-1.178-.849.968.968 0 0 1-.015-1.099c.15-.231.337-.437.554-.608.974-.813 1.966-1.605 2.937-2.417.471-.363.901-.786 1.555-1.382Zm108.389-45.271c-.286.21-.554.377-.788.584-.566.512-1.075 1.102-1.687 1.553-1.238.913-2.55 1.725-3.795 2.63-1.467 1.068-2.897 2.188-4.343 3.287-.609.469-1.218.935-1.826 1.41-1.391 1.077-2.797 2.13-4.167 3.245-1.452 1.175-2.983 2.243-4.498 3.348-2.451 1.772-4.886 3.574-7.345 5.34-2.234 1.603-4.516 3.147-6.738 4.77-2.222 1.622-4.316 3.25-6.471 4.87a28.41 28.41 0 0 0-.773.609c.109.158.23.307.362.447 1.464 1.245 2.806 2.62 4.167 3.957a12.84 12.84 0 0 1 2.699 3.723c.161.293.339.575.533.846 1.09-.956 2.076-1.826 3.071-2.697.831-.727 1.598-1.558 2.52-2.13 1.973-1.24 3.717-2.74 5.503-4.226 3.789-3.12 7.305-6.55 11.219-9.537 2.146-1.64 4.297-3.278 6.434-4.934.651-.505 1.245-1.084 1.881-1.61 1.4-1.163 2.754-2.39 4.231-3.446 2.419-1.732 4.732-3.623 7.347-5.075a4.138 4.138 0 0 0 1.491-1.382c-.48.03-.947.165-1.369.396-1.166.493-2.329.999-3.513 1.455-.377.146-.812.466-1.217.018-.265-.304-.052-.758.542-1.217.873-.673 1.759-1.33 2.623-2.015.187-.214.348-.449.478-.7a5.713 5.713 0 0 0-2.228.566 9.1 9.1 0 0 1-1.686.666.99.99 0 0 1-1.175-.383c-.216-.335-.143-.713.28-1.178.737-.816 1.495-1.614 2.234-2.435.12-.157.222-.326.304-.506-.377-.246-.608-.033-.83.085-.64.33-1.254.704-1.9 1.011-.913.438-1.4.11-1.457-.953a3.551 3.551 0 0 0-.113-.392ZM65.062 153.733c.176.064.36.106.545.125 1.044-.067 2.088-.152 3.132-.234.98-.076 1.981-.305 2.937-.183.76.082 1.528.082 2.289 0 2.53-.213 5.04-.63 7.59-.609.275-.025.546-.07.813-.137 1.498-.207 2.864-.825 4.203-1.461 1.522-.715 2.953-1.689 3.714-3.187.608-1.218 1.522-2.131 2.383-3.12a3.05 3.05 0 0 1 .569-.609c.42-.276.718-.702.834-1.19.189-.688.332-1.394.578-2.058.98-2.636 2.046-5.242 2.97-7.896a26.258 26.258 0 0 1 1.37-3.349c.022-.036-.018-.106-.051-.271a5.532 5.532 0 0 0-.892 0c-.49.07-.968.223-1.455.305-1.905.304-3.807.654-5.719.937-2.943.433-5.868 1.017-8.86 1.075-1.762.033-3.524.134-5.284.228a4.7 4.7 0 0 0-.882.216c-.104.238-.183.384-.234.539-.585 1.726-1.1 3.476-1.763 5.175-1.19 3.044-2.864 5.835-4.696 8.523-1.367 2.009-2.782 3.988-3.783 6.216a9.33 9.33 0 0 0-.308.965Zm72.791-79.343c-1.497-.724-2.928-.98-4.416-.563-2.316.648-4.313 1.9-6.166 3.4-.216.172-.408.37-.573.59-.124.168-.304.433-.252.576.304.84-.457 1.15-.846 1.717.1.514.176 1.056.304 1.58.518 1.978 2.039 3.163 3.935 3.09a16.68 16.68 0 0 0 2.767-.387c2.855-.609 4.45-2.627 5.622-5.108.48-1.02.557-2.091.636-3.18a3.01 3.01 0 0 0-.393-.022c-1.004.082-1.181-.134-.861-1.066.064-.161.125-.298.243-.627Zm43.618 17.656a1.978 1.978 0 0 0-1.157-1.38c-.191-.084-.456-.182-.523-.34-.332-.8-.998-1.297-1.57-1.887a4.215 4.215 0 0 1-1.023-1.492 7.064 7.064 0 0 0-1.303-2.076 462.86 462.86 0 0 0-3.074-3.893c-.2-.264-.423-.51-.666-.734-.968-.862-1.248-.886-2.317-.186-.373.237-.72.511-1.037.82-.728.745-1.422 1.521-2.192 2.358.068.164.15.322.244.472.185.274.389.533.608.792.591.724 1.2 1.436 1.778 2.17.578.734 1.589 1.041 1.905 2.012 1.476 1.056 2.645 2.508 4.289 3.349 1.12.578 2.218 1.184 3.074 2.149.097.11.286.133.487.222.861-.719 1.814-1.385 2.48-2.35l-.003-.006Zm-120.74 32.93c.913-.466 1.784-.913 2.663-1.361 2.621-1.296 5.235-2.608 7.877-3.859 1.16-.551 1.193-.49 1.078-1.668a4.162 4.162 0 0 0-.186-.716c-.688-.14-1.184.143-1.698.305a9.798 9.798 0 0 1-1.093.374c-1.723.353-3.454.67-5.174 1.011-.438.056-.867.17-1.275.337-.913.451-1.884.609-2.852.825-.304.07-.588.168-.931.268.492 1.571.566 3.154 1.594 4.49l-.003-.006Zm25.512-14.383-.247-.237c-.248.07-.49.156-.727.258-2.012 1.014-4.024 2.016-6.017 3.044-1.413.737-2.785 1.544-4.191 2.293-.844.447-1.254 1.129-1.394 2.13.669.153 1.36.192 2.042.113 2.499-.304 4.991-.67 7.539-1.02.027-2.59 1.814-4.45 2.998-6.575l-.003-.006Zm17.726-12.968c1.695.195 2.992.35 4.291.494a1.353 1.353 0 0 0 1.154-.54c.545-.608 1.044-1.272 1.585-1.89.649-.74.786-1.522.278-2.483l-2.405-.354c-1.202 1.906-3.031 3.069-4.9 4.78l-.003-.007Zm34.599 7.766a15.893 15.893 0 0 0 1.273-6.536c-.527-.216-.746-.913-1.522-.983-.192.865-.353 1.72-.581 2.557-.229.837-.521 1.656-.777 2.457l1.607 2.505Zm12.96-39.223c.353 1.038.679 1.909.947 2.798.304.992.538 2 .815 2.998.069.179.153.351.253.515.685-.542.913-1.218 1.169-1.882.727-1.829-.168-3.923-3.181-4.423l-.003-.006Zm-2.435.21c-.572.363-1.01.53-1.293.84a10.808 10.808 0 0 0-2.606 4.53c-.097.36.101.609.609.66.329-.514.664-1.077 1.035-1.616.382-.604.814-1.177 1.29-1.71a12.962 12.962 0 0 1 1.607-1.2c-.191-.435-.377-.877-.639-1.498l-.003-.006Zm-.383 4.378c.468.28.8 0 1.132-.153.709-.322.737-.724.11-1.521a4.205 4.205 0 0 0-1.239 1.68l-.003-.006Zm69.458-24.849-.201-.246c-.423.304-.876.557-.913 1.254l1.114-1.008Zm.338-.803c.782-.092.782-.092.852-.786l-.852.786Zm-70.612 17.33c-.03-.034-.064-.095-.091-.092a1.441 1.441 0 0 0-.253.058c.031.033.064.094.094.091.086-.01.171-.027.253-.052l-.003-.006Z" fill="#000"/><path d="M190.955 54.437a3.183 3.183 0 0 1-.158-.838 2.29 2.29 0 0 1 .831-1.394c1.497-1.217 2.992-2.435 4.498-3.653 1.768-1.415 3.85-2.337 5.75-3.549a7.03 7.03 0 0 1 4.583-1.041c.22.02.437.061.649.122a.681.681 0 0 1 .383.406.653.653 0 0 1 .033.284.657.657 0 0 1-.088.272 1.751 1.751 0 0 1-.444.478c-.632.44-1.294.837-1.982 1.184-.855.386-1.716.727-2.434 1.367a2.88 2.88 0 0 1-.898.404 36.876 36.876 0 0 0-9.402 5.096c-.344.277-.727.481-1.321.861Zm64.991-49.29c-1.726 1.906-1.988 4.21-.636 6.673.499.913 1.217 1.692 1.856 2.524.157.154.321.3.493.438 1.574 1.622 1.747 2.371.713 4.42a1.821 1.821 0 0 0 .161 2.13c.372.48.69.998.949 1.547.268.603.434 1.246.494 1.902a18.22 18.22 0 0 1-.545 5.09 3.71 3.71 0 0 1-.423.825c-.478-.113-.387-.441-.384-.679.024-1.217.092-2.435.116-3.653.027-1.582-.305-3.065-1.285-4.359-.134-.176-.21-.39-.331-.572a2.972 2.972 0 0 1-.213-3.138c.563-1.12.283-2-.609-2.807-.473-.463-.922-.95-1.345-1.458a8.04 8.04 0 0 1-2.006-4.81c-.134-1.68.161-3.308 1.598-4.474.532-.414.952-.293 1.397.401ZM1.403 163.599c-.332.082-.511-.11-.636-.374-.673-1.437-.807-2.974-.758-4.521.03-.882.146-1.758.347-2.618a9.091 9.091 0 0 1 2.684-4.648 1.33 1.33 0 0 1 .427-.198c.04 0 .097.028.2.064.03.142.03.288 0 .429-.52 1.093-1.04 2.186-1.6 3.257-1.458 2.789-1.632 5.665-.67 8.636l.006-.027Zm49.051-53.569c-.159 1.102-.843 1.729-1.178 2.514-.335.786-.764 1.592-1.032 2.435-.24.789-.41 1.598-.505 2.417-.119.871-.143 1.754-.235 2.935-.213-.481-.38-.703-.404-.941-.18-1.872-.198-3.738.304-5.576a7.096 7.096 0 0 1 2.21-3.419c.167-.167.444-.204.84-.365Zm4.593 1.272c-.773 1.793-1.522 3.26-2.042 4.807-.5 1.491-.761 3.062-1.19 4.87-.305-1.875.106-3.421.374-4.968a16.01 16.01 0 0 1 .712-2.365 4.465 4.465 0 0 1 1.34-2.045 3.55 3.55 0 0 1 .806-.299Zm-43.315 37.153c0 .213 0 .283-.02.319-1.334 1.799-2.673 3.595-4.128 5.553.122-1.62 1.017-2.697 1.729-3.83.794-1.263 1.18-1.516 2.42-2.042ZM196.846 44.848c.061-.198.061-.484.195-.575a15.628 15.628 0 0 1 4.349-2.238c.088-.027.207.04.444.092-.242.21-.5.402-.773.572-1.409.721-2.827 1.421-4.243 2.13l.028.019Z" fill="#000"/><path d="M196.818 44.827c-.121 0-.243-.034 0 0-.216-.067-.094-.03.031.015l-.031-.015ZM1.389 163.626v.274c0-.097 0-.191.021-.304-.006.003-.021.03-.021.03Z" fill="#000"/><path d="m218.173 45.913-1.114 1.008c.036-.697.49-.959.913-1.254l.201.246Zm.337-.803.852-.786c-.07.7-.07.7-.852.786Zm-73.503 29.33.024-1.407c.341.496.134.95-.027 1.41l.003-.004Zm2.892-12a1.495 1.495 0 0 1-.25.057c-.03 0-.064-.058-.094-.091a1.45 1.45 0 0 1 .252-.058c.031-.003.064.058.092.091Z" fill="#fff"/><path d="M116.394 160.954a4.033 4.033 0 0 1-.526.77c-.378.304-.801.581-1.202.87-1.294.914-2.618 1.805-3.872 2.78-.709.547-1.522.608-2.313.678-.791.07-1.153-.633-.873-1.366.158-.475.495-.868.94-1.096.34-.181.69-.344 1.047-.487a343.55 343.55 0 0 1 5.871-2.131 3.56 3.56 0 0 1 .928-.018Zm-3.882-2.828c-.304.386-.398.651-.608.77-.704.423-1.437.8-2.161 1.193-1.449.789-2.901 1.571-4.344 2.371a1.873 1.873 0 0 1-1.235.351.98.98 0 0 1-.786-.53.992.992 0 0 1 .28-1.047c.132-.101.274-.188.423-.259.292-.156.598-.284.913-.384 2.25-.544 4.335-1.549 6.502-2.322a6.107 6.107 0 0 1 1.016-.143Zm2.055 8.538c-.137.542-.53.649-.862.77-1.077.396-2.164.758-3.247 1.117-.26.085-.529.142-.801.171a.695.695 0 0 1-.785-.454.753.753 0 0 1 .429-.797c.306-.117.622-.206.944-.265 1.235-.203 2.473-.397 3.713-.581.204-.008.408.005.609.039Zm-54.304 34.492c-.386-.158-.648-.182-.767-.328-.727-.88-1.448-1.766-2.106-2.697a1.421 1.421 0 0 1-.088-.938.591.591 0 0 1 1.017-.304c.303.31.54.678.697 1.083a8.642 8.642 0 0 0 1.193 2.481c.076.122.033.314.054.703Zm79.809-6.532c-1.318.822-3.217 1.254-4.361.983a1.17 1.17 0 0 1-.512-.359.439.439 0 0 1-.078-.183.423.423 0 0 1 .115-.368.417.417 0 0 1 .167-.107c.214-.035.43-.043.646-.024 1.192.166 2.403.135 3.585-.091.119-.025.262.085.438.149Zm-81.657-3.117c-.188-.551-.322-.749-.304-.938.058-.974.134-1.951.253-2.922.044-.27.174-.519.37-.709a.908.908 0 0 1 .695-.244c.304.067.344.39.243.67-.216.609-.477 1.217-.67 1.826-.19.609-.33 1.276-.587 2.317Zm6.698-2.046c-.567-.447-.576-1.01-.61-1.723.695.603.695.603.61 1.723Zm78.383-107.299c.198.17.41.324.634.46.547.28 1.068.553 1.156 1.26a3.31 3.31 0 0 1-.344 2.225 5.12 5.12 0 0 1-1.12 1.175.747.747 0 0 1-.628.112.74.74 0 0 1-.483-.417c-.164-.398-.386-.855-.329-1.25.156-1.075.436-2.132.694-3.194.031-.137.229-.222.42-.371Zm0 4.779c.974-1.172 1.16-2.091.527-3.264a5.215 5.215 0 0 0-.524 3.249l-.003.015Zm-7.665-17.47c-.184.18-.389.337-.609.469-.499.231-1.032.392-1.522.609-.755.331-1.586.578-2.228 1.065-1.217.913-2.651 1.309-3.957 1.973-.234.146-.493.25-.763.304a.955.955 0 0 1-.734-.18c-.134-.16-.085-.505-.064-.764a.723.723 0 0 1 .204-.441c.913-.855 1.665-1.89 3.01-2.21 1.866-.444 3.683-1.105 5.622-1.218.377-.036.761-.106 1.041.393Zm-6.41 10.027c.319-.965 1.217-1.217 1.783-1.848-.511-.304-.913-.064-1.32-.04-.408.025-.765.08-1.145.068a.467.467 0 0 1-.322-.305.45.45 0 0 1 .164-.399c.282-.167.591-.286.913-.352a27.36 27.36 0 0 1 5.594-.357.588.588 0 0 1 .304.07.753.753 0 0 1 .305.35.641.641 0 0 1-.119.451.939.939 0 0 1-.389.304 390.452 390.452 0 0 1-4.913 1.924c-.28.07-.567.115-.855.134Z" fill="#000"/></g><defs><clipPath id="a"><path fill="#fff" d="M0 0h260v233H0z"/></clipPath></defs></svg>