<svg width="253" height="218" fill="none" xmlns="http://www.w3.org/2000/svg"><g clip-path="url(#a)" fill="#000"><path d="M179.178 100.725c-.047-.27-.088-.54-.13-.81.14-.72.108-1.464-.093-2.17-.628-1.523.062-3.17-.357-4.71a6.202 6.202 0 0 0-.14-.409.518.518 0 0 0-.095-.53c-.559-1.099.126-2.368-.455-3.461a.442.442 0 0 0-.069-.49c-.585-.933.012-2.043-.45-2.99l-.125-.964c-.533-.71 0-1.657-.46-2.384a.342.342 0 0 0-.052-.452c-1.713.902-.597 2.318-.644 3.518l.125 1.006c.529.947-.016 2.036.415 2.995v.177c-.818.817-1.711.632-2.623.237h-.026c-.296-.258-.642-.473-1.021-.336-.907.348-1.857.213-2.784.296-2.148.187-4.325.196-6.429.585-2.957.549-5.954.684-8.915 1.12-3.701.54-7.455.6-11.135 1.285-2.485.461-4.975.833-7.488 1.155-4.547.585-9.126.985-13.653 1.683-4.179.649-8.377 1.078-12.556 1.6-3.914.488-7.844.907-11.708 1.743-.628.135-1.3.135-1.71.772.274.322.646.175.964.16 4.226-.181 8.462-.305 12.681-.605 4.397-.306 8.789-.793 13.182-1.184 1.933-.173 1.928-.156 1.447 1.894-.104.454-.121.926-.182 1.387-.135.947-.266 1.094-1.235 1.084-3.193-.033-6.396-.104-9.58-.13-3.293-.021-6.581 0-9.874 0a7.006 7.006 0 0 0-1.675.209c-1.291.326-2.606.274-3.919.383-1.592.135-2.945 0-3.833-1.586-.284-.518-1.184-.724-1.393-1.238-.26-.653-.161-1.477-.116-2.223.078-1.15-.341-2.223-.474-3.336-.149-1.337.147-1.768 1.448-1.82a35.032 35.032 0 0 0 5.6-.595c2.156-.456 3.843-1.747 4.646-3.735 1.026-2.555 1.44-5.234.078-7.902-.55-1.078-.902-2.266-1.308-3.414-.237-.71-.066-1.12.68-1.184 1.597-.118 2.815-1.025 4.092-1.792.902-.545.902-1.705.097-2.367a4.56 4.56 0 0 0-.694-.474c-2.225-1.302-3.511-3.347-4.423-5.653-1.074-2.71-1.881-5.483-2.073-8.435-.064-1.002.113-1.518.926-2.067 2.194-1.489 4.096-3.281 5.477-5.601 1.209-2.038 1.483-4.202 1.258-6.508-.293-3.12-4.302-5.54-6.941-4.1-.981.54-2.023.947-2.95 1.612-.395.284-.727.907-1.464.523a10.954 10.954 0 0 0-4.127-7.393c-1.383-1.125-2.795-2.228-4.385-3.078-1.713-.902-3.584-1.311-5.449-.963a13.59 13.59 0 0 0-5.212 2.073c-2.606 1.797-4.47 4.025-3.904 7.498.031.166-.09.35-.151.563-.59.337-1.265.26-1.896.218-2.587-.182-5.024.514-7.415 1.321-2.639.897-4.771 2.637-6.633 4.654-1.51 1.636-1.938 3.606-1.088 5.755.17.436.237.924.474 1.317.474.776 1.002 1.503 1.469 2.182-.187.524-.557.633-.898.782-2.203.99-3.89 2.623-5.34 4.498a10.952 10.952 0 0 0-1.976 3.71c-1.037 3.666.948 8.221 5.632 8.674.554.052 1.104.149 1.731.236-.67 1.809-.4 3.39.638 4.894.397.636.722 1.315.969 2.024.492 1.238 0 2.393-.394 3.55-.3.917-1.085 1.222-1.895 1.513-1.914.685-3.525 1.71-4.122 3.82-.948 2.284.332 3.849 1.964 4.987 1.199.831 1.836 1.629 1.962 3.116.175 2.092 1.56 3.077 3.66 3.134a7.905 7.905 0 0 0 4.797-1.42 28.417 28.417 0 0 0 8.908-10.026c2.032-3.788 2.132-7.554-1.043-10.954-.912-.973-1.613-2.11-1.582-3.518.012-.474.109-1.016.632-1.16.58-.161.799.353.981.776.865 1.98 1.763 3.94 2.43 6.011 1.065 3.27 3.839 4.145 6.7 2.29 2.204-1.42 3.168-3.424 2.682-6.026-.689-3.704-1.386-7.419-2.947-10.875-.855-1.894-.739-2.886 1.659-3.17 4.122-.5 8.071-1.8 12.001-3.078 1.242-.41 2.028-.473 2.133 1.09.296 4.497 1.954 8.387 5.169 11.6.947.946.767 1.657-.514 2.014-1.422.4-2.244 1.146-2.312 2.758-.135 3.248-1.794 4.522-5.02 4.025-.844-.123-1.616-.519-2.453-.673-1.44-.265-2.793.036-3.183 1.57-.346 1.364.876 1.97 1.94 2.38 2.177.842 4.423.728 6.678.305.881-.162 2.002-1.151 2.592-.237.649.99-.237 2.145-.843 3.092a4.54 4.54 0 0 1-2.926 2.062c-1.472.338-2.905.81-4.376 1.136-3.577.781-4.454 2-4.127 5.72.237 2.663.03 3.13-2.67 2.819-4.435-.514-8.827-.078-13.229.114-4.458.191-9.13.75-12.267 4.128-1.862 2.005-3.667 3.265-6.207 3.753-.907.58-1.95.61-2.966.745a4.764 4.764 0 0 0-.732.206c-.372.157-.786.237-1.17.344l-.074.014a2.598 2.598 0 0 0-.606.237h-.014a1.263 1.263 0 0 0-.237.16.412.412 0 0 0-.048.109.759.759 0 0 0 .031.606 2.278 2.278 0 0 0 2.184 0c.237-.047.474-.092.711-.135.711-.404 1.54.001 2.26-.336.38-.068.756-.13 1.13-.196.886-.504 1.915.019 2.81-.379 1.478.072 2.96-.001 4.423-.218 2.675-.445 5.387-.674 8.093-.911 2.895-.256 5.797-.422 8.697-.623 4.027-.284 8.055-.589 12.082-.833 1.213-.074 2.53-.237 3.622.123 1.334.457 2.37-.315 3.554-.336 4.027-.083 8.055-.379 12.082-.575 1.5-.074 3.002-.119 4.501-.161 1.597-.041 3.194-.083 4.791-.098 1.499-.021 3.065-.286 4.48.062 1.613.393 3.122-.144 4.688.052 2.145.265 4.304.414 6.465.445 5.797.1 11.564.649 17.335 1.099 7.026.544 14.067.854 21.103 1.233 1.313.073 2.635 0 3.945-.031a2.1 2.1 0 0 0 1.658-.918c.294-1.666.334-3.367.121-5.045Zm-51.996 1.139a1.996 1.996 0 0 1-.026-.54c.258-.994.509-1.993.815-2.969.424-1.352.625-1.465 1.959-1.59 3.65-.337 7.294-.694 10.935-1.052.865-.087 1.223.17 1.265 1.02.053 1.12-.151 2.245.135 3.365.181.71.237 1.465.406 2.398-2.438.274-13.007-.171-15.489-.632Zm37.587 2.13c-6.529.339-13.03-.35-19.746-1.129v-6.674a.745.745 0 0 1 .654-.767c.274-.058.551-.1.829-.128 4.366-.492 8.702-1.276 13.103-1.437.529-.014.877.1 1.126.592 1.184 2.337 2.407 4.652 3.568 7.001.372.734.746 1.52.476 2.535l-.01.007Zm3.992.218a1.188 1.188 0 0 1-1.085-.724c-1.457-3.147-2.949-6.27-4.402-9.415a.56.56 0 0 1 .493-.808c2.132-.248 4.264-.523 6.42-.67 1.877-.135 3.734-.253 5.435-1.183.711-.147 1.213.05 1.362.842.031.161.197.296.301.44.017.365.031.727.047 1.09-.113 1.39-.17 2.772.474 4.076a3.946 3.946 0 0 0 .078 2.131c-.196 1.461.394 2.954-.151 4.406-2.991.153-5.99.088-8.972-.192v.007Z"/><path d="M222.82 51.251c-.331-2.585-.651-5.175-1.331-7.698-.036-.13-.237-.237-.384-.318-.187-.092-.317.022-.362.266a3.37 3.37 0 0 0-.109.544c0 3.74.616 7.42 1.099 11.112.044.278.139.545.279.789a.613.613 0 0 0 .41.284c.332.026.498-.253.545-.516.065-.461.106-.925.123-1.39-.078-1.025-.125-2.057-.27-3.073Zm0 0c-.331-2.585-.651-5.175-1.331-7.698-.036-.13-.237-.237-.384-.318-.187-.092-.317.022-.362.266a3.37 3.37 0 0 0-.109.544c0 3.74.616 7.42 1.099 11.112.044.278.139.545.279.789a.613.613 0 0 0 .41.284c.332.026.498-.253.545-.516.065-.461.106-.925.123-1.39-.078-1.025-.125-2.057-.27-3.073Zm0 0c-.331-2.585-.651-5.175-1.331-7.698-.036-.13-.237-.237-.384-.318-.187-.092-.317.022-.362.266a3.37 3.37 0 0 0-.109.544c0 3.74.616 7.42 1.099 11.112.044.278.139.545.279.789a.613.613 0 0 0 .41.284c.332.026.498-.253.545-.516.065-.461.106-.925.123-1.39-.078-1.025-.125-2.057-.27-3.073Zm0 0c-.331-2.585-.651-5.175-1.331-7.698-.036-.13-.237-.237-.384-.318-.187-.092-.317.022-.362.266a3.37 3.37 0 0 0-.109.544c0 3.74.616 7.42 1.099 11.112.044.278.139.545.279.789a.613.613 0 0 0 .41.284c.332.026.498-.253.545-.516.065-.461.106-.925.123-1.39-.078-1.025-.125-2.057-.27-3.073Zm0 0c-.331-2.585-.651-5.175-1.331-7.698-.036-.13-.237-.237-.384-.318-.187-.092-.317.022-.362.266a3.37 3.37 0 0 0-.109.544c0 3.74.616 7.42 1.099 11.112.044.278.139.545.279.789a.613.613 0 0 0 .41.284c.332.026.498-.253.545-.516.065-.461.106-.925.123-1.39-.078-1.025-.125-2.057-.27-3.073Zm0 0c-.331-2.585-.651-5.175-1.331-7.698-.036-.13-.237-.237-.384-.318-.187-.092-.317.022-.362.266a3.37 3.37 0 0 0-.109.544c0 3.74.616 7.42 1.099 11.112.044.278.139.545.279.789a.613.613 0 0 0 .41.284c.332.026.498-.253.545-.516.065-.461.106-.925.123-1.39-.078-1.025-.125-2.057-.27-3.073Zm9.659 27.985a74.944 74.944 0 0 0-.711-3.596c-.71-3.217-1.22-6.472-1.265-9.76-.069-5.27-.789-10.483-1.369-15.701-.275-2.405-.379-4.839-.737-7.249-.249-1.66-.617-3.3-1.099-4.908a1.813 1.813 0 0 0-1.571-1.42c-2.452-.379-4.875-.026-7.289.322-1.007.15-1.604 1.004-1.659 2.024-.033.653.045 1.316.076 1.974.051.467.079.935.083 1.404-.019.526.27 1.115-.367 1.657-.908 0-1.933-.03-2.95 0-1.016.031-2.106 0-3.091.254-2.521.684-5.004 1.524-7.508 2.296a5.437 5.437 0 0 0-3.376 2.772c-.519.985-1.327 1.814-2.016 2.704a2.222 2.222 0 0 1-1.945.966c-.711-.048-1.467.267-2.215-.2-.045-.536-.197-1.107-.119-1.656.458-3.061-.248-5.964-1.104-8.859a4.329 4.329 0 0 0-2.219-2.763c-1.602-.85-1.581-.895-1.344-2.497.069-.474.192-.921.261-1.383.559-3.7.014-7.339-.929-10.87a35.163 35.163 0 0 0-6.159-12.276C175.683 4.373 167.536.21 157.415-.02c-6.517-.14-12.428 1.787-17.474 6.032-1.073.906-2.002 1.984-3.018 2.959-4.904 4.7-6.885 10.736-7.368 17.237a28.697 28.697 0 0 0 3.2 15.535c.171.331.358.658.512.999.28.627.038 1.015-.711 1.145a9.222 9.222 0 0 1-.838.114c-5.802.54-11.564 1.4-17.313 2.341a8.155 8.155 0 0 0-2.694.935c2.452.474 4.759-.035 7.062-.175 4.975-.3 9.95-.653 14.909-1.115.995-.092 1.622.09 2.177.836a35.087 35.087 0 0 0 6.515 6.61c.237.191.711.338.353.83-4.58.346-9.164.813-13.762 1.016-4.061.17-7.991 1.134-11.995 1.657-.947.126-2.16-.128-2.727 1.08.815 1.283 2.033.632 3.08.554 5.724-.431 11.372-1.503 17.122-1.809a79.06 79.06 0 0 0 5.344-.45c1.772-.213 3.573-.996 5.259-.767 1.789.237 3.452 1.378 5.175 2.131.087.035.187.04.27.083.445.208.838.445.58 1.041-.237.56-.062 1.108.031 1.658a26.85 26.85 0 0 1-.036 8.97c-.182 1.01-.305 2.026-.675 3.016-.336.906-.869 1.42-1.803 1.539-1.49.18-2.982.404-4.48.487-5.164.294-10.284 1.03-15.415 1.575a67.536 67.536 0 0 1-9.024.362c-1.305-.036-2.12-.746-2.461-1.937-.204-.71-.223-1.482-.292-2.223-.237-2.623-.41-5.244-.685-7.855-.17-1.657-.44-3.314-1.317-4.903-.689 1.778-.772 1.845-.606 3.047.275 1.97.237 3.944.331 5.919.091 1.683.237 3.37.453 5.052.424 3.153 2.037 4.564 5.283 4.718.659.052 1.321.059 1.981.021 3.271-.289 6.543-.59 9.815-.92 3.366-.344 6.73-.692 10.089-1.09 2.242-.27 4.466-.648 6.7-.947 1.775-.236 2.857-1.217 3.423-2.916a24.012 24.012 0 0 0 1.185-8.876c-.038-.752-.173-1.508-.116-2.249.069-.814-.607-1.555-.306-2.384 1.199-.191 2.168.254 3.175.41 3.852.618 7.673.61 11.433-.601.332-.206.746-.175 1.078-.384l.566-.166c-.043-.755-.474-.932-.985-1.015l-.266-.03a5.803 5.803 0 0 1-.353-.053 5.12 5.12 0 0 0-1.291.166c-.947.312-1.933.296-2.914.274-8.145.11-15.43-2.166-21.321-7.968-6.778-6.67-10.391-14.555-9.458-24.316.886-9.284 5.212-16.335 13.575-20.328 15.217-7.259 31.182 2.021 36.735 14.161 3.205 6.996 3.316 14.105.959 21.333 0 .03-.019.066-.031.097-.011.03 0 .104-.014.151-.322 3.551-.618 4.378-2.698 4.57-.145.016-.299.026-.474.037-.275 0-.573.02-.907.026-1.149.133-1.896 2.131-3.554.398-.86-.907-2.033.3-2.606 1.333-.995 1.766-1.184 3.719-1.161 5.703.045.222.064.448.057.675 0 .672-.17 1.36-.156 2.03a2.253 2.253 0 0 0 .784 1.767c-.083 2.202.834 4.193 1.421 6.219-2.736 1.832-3.001 2.77-1.57 5.585.156-.415.379-.75.4-1.104.088-1.394 1.021-1.856 2.182-2.13 3.942-.98 7.996-.86 11.987-1.307.095.003.189.014.282.03 1.907.079 3.163 1.106 3.848 2.804a36.95 36.95 0 0 1 1.348 3.965c1.471 5.31 2.513 10.715 3.504 16.134.644 3.492.933 7.057 2.158 10.416 1.976.388 1.296-.845 1.094-1.787-.473-3.913-.959-7.813-1.452-11.73-.474-3.722-.948-7.446-2.153-11.028-.114-.34-.301-.693.125-.999 1.441-.052 2.473.677 3.255 1.84.474.71 1.024 1.377 1.344 2.144.71 1.731 2.08 2.276 3.79 2.415 1.872.15 3.738.15 5.61.18a50.023 50.023 0 0 0 8.666-.625 8.51 8.51 0 0 1 1.41-.012.807.807 0 0 1 .819.611c.398 1.15.825 2.296 1.209 3.452.191.58.533 1.001 1.13 1.134 2.561.575 5.034.435 7.311-1.016 1.089-.72 1.67-1.735 1.44-3.087ZM184.83 62.65c-2.511.306-5.063.088-7.567.57-.694.131-1.061-.222-1.125-.918-.176-1.958-.403-3.906-1.118-5.767a.784.784 0 0 1-.079-.267c-.196-2.604.022-5.173.948-7.654.159 2.005.32 3.954 1.185 5.777.139.29.357.497.599.435s.54-.331.557-.523c.075-1.338.594-2.56.947-3.819.187-.693.363-1.465 1.275-2.036v2.425c-.043.46-.059.922-.048 1.385.1.828 1.185 1.242 1.671.563.566-.781 1.016-1.184 2.032-.833.441.149.784-.457.981-.862.353-.725.429-1.596 1.244-2.164.322 2.258-.576 4.337-.462 6.5.114 2.165.644 4.236 1.213 6.374-.595.7-1.481.71-2.253.81v.004Zm27.941 13.617c-2.509.206-5.039.214-7.555.389-1.322.092-2.156-.332-2.514-1.657-.118-.446-.405-.846-.571-1.281-.917-2.42-2.736-3.45-5.247-3.424-.285 0-.564.067-.846.062-.524 0-.948-.265-1.031-.772-.196-1.238-.985-2.218-1.404-3.364-.768-2.093-2.343-3.335-4.471-3.915-.353-.095-.711-.17-1.26-.301.192-1.238.592-2.398.474-3.606a31.324 31.324 0 0 1-.166-3.368c.021-1.312.196-2.605.258-3.928.052-1.12.223-2.249-.237-3.343-.237-.532-.509-1.046-1.049-1.273-.455-.192-.913.026-1.301.336-.254.201-.564.201-.711-.047a.915.915 0 0 1-.094-.378.912.912 0 0 1 .068-.382 131.12 131.12 0 0 1 1.936-3.743c.211-.414.419-.895.983-.874.67.024 1.355.197 1.68.838.289.59.503 1.214.639 1.856.455 2.032.628 4.098.254 6.156a10.363 10.363 0 0 0 .166 4.164c.597 2.75 1.369 5.421 2.674 7.923.697-.265.623-.87.602-1.42-.062-1.404-.175-2.803-.237-4.207s.057-1.53 1.54-1.73a8.94 8.94 0 0 1 1.125-.083c1.479-.038 2.447-.82 3.101-2.084a396.73 396.73 0 0 0 1.659-3.26 1.586 1.586 0 0 1 1.281-.946c2.879-.396 5.686-1.172 8.633-1.151a9.617 9.617 0 0 0 4.101-.86 6.603 6.603 0 0 1 1.348-.4c.628-.149 1.073.162 1.204.824.088.365.131.74.13 1.115-.237 4.15.403 8.239.803 12.342.336 3.456.623 6.917 1.282 10.336.237 1.28.237 2.604.357 4.074-2.435.828-5.017 1.165-7.604 1.378v.004Zm14.385 5.393c-2.334.68-2.194.888-3.438-1.486-.846-1.613-.924-3.43-1.132-5.192-.491-4.28-.908-8.565-1.379-12.838-.602-5.4-1.253-10.788-1.82-16.193a6.602 6.602 0 0 0-.445-1.83c-.597-1.513-.497-3.113-.204-4.688a1.112 1.112 0 0 1 .976-.897c1.209-.175 2.438-.213 3.625-.473 1.571-.337 1.912.149 2.054 1.777.057.654 0 1.31 0 2.633.498 3.977.668 8.636 1.353 13.274.602 4.046 1.504 8.087 1.39 12.228.008.656.087 1.31.237 1.948.474 2.384.998 4.763 1.495 7.14.019.087.026.187.041.274.398 2.676-.105 3.556-2.753 4.319v.004Zm-5.658-38.114c-.035-.13-.237-.237-.383-.318-.188-.092-.318.022-.363.265-.051.179-.087.36-.109.545 0 3.74.616 7.42 1.099 11.112.044.278.139.545.28.789a.598.598 0 0 0 .41.284c.331.026.497-.254.545-.516.064-.461.106-.925.123-1.39-.088-1.025-.135-2.057-.27-3.078-.332-2.573-.652-5.163-1.332-7.686v-.008Zm1.332 7.698c-.332-2.585-.652-5.175-1.332-7.699-.035-.13-.237-.236-.383-.317-.188-.092-.318.022-.363.265-.051.179-.087.36-.109.545 0 3.74.616 7.42 1.099 11.112.044.278.139.545.28.789a.598.598 0 0 0 .41.284c.331.026.497-.254.545-.516.064-.461.106-.925.123-1.39-.088-1.018-.135-2.05-.28-3.066l.01-.007Zm0 0c-.332-2.585-.652-5.175-1.332-7.699-.035-.13-.237-.236-.383-.317-.188-.092-.318.022-.363.265-.051.179-.087.36-.109.545 0 3.74.616 7.42 1.099 11.112.044.278.139.545.28.789a.598.598 0 0 0 .41.284c.331.026.497-.254.545-.516.064-.461.106-.925.123-1.39-.088-1.018-.135-2.05-.28-3.066l.01-.007Zm0 0c-.332-2.585-.652-5.175-1.332-7.699-.035-.13-.237-.236-.383-.317-.188-.092-.318.022-.363.265-.051.179-.087.36-.109.545 0 3.74.616 7.42 1.099 11.112.044.278.139.545.28.789a.598.598 0 0 0 .41.284c.331.026.497-.254.545-.516.064-.461.106-.925.123-1.39-.088-1.018-.135-2.05-.28-3.066l.01-.007Zm0 0c-.332-2.585-.652-5.175-1.332-7.699-.035-.13-.237-.236-.383-.317-.188-.092-.318.022-.363.265-.051.179-.087.36-.109.545 0 3.74.616 7.42 1.099 11.112.044.278.139.545.28.789a.598.598 0 0 0 .41.284c.331.026.497-.254.545-.516.064-.461.106-.925.123-1.39-.088-1.018-.135-2.05-.28-3.066l.01-.007Zm0 0c-.332-2.585-.652-5.175-1.332-7.699-.035-.13-.237-.236-.383-.317-.188-.092-.318.022-.363.265-.051.179-.087.36-.109.545 0 3.74.616 7.42 1.099 11.112.044.278.139.545.28.789a.598.598 0 0 0 .41.284c.331.026.497-.254.545-.516.064-.461.106-.925.123-1.39-.088-1.018-.135-2.05-.28-3.066l.01-.007Zm0 0c-.332-2.585-.652-5.175-1.332-7.699-.035-.13-.237-.236-.383-.317-.188-.092-.318.022-.363.265-.051.179-.087.36-.109.545 0 3.74.616 7.42 1.099 11.112.044.278.139.545.28.789a.598.598 0 0 0 .41.284c.331.026.497-.254.545-.516.064-.461.106-.925.123-1.39-.088-1.018-.135-2.05-.28-3.066l.01-.007Zm-101.983 92.974c-.069 1.215-.128 2.432-.206 3.646-.114 1.78-.339 3.551-.344 5.341 0 3.191-.679 6.342-.521 9.54.166 3.36.195 6.71.931 10.043.474 2.104.948 4.202 1.436 6.304.981 4.325 2.75 8.355 4.321 12.469 1.872 4.903 3.675 9.846 4.144 15.151.03.372.116.741.123 1.113.021 1.094-.332 2.131-1.168 2.777-2.369 1.813-4.608 3.847-7.541 4.775-.448.142-.947.237-1.3.523-1.114.871-2.407 1.016-3.727 1.018a5.159 5.159 0 0 0-2.203.377c-1.493.677-3.08.71-4.7.71a71.104 71.104 0 0 1-8.387-.635c-3.132-.378-6.323-.265-9.476-.376-1.22-.043-2.455-.012-3.653-.194-1.396-.216-2.75-.658-4.146 0a1.012 1.012 0 0 1-.82-.017c-1.203-.729-2.497-.424-3.79-.516-6.826-.492-13.649-1.105-20.2-3.331-.615-.208-1.31-.189-1.928-.398-1.239-.421-2.537-.62-3.728-1.228-3.057-1.565-6.42-2.107-9.763-2.59a18.799 18.799 0 0 1-4.817-1.477c-1.55-.673-2.272-1.894-2.132-3.568.08-.653.213-1.298.398-1.929.73-2.91.929-5.89 1.322-8.85.393-2.959.474-5.961.89-8.929a81.935 81.935 0 0 0 .593-17.14c-.5-7.221-1.727-14.356-2.558-21.543a1.884 1.884 0 0 0-.218-.509.933.933 0 0 0-.268-.086c-4.805.187-9.533-.549-14.253-1.259a54.903 54.903 0 0 1-6.849-1.522c-2.859-.819-5.19-2.642-7.355-4.576a39.087 39.087 0 0 1-6.274-7.197A12.54 12.54 0 0 1 .396 123.3c-.047-1.685-.248-3.369-.371-5.052a3.099 3.099 0 0 1 0-.838c.91-4.498 1.355-9.107 2.977-13.461.455-1.221.76-2.49 1.256-3.717.822-2.035 2.026-3.761 3.38-5.445 2.915-3.636 6.42-6.47 10.446-8.856 4.688-2.78 9.561-5.19 14.357-7.75 1.708-.912 3.589-1.577 5.448-2.226 2.386-.829 4.71-1.868 7.131-2.63 1.422-.45 2.883-.822 4.338-1.184a.784.784 0 0 1 .69.322.64.64 0 0 1-.4.895c-1.918.767-3.834 1.543-5.753 2.308-4.01 1.593-8.107 2.995-11.902 5.083-4.606 2.533-9.27 4.971-13.74 7.718a29.866 29.866 0 0 0-7.54 6.718c-1.42 1.75-2.809 3.49-3.92 5.445-1.275 2.247-1.78 4.763-2.284 7.214-.62 3.02-1.203 6.07-1.421 9.178-.216 3.16-.63 6.302.538 9.368.265.696.49 1.434.893 2.05 1.34 2.043 2.81 3.994 4.664 5.618a39.108 39.108 0 0 0 5.165 3.858c2.49 1.539 5.28 1.847 8.036 2.287 2.963.474 5.97.677 8.938 1.127 1.381.211 2.715.71 4.068 1.103 1.061.301 2.066.876 3.227.128.433-.279.874.277.976.746.258 1.184.426 2.403.658 3.601.948 4.881 1.872 9.758 2.552 14.677.474 3.44.658 6.897.886 10.348a41.728 41.728 0 0 1-.121 6.683c-.237 2.51-.197 5.043-.561 7.555-.405 2.774-.754 5.556-.948 8.361-.197 2.716-.836 5.374-1.658 7.981-.602 1.92-.306 2.519 1.599 3.058.57.164.739-.09.71-.745-.038-.836.297-.999 1.007-.663a69.215 69.215 0 0 0 6.51 2.672c3.033 1.082 6.144 1.693 9.302 2.15 1.023.149 2.042.251 3.039.573.782.251 1.58.67 2.454.237a.713.713 0 0 1 .55-.038c2.196 1.148 4.627.71 6.927.866 2.395.168 4.795.649 7.252.258 1.236-.199 2.606.1 3.857.391 1.464.355 2.969.514 4.475.473 2.81-.101 5.603.258 8.412.275 1.841.012 3.725.289 5.596.417a79.476 79.476 0 0 0 15.961-.625 10.451 10.451 0 0 0 2.423-.711 165.743 165.743 0 0 0 5.181-2.196c1.808-.791 2.253-1.819 1.642-3.847-1.083-3.592-2.161-7.183-3.317-10.751-.315-.973-.853-1.894-1.359-2.781-.972-1.721-1.476-3.606-2.109-5.445a66.223 66.223 0 0 1-2.393-8.658c-.744-3.788-1.568-7.535-.997-11.439.128-.888-.313-1.847-.254-2.756.474-7.121 1.057-14.228 2.545-21.228a.921.921 0 0 1 .142-.237c2.506-.265 1.31 1.404 1.291 2.455Z"/><path d="M120.846 144.218c-.028-.438-.062-.876-.085-1.314-.038-.76-.514-1.056-1.185-1.143a32.484 32.484 0 0 1 1.405-5.708c.249-.677.571-.776 1.379-.334.253.14.474.296.727.204 1.467-.516 2.98-.329 4.475-.308 12.04.164 24.058-.322 36.058-1.21 5.337-.395 10.675-.909 15.905-2.13 2.012-.474 4.016-.99 5.994-1.584 4.414-1.326 8.185-3.861 11.431-6.979 3.08-2.954 4.577-6.629 4.016-11.202-.607-4.939-1.626-9.813-2.116-14.763 1.173-.102 1.04-1.002 1.094-1.788.896 2.107.979 4.382 1.372 6.593.526 2.964 1.014 5.945.931 8.956-.087 3.184-.348 6.366-.613 9.541a4.806 4.806 0 0 1-1.59 3.205c-1.805 1.641-3.646 3.236-5.605 4.697-3.938 2.938-8.56 4.171-13.182 5.412-.44.118-.898.18-1.338.265-.003.218.024.435.078.646 1.09 2.495 2.08 5.043 3.331 7.455 1.082 2.093 1.798 4.314 2.62 6.494.948 2.542 1.81 5.137 2.511 7.762 1.696 6.359 4.34 12.382 6.527 18.563a76.33 76.33 0 0 0 4.345 10.09c.782 1.482 1.478 3.016 1.646 4.746-.689.192-.845-.277-1.085-.617-1.639-2.323-2.67-4.972-3.845-7.517-1.45-3.156-2.904-6.307-4.285-9.493-.856-1.972-1.595-3.996-2.358-6.008-2.155-5.696-4.221-11.425-6.467-17.086-1.796-4.533-3.542-9.072-4.757-13.799-.173-.675-.694-.824-1.308-.777-1.874.145-3.748.317-5.624.441-4.127.274-8.254.525-12.383.79-2.718.175-5.437.348-8.155.552-.947.069-1.113.336-.947 1.25.287 1.565.639 3.12.862 4.694.474 3.35.569 6.719.602 10.107.038 4.024.388 8.049.682 12.073.493 6.75 1.062 13.494 1.566 20.241.218 2.672.17 5.359-.144 8.021-.626-.774-.792-1.674-.901-2.583-.343-2.888-.644-5.783-1.009-8.669-.32-2.514-.734-5.017-1.056-7.528-.664-5.209-1.507-10.417-1.853-15.665-.192-2.893-.618-5.765-.711-8.674-.085-3.078-.606-6.156-.947-9.233-.05-.474-.143-.933-.159-1.399-.081-2.32-.081-2.387-2.466-2.211-6.871.506-13.729.042-20.592-.055-.453 0-.874-.381-1.505 0-.274 1.804-.58 3.741-.86 5.682-.045.471-.026.959-.426 1.297Zm-69.739-57.33c-2.15 1.12-4.352 2.161-6.446 3.38-3.473 2.024-7.022 3.947-10.076 6.612-1.764 1.532-3.615 2.936-4.844 5.022a13.285 13.285 0 0 0-1.931 6.358c-.064 1.617.462 2.576 2.663 2.912.187.008.375.004.561-.014l4.772.047c.727-.054 1.658-.71 1.923.635-.879.315-1.755.634-2.634.947a12.787 12.787 0 0 0-5.878 4.152 5.76 5.76 0 0 1-.71.862c-.363.31-.835.516-1.273.199-.438-.318-.393-.845-.088-1.236.695-.885 1.457-1.712 2.159-2.59.277-.346.812-.507.791-1.089-.275-.017-.552-.019-.824-.05-2.912-.345-4.277-1.955-4.329-4.829-.064-3.499 1.5-6.267 3.604-8.875 2.447-3.038 5.55-5.277 8.751-7.4 3.433-2.28 7.079-4.2 10.739-6.08a9.092 9.092 0 0 1 5.172-1.016.606.606 0 0 1 .428.237c.166.324-.075.52-.338.632-.773.327-1.611.511-2.192 1.184Zm72.054-70.245c0-.391.036-.862 0-1.324-.13-1.468.367-2.741 1.078-3.994a20.808 20.808 0 0 1 3.904-5.07 6.4 6.4 0 0 1 2.886-1.534c.741-.2 1.36.366 1.184 1.086-.189.82-.45 1.62-.779 2.394-1.218 2.73-2.542 5.407-4.028 8.001-1.25 2.195-1.788 4.498-1.307 7 .044.183.056.37.035.557-.066.362-.08.776-.459.975-.379.2-.695-.059-.976-.298-.915-.779-1.294-1.849-1.436-2.969-.197-1.572-.573-3.15-.102-4.824Zm6.225 73.72c-.87-.123-1.72.061-2.154-.736-.258-.474.495-1.094 1.725-1.494a86.49 86.49 0 0 1 12.011-2.95c2.606-.447 5.236.066 7.837.402a.71.71 0 0 1 .642.763c-.066.473-.474.547-.829.615-3.864.741-7.728 1.485-11.594 2.2-1.938.357-3.883.672-5.826.987-.647.116-1.303.166-1.812.213ZM147.35 78.37c.026 0 .687.026 1.338.101.237.029.656.029.536.438-.064.211-.341.393-.562.512-.26.104-.53.183-.805.236-4.132 1.27-8.292 2.368-12.599 2.936-2.324.303-4.608.902-6.918 1.319-1.758.317-3.527.572-5.297.821-.648.088-1.303.125-1.957.109-.334 0-.796 0-.777-.552a.612.612 0 0 1 .517-.556c.817-.22 1.63-.452 2.454-.644.917-.215 1.843-.376 2.76-.582a60895.17 60895.17 0 0 0 16.479-3.696 18.726 18.726 0 0 1 4.831-.442Zm105.648-9.934c-.237.893-.905 1.066-1.549 1.184-1.562.308-3.12.672-4.701.84a43.2 43.2 0 0 0-6.87 1.234c-.711.191-1.497.125-2.243.087-.747-.038-1.356-.615-1.569-1.404-.196-.724.128-1.394.851-1.915.9-.65 1.947-.681 2.971-.696 1.499-.026 3.004.097 4.501.116 1.689.022 3.378.022 5.067-.016 1.225-.017 2.421.045 3.542.57Zm-15.994-17.608c-1.016-.18-1.495-.206-1.933-.353-1.009-.339-1.242-1.802-.441-2.5a5.079 5.079 0 0 1 3.096-1.217c4.123-.187 8.176-1.139 12.32-1.063.556.012 1.113.097 1.67.15.237.02.36.153.327.376-.026.17-.057.428-.168.485a7.528 7.528 0 0 1-1.547.644c-3.265.817-6.527 1.657-9.816 2.367-.831.18-1.608.474-2.423.677a6.28 6.28 0 0 0-1.085.434Zm-67.685 32.826a20.814 20.814 0 0 1-.178 2.13c-.045.237-.32.564-.497.568a.905.905 0 0 1-.642-.459c-.626-1.262-1.251-2.576-1.325-3.972-.237-4.397-.883-8.76-.784-13.187 0-.187-.014-.374 0-.56.036-1.336.313-2.05.711-1.87.824.364.784 1.213.879 1.907.201 1.484.251 2.99.44 4.477.365 2.882.76 5.758 1.185 8.629.147.928.343 1.842.211 2.337Zm-7.209-3.696v3.684c0 .237-.118.379-.331.329-.159-.038-.389-.097-.443-.216a23.005 23.005 0 0 1-1.896-7.293c-.277-2.695-.474-5.398-.691-8.1a18.58 18.58 0 0 1-.046-1.96.753.753 0 0 1 .683-.762.95.95 0 0 1 .919.526c.737 1.252.867 2.694 1.023 4.065.353 3.15 1.081 6.278.782 9.727Zm81.932-21.171c1.689 0 3.004-.02 4.316 0a2.682 2.682 0 0 1 1.595.461.406.406 0 0 1 .199.331.399.399 0 0 1-.171.346c-.666.6-1.549.644-2.369.815-2.203.457-4.409.89-6.633 1.266-.834.14-1.659.185-2.424.633-.606.357-1.282.26-1.909.025-.526-.194-1.062-.447-1.085-1.131a1.647 1.647 0 0 1 .649-1.482 5.213 5.213 0 0 1 2.075-.798c2.037-.376 4.082-.443 5.757-.466Zm-210.1 79.65c-1.197.055-1.895-.85-1.611-1.863a4.535 4.535 0 0 1 1.274-2.152 29.287 29.287 0 0 1 4.975-3.646c.375-.215.898-.217 1.355-.22a.414.414 0 0 1 .437.36c.01.069 0 .139-.024.204-.17.428-.346.913-.668 1.216a29.49 29.49 0 0 0-4.265 5.209c-.36.539-.86 1.011-1.473.892Zm86.933-12.538c.076-.816.183-1.839.313-2.866.029-.37.108-.734.237-1.082.331-.763 1.421-1.231 2.108-.947.687.284 1.185 1.124.903 1.851-.765 2.045-.787 4.209-1.185 6.314a5.67 5.67 0 0 1-.184.814c-.131.379-.46.71-.808.644a1.225 1.225 0 0 1-.799-.684 15.639 15.639 0 0 1-.571-2.436c-.075-.45-.014-.923-.014-1.608Zm55.873-44.532c-.507.35-.499.878-.514 1.42-.019.71-.085 1.402-.13 2.102-.886-4.462-1.779-8.92-2.646-13.385a7.424 7.424 0 0 1 0-1.382c.521-.254.711.184.765.435.742 3.17 2.033 6.193 2.495 9.432.036.458.046.918.03 1.378Z"/><path d="M37.732 111.84c-.474-.71-1.293-.388-1.923-.635 3.19-.947 6.38-1.894 9.58-2.803.971-.277 1.928-.731 2.992-.523.555.869 1.512.313 2.222.628-.329.156-.642.395-.985.454-3.855.658-7.718 1.274-11.339 2.86-.18.04-.365.046-.547.019Zm135.561-54.713a2.345 2.345 0 0 0-1.587.249c-.725.374-1.473.745-2.322.74-.447-.596-1.184-.212-1.722-.523 0-.092-.031-.236 0-.27.156-.082.31-.165.462-.253a15.24 15.24 0 0 0 4.537-3.74c.218-.27.424-.554.623-.85a5.267 5.267 0 0 1 0 3.016c-.187.59.05 1.094.009 1.631ZM120.496 7.545a3.928 3.928 0 0 1 1.5-3.447.538.538 0 0 1 .877.26.551.551 0 0 1 .011.251c-.483 1.238-1.528 1.989-2.388 2.936Zm58.599 98.225c-.14-1.949-.408-3.899-.048-5.852.268 1.718.564 3.435.789 5.158.052.41-.357.604-.741.694Zm-.138-8.026a1.25 1.25 0 0 1-.514-.947c-.055-1.392-.237-2.786 0-4.176.651 1.662.549 3.395.514 5.123Zm-.595-5.646c-.883-1.058-.502-2.282-.455-3.461.704 1.082.623 2.266.455 3.461Zm-1.727-3.047c-.789 1.037-1.281 1.075-2.651.213.879-.144 1.794.195 2.651-.213ZM54.71 107.839c.844-.817 1.825-.632 2.81-.381-.89.471-1.85.423-2.81.381Zm123.126-19.697c-.85-.892-.592-1.95-.445-2.99.581.933.562 1.956.445 2.99Zm-1.605-2.263c.893.895.549 1.96.414 2.995-.623-.93-.4-1.98-.414-2.995Zm1.032-1.688c-.789-.672-.639-1.525-.459-2.384.563.715.53 1.546.459 2.384ZM51.316 108.369c.657-.784 1.467-.511 2.265-.336-.677.641-1.483.402-2.265.336Zm116.42-49.703c.237-.473.595-.613 1.081-.383-.249.433-.631.51-1.081.383Zm9.548 34.031c-.104-.144-.27-.28-.301-.44-.149-.793-.646-.99-1.362-.843 1.305-.55 1.265.658 1.663 1.283Zm.525 5.166c-.642-1.305-.585-2.687-.474-4.077.63 1.312-.123 2.768.474 4.077Zm-.079 6.541c.545-1.451-.045-2.945.152-4.406.346 1.491.595 2.959-.152 4.406Z"/><path d="M178.208 104.191c-.031.109-.313.144-.474.213.545-1.451-.045-2.945.152-4.406 1 1.326.746 2.758.322 4.193Zm-.399-6.328c-.642-1.305-.585-2.687-.474-4.077.962 1.264.588 2.685.474 4.077Zm-127.09 9.453a5.934 5.934 0 0 1 3.392-.542c-1.014.909-2.205.705-3.392.542Zm126.565-14.619c-.104-.144-.27-.28-.301-.44-.149-.793-.646-.99-1.362-.843 1.099-.665 1.507-.566 1.732.474.017.271-.006.544-.069.81ZM48.435 107.86c.605-.764 1.467-.442 2.232-.528-.573.898-1.426.616-2.232.528Zm48.507-43.95c-1.272-.315-2.582-.545-3.79.166a41.148 41.148 0 0 0-2.8 1.83 1.098 1.098 0 0 0-.42 1.233c.514 2.045 2.177 3.44 4.17 3.475 3.028.095 4.148-1.797 4.454-4.306.097-.912-.754-2.18-1.614-2.398Zm-3.04 4.571a2.21 2.21 0 0 1-1.617-1.42.603.603 0 0 1 .166-.758c.474-.315.907-.672 1.504-.71.424-.03.71.135.782.575.073.559.109 1.125.151 1.556-.016.622-.457.885-.985.757Zm-3.324 7.166c.111-.684.15-1.446.751-1.995a.81.81 0 0 1 1.012-.128.947.947 0 0 1 .358.696c-.02.883-.578 1.543-1.067 2.218-.151.208-.424.452-.691.237-.185-.156-.256-.452-.358-.691a1.012 1.012 0 0 1-.005-.337Zm2.737-1.311c-.019.13.37-.043.673.068.303.112.448.535.3.91-.09.236-.18.513-.549.392-.37-.12-.559-.383-.424-1.37Zm60.047-55.084c-.841-2.546-2.699-4.468-4.028-6.7-2.075-3.452-7.42-2.825-9.351-.611-.606.71-1.108 1.491-1.658 2.237a1.347 1.347 0 0 0-.213.388 33.582 33.582 0 0 0-2.644 7.479 15.995 15.995 0 0 0-1.185 5.698c-.104 2.763 1.751 4.524 4.525 4.498 1.225-.016 2.459-.13 3.554-.696 3.08-1.6 6.342-2.673 9.573-3.859a1.412 1.412 0 0 0 .529-1.207v-3.3c.073-.339.151-.675.225-1.01 1.258-.72 1.045-1.779.673-2.918Zm-2.76 4.756c-.105 1.673-1.1 2.483-2.557 2.95-2.229.71-4.375 1.67-6.605 2.367-2.987.932-4.501-.187-4.636-3.286-.031-.651.036-1.31-.014-1.958a5.948 5.948 0 0 1-.095-.637c1.4-2.431 2.267-5.026 2.22-7.902 1.038 0 1.639-.845 2.39-1.4 2.483-1.827 4.31-1.56 6.3.71 1.819 2.08 3.297 4.319 4.091 6.975-1.011.367-1.042 1.326-1.094 2.18Zm9.312 11.524c0-.627-.315-1.063-.969-1.184-1.836-.305-3.402-1.037-4.454-2.658-.497-.763-1.265-.71-2.033-.564-.488-.026-.912.083-1.156.564l-.182.144-.206-.113c-.675-.031-1.407-.237-1.81.58l-.602.374-.54.17c-.474-.045-.886 0-1.125.488-1.026 1.05-2.462 1.3-3.708 1.931-3.177 1.613-4.07 4.262-2.492 8.09.907 2.211 2.606 3.906 4.158 5.646 1.824 2.064 4.283 3.347 6.962 4.062 1.448.384 2.779.116 3.874-1.046a11.97 11.97 0 0 0 2.606-4.28c1.125-3.14 1.383-6.409 1.622-9.683.064-.833.064-1.666.055-2.521Zm-1.365 2.01c-.383 2.014-.807 4.024-1.184 6.05-.339 1.857-1.069 3.578-1.801 5.292a6.893 6.893 0 0 1-1.082 1.631c-.654.788-1.457 1.054-2.5.71-1.535-.523-3.008-1.25-4.06-2.42-1.862-2.078-3.708-4.213-4.926-6.772a5.858 5.858 0 0 1-.383-1.051c-.441-1.69-.131-2.604 1.357-3.601 2.639-1.769 5.309-3.483 7.955-5.208.174.058.334.148.474.265a8.553 8.553 0 0 0 4.907 3.06c1.312.297 1.487.744 1.243 2.044Zm10.776 16.127c.374.404-.647 1.058-2.104 1.316-.187.033-.379.038-.562.078-2.426.55-4.394-.973-4.096-3.551.405-3.43.675-6.896 1.853-10.18a.498.498 0 0 1 .388-.28c.135 0 .358.188.368.31.09.747.125 1.495.187 2.354-.15 2.04-.301 4.19-.474 6.337-.036.474-.135.933-.161 1.4-.083 1.6.331 1.998 1.961 1.91.093 0 .185-.047.28-.052.815-.033 1.696-.353 2.36.358Zm.901-23.525c.126.196.431.537.37.615-1.121 1.575-1.566 3.663-3.454 4.648a1.944 1.944 0 0 0-1.078 1.207c-.157.504-.223 1.184-.934 1.184-.414 0-1.165-1.322-1.12-1.845.026-.26.151-.637.348-.736 2.251-1.134 3.852-2.943 5.274-4.952.075-.112.357-.076.594-.121Zm11.108-8.037c-.237 2.315-1.483 3.636-3.791 3.766-2.997.161-6.01.161-9.017.223a1.721 1.721 0 0 1-1.466-.673 8.828 8.828 0 0 0-4.414-2.86c-.627-.918-1.942-.6-2.606-1.462.237-.73.872-.651 1.401-.554 1.966.362 3.904 1.015 5.252 2.488 1.291 1.42 2.703 1.683 4.449 1.579 1.582-.097 3.179.056 4.766.073a9.952 9.952 0 0 0 1.68-.125c1.021-.166 1.753-.746 1.938-1.776.474-2.566.405-5.078-1.388-7.187-2.132-2.493-4.314-4.908-7.131-6.7a20.292 20.292 0 0 0-5.923-2.481c-1.54-.4-3.106-.675-4.65-1.053a8.885 8.885 0 0 0-3.907-.062c-.86.17-1.248.767-1.035 1.657.253 1.087.658 2.145.917 3.227.675 2.824 1.307 5.658 1.954 8.487.147.644.261 1.29.474 1.913.474 1.477.497 1.47-1.185 1.243-.798-1.073-1.243-2.32-1.596-3.575-.789-2.794-1.448-5.627-2.22-8.426a11.145 11.145 0 0 1-.358-3.347c.078-2.216 1.277-3.466 3.542-3.551 1.303-.04 2.606.083 3.878.37 2.011.449 3.973 1.128 5.968 1.656 5.368 1.388 9.256 4.835 12.44 9.134 1.713 2.336 2.336 5.094 2.028 8.016Z"/><path d="M185.048 21.858c-1.215-3.788-3.08-7.266-5.835-10.18a33.14 33.14 0 0 0-8.161-6.392C163.146.94 155.03.268 146.693 3.866c-6.16 2.658-10.351 7.209-12.843 13.468-1.277 3.2-1.848 6.444-1.976 9.853-.161 4.4.711 8.546 2.426 12.583.898 2.102 2.317 3.844 3.454 5.776a14.27 14.27 0 0 0 2.763 3.535c1.059.932 2.132 1.839 3.2 2.755 3.054 2.604 6.634 4.224 10.443 5.34 3.106.908 6.288 1.033 9.493.981.924-.533 2.011.062 2.935-.44l1.074-.11c.209-.21.457-.377.732-.492.575-.236 1.227-.305 1.814-.473.995-.275 1.794-.663 2.296-1.274.474-.57.685-1.337.561-2.389-.021-.151.14-.326.218-.492-.173-2.1.342-4.053 1.275-5.902.514-1.025 1.535-1.056 2.229-.187.37.474.488.994.633 1.53.061.236.177.34.369.262.178-.047.34-.137.474-.262.089-.162.16-.333.211-.51.362-.74.628-1.583 1.658-1.657a2.492 2.492 0 0 0 1.185-.591c.929-.87.571-2.346.753-3.552.559-3.697.524-3.702-2.817-5.414-2.132-1.086-4.24-2.223-6.072-3.802a39.276 39.276 0 0 0 6.582 3.731c1.746.777 3.316 1.766 3.861 3.807.046.257.185.488.391.649a.671.671 0 0 0 .6.014c.379-1.148.871-2.268 1.115-3.445 1.064-5.151.924-10.284-.682-15.3Zm-.997 18.482a.92.92 0 0 1-.114-.736c.28-1.364-.497-2.098-1.483-2.751-.474-.317-.907-.71-1.421-.912a38.71 38.71 0 0 1-8.529-4.89 3.087 3.087 0 0 0-.474-.287c-.258-.13-.545-.213-.782 0s-.094.51.067.71a14.313 14.313 0 0 0 4.252 3.648c1.637.912 3.317 1.745 4.975 2.605 1.225.632 1.261.674 1.116 1.912-.182 1.487-.948 2.978-.54 4.43.175.632-.017.923-.292 1.136-.274 0-.573.019-.907.026-1.149.133-1.895 2.13-3.553.398-.86-.907-2.033.3-2.606 1.333-.995 1.766-1.185 3.719-1.161 5.703.045.222.064.448.057.674a15.242 15.242 0 0 1-4.537 3.74 5.689 5.689 0 0 1-.353-.051c-.436 0-.87.056-1.291.166-.948.312-1.934.295-2.914.274-8.145.109-15.43-2.166-21.322-7.969-6.778-6.668-10.391-14.554-9.457-24.315.886-9.285 5.212-16.335 13.575-20.328 15.216-7.259 31.181 2.021 36.734 14.161 3.206 6.986 3.315 14.095.96 21.323Zm39.048 13.984c-.017.465-.058.929-.123 1.39-.047.263-.213.542-.545.516a.6.6 0 0 1-.41-.284 2.307 2.307 0 0 1-.279-.788c-.474-3.694-1.104-7.373-1.099-11.113a3.36 3.36 0 0 1 .109-.544c.045-.237.175-.358.362-.266.145.078.348.187.384.318.68 2.523 1 5.113 1.331 7.698.135 1.016.183 2.048.27 3.073Z"/><path d="M184.155 44.159c-.99 2.232-1.09 2.289-3.48 1.7-.18-.043-.362-.074-.543-.11.176-.236.474-.369.711-.553.275-.213.474-.505.292-1.137-.398-1.45.357-2.942.54-4.43.144-1.237.109-1.28-1.116-1.912-1.658-.855-3.345-1.688-4.975-2.604a14.328 14.328 0 0 1-4.253-3.648c-.161-.201-.331-.474-.066-.71.265-.237.524-.126.782 0 .166.08.325.177.474.286a38.73 38.73 0 0 0 8.528 4.891c.507.21.948.594 1.422.911.985.654 1.762 1.388 1.483 2.751a.937.937 0 0 0 .113.737.713.713 0 0 0 .555.262 5.633 5.633 0 0 1-.467 3.566Zm-20.503 13.986c.903-.65 1.929-.49 2.938-.44-.884.786-1.905.648-2.938.44Zm11.02-32.748c-3.402 0-6.974.341-9.623-2.654-.474-.532-1.286-.788-2.002-1.015-1.876-.602.415.88-.405.835-.628-.918-1.943-.6-2.606-1.463.237-.729.872-.65 1.4-.554 1.967.363 3.904 1.016 5.252 2.489 1.292 1.42 2.704 1.683 4.45 1.579 1.582-.098 3.179.056 4.766.073a9.96 9.96 0 0 0 1.68-.126c1.021-.165 1.753-.745 1.938-1.775.474-2.566.405-5.078-1.389-7.187-2.132-2.493-4.314-4.908-7.13-6.7a20.303 20.303 0 0 0-5.923-2.481c-1.54-.4-3.106-.675-4.651-1.054a8.88 8.88 0 0 0-3.906-.061c-.86.17-1.249.767-1.035 1.657.253 1.087.658 2.145.916 3.227.676 2.824 1.308 5.658 1.955 8.487.147.644.26 1.29.474 1.913.473 1.477.497 1.47-1.185 1.243.566-1.004.237-2.027 0-3.016-.836-3.379-1.473-6.802-2.421-10.161-.841-2.952.223-4.53 3.267-4.16 6.107.736 12.127 1.963 16.664 6.714.907.947 1.895 1.835 2.722 2.867 1.078 1.33 1.914 2.791 2.251 4.498.928 4.794-.612 6.83-5.459 6.825Z"/><path d="M181.334 22.107c-.237 2.315-1.483 3.636-3.791 3.766-2.997.161-6.01.161-9.017.223a1.721 1.721 0 0 1-1.466-.673 8.828 8.828 0 0 0-4.414-2.86c-.627-.918-1.942-.6-2.606-1.462.237-.73.872-.651 1.401-.554 1.966.362 3.904 1.015 5.252 2.488 1.291 1.42 2.703 1.683 4.449 1.579 1.582-.097 3.179.056 4.766.073a9.952 9.952 0 0 0 1.68-.125c1.021-.166 1.753-.746 1.938-1.776.474-2.566.405-5.078-1.388-7.187-2.132-2.493-4.314-4.908-7.131-6.7a20.292 20.292 0 0 0-5.923-2.481c-1.54-.4-3.106-.675-4.65-1.053a8.885 8.885 0 0 0-3.907-.062c-.86.17-1.248.767-1.035 1.657.253 1.087.658 2.145.917 3.227.675 2.824 1.307 5.658 1.954 8.487.147.644.261 1.29.474 1.913.474 1.477.497 1.47-1.185 1.243-.798-1.073-1.243-2.32-1.596-3.575-.789-2.794-1.448-5.627-2.22-8.426a11.145 11.145 0 0 1-.358-3.347c.078-2.216 1.277-3.466 3.542-3.551 1.303-.04 2.606.083 3.878.37 2.011.449 3.973 1.128 5.968 1.656 5.368 1.388 9.256 4.835 12.44 9.134 1.713 2.336 2.336 5.094 2.028 8.016Zm-21.42 13.425c0-.627-.315-1.063-.969-1.184-1.836-.305-3.402-1.037-4.454-2.658-.497-.763-1.265-.71-2.033-.564-.322.315-.867.175-1.156.564l-.182.144-.206-.113c-.545.383-1.343-.04-1.81.58l-.602.374-.54.17c-.332.253-.82.166-1.125.488-1.026 1.05-2.462 1.3-3.708 1.931-3.177 1.613-4.07 4.262-2.492 8.09.907 2.211 2.606 3.906 4.158 5.646 1.824 2.064 4.283 3.347 6.962 4.062 1.448.384 2.779.116 3.874-1.046a11.97 11.97 0 0 0 2.606-4.28c1.125-3.14 1.383-6.409 1.622-9.683.064-.833.064-1.666.055-2.521Zm-1.365 2.01c-.383 2.014-.807 4.024-1.184 6.05-.339 1.857-1.069 3.578-1.801 5.292a6.893 6.893 0 0 1-1.082 1.631c-.654.788-1.457 1.054-2.5.71-1.535-.523-3.008-1.25-4.06-2.42-1.862-2.078-3.708-4.213-4.926-6.772a5.858 5.858 0 0 1-.383-1.051c-.441-1.69-.131-2.604 1.357-3.601 2.639-1.769 5.309-3.483 7.955-5.208.174.058.334.148.474.265a8.553 8.553 0 0 0 4.907 3.06c1.312.297 1.487.744 1.243 2.044Zm-6.128-14.372c-.73 1.439.151 3.06-.517 4.497-3.231 1.184-6.503 2.259-9.573 3.86-1.088.565-2.322.679-3.554.695-2.774.036-4.629-1.725-4.525-4.498a15.973 15.973 0 0 1 1.185-5.698c.602.026.898.253 1.052.564.11.265.173.548.187.835.02.214.051.427.095.637.049.649-.017 1.307.014 1.958.144 3.099 1.658 4.218 4.636 3.286 2.229-.71 4.376-1.657 6.605-2.368 1.457-.473 2.452-1.276 2.556-2.95.052-.854.083-1.813 1.095-2.165.042 0 .087-.027.135-.036a.388.388 0 0 1 .066-.021.9.9 0 0 1 .749.374c-.055.355-.133.691-.206 1.03Z"/><path d="M152.647 22.159c-.296-.048-.592-.088-.893-.135a1.452 1.452 0 0 0-.057-.183c-.794-2.656-2.272-4.895-4.092-6.974-1.99-2.28-3.816-2.547-6.299-.71-.751.554-1.353 1.39-2.39 1.4a.362.362 0 0 1-.069 0 .763.763 0 0 1-.18 0c-.474-.238-.711-.562-.566-.967.049-.14.121-.271.213-.388.55-.746 1.052-1.539 1.658-2.237 1.931-2.214 7.276-2.841 9.351.61 1.341 2.233 3.198 4.155 4.027 6.7.384 1.115.597 2.174-.703 2.884Zm14.574 32.833c-.187.033-.379.038-.562.078-2.426.55-4.394-.973-4.096-3.551.405-3.43.675-6.896 1.853-10.18a.498.498 0 0 1 .388-.28c.135 0 .358.188.368.311.09.746.125 1.494.187 2.353-.15 2.04-.301 4.19-.474 6.338-.036.473-.135.932-.161 1.399-.083 1.6.331 1.998 1.961 1.91.093 0 .185-.047.28-.052.808-.035 1.689-.367 2.352.362.382.4-.639 1.054-2.096 1.312Zm3.381-24.232c-1.121 1.574-1.566 3.662-3.454 4.646a1.946 1.946 0 0 0-1.078 1.208c-.157.504-.223 1.184-.934 1.184-.414 0-1.165-1.322-1.12-1.845.026-.26.151-.637.348-.736 2.25-1.134 3.852-2.943 5.273-4.952.071-.105.342-.07.595-.114.126.19.431.53.37.608Z"/><path d="M138.916 15.554c.047 2.876-.82 5.47-2.22 7.902-.187.32-.384.642-.585.959-.043-.426-.104-.855-.119-1.281-.014-.426-.082-.86-.535-1.082a33.581 33.581 0 0 1 2.644-7.478c.073-.14.147-.268.213-.389.13.415.069.933.597 1.137.005.068.005.146.005.232Zm13.517 10.916a1.421 1.421 0 0 1-.528 1.207c-.034-.452-.052-.907-.095-1.359-.104-1.108-.119-2.202.611-3.148.007 1.098.007 2.201.012 3.3Zm-1.518 5.258a2.724 2.724 0 0 1-1.806.58c.398-.824 1.13-.611 1.806-.58Zm-2.958 1.124a1.24 1.24 0 0 1-1.125.488c.244-.476.663-.533 1.125-.488Zm4.502-1.719c-.178.616-.545.843-1.156.564.244-.48.668-.59 1.156-.564Z"/><path d="M149.109 32.308a.458.458 0 0 1-.407.4.453.453 0 0 1-.202-.026l.609-.374Zm73.99 22.016c-.017.465-.058.929-.123 1.39-.047.263-.213.542-.545.516a.6.6 0 0 1-.41-.284 2.307 2.307 0 0 1-.279-.788c-.474-3.694-1.104-7.373-1.099-11.113a3.36 3.36 0 0 1 .109-.544c.045-.237.175-.358.362-.266.145.078.348.187.384.318.68 2.523 1 5.113 1.331 7.698.135 1.016.183 2.048.27 3.073Zm-72.061-36.197c-1.006-1.337-2.115-2.604-3.03-3.989-1.506-2.296-4.619-2.65-6.832-.902-.798.632-1.509 1.383-2.255 2.079a4.849 4.849 0 0 0-.064.236c-.657 2.394-1.689 4.669-2.339 7.067a16.112 16.112 0 0 0-.405 1.79c.014 1.117-.031 2.242.052 3.357.093 1.238.865 2.014 1.986 2.492a3.98 3.98 0 0 0 3.006 0 936.282 936.282 0 0 0 9.178-3.418c1.163-.44 1.099-.473 1.106-1.894 0-.985-.549-2.045.315-2.943.03-.07.057-.143.078-.217.46-1.347.029-2.543-.796-3.658Zm-.426 5.88c-.104 1.674-1.099 2.484-2.556 2.95-2.23.71-4.376 1.672-6.605 2.368-2.988.933-4.501-.187-4.636-3.286-.031-.651.035-1.31-.015-1.958a5.703 5.703 0 0 1-.094-.637c1.4-2.431 2.267-5.026 2.219-7.902 1.038 0 1.64-.845 2.391-1.4 2.483-1.827 4.309-1.56 6.299.711 1.82 2.079 3.298 4.318 4.091 6.974-1.021.367-1.051 1.326-1.103 2.18h.009Z"/></g><defs><clipPath id="a"><path fill="#fff" d="M0 0h253v218H0z"/></clipPath></defs></svg>