<svg width="362" height="204" fill="none" xmlns="http://www.w3.org/2000/svg"><g clip-path="url(#a)" fill="#000"><path d="M359.389 192.453c-2.211-.201-4.419-.437-6.633-.628-1.81-.145-3.645-.431-5.439-.283-2.393.195-4.761.025-7.135-.047-3.45-.104-6.901-.314-10.37-.449a109.26 109.26 0 0 0-12.232.314c-.84.063-1.687.245-2.509.188-2.196-.147-4.416-.063-6.615 0-2.136.057-4.278-.031-6.423.157-1.97.17-3.962.135-5.944.343-2.766.289-5.567-.113-8.33.402a5.832 5.832 0 0 1-1.189-.025c-.395 0-.791-.048-1.186-.032-1.458.054-2.904.427-4.391.167-.204-.035-.436.116-.658.15a3.935 3.935 0 0 1-1.183.126c-.979-.163-1.929.047-2.889.113-1.135.072-2.267.179-3.403.217-1.809.057-3.625-.047-5.423.286-.17.017-.341.017-.511 0-2.434-.054-4.868-.182-7.286.273a6.833 6.833 0 0 1-1.364-.019 7.302 7.302 0 0 0-1.355-.019c-2.748.45-5.561.173-8.299.745a4.847 4.847 0 0 1-.681.034c-.737.044-1.471.098-2.196.139h-.837c-.627 0-1.255-.022-1.863 0-.684.031-1.361.135-2.045.154a44.083 44.083 0 0 0-7.465.703 4.565 4.565 0 0 1-.859 0c.464-1.379.464-1.379-.138-2.827.339.077.682.132 1.029.163.673.055 1.35.049 2.023-.018a1.758 1.758 0 0 0 1.492-2.375c-.279-.924-.517-1.954-1.1-2.667-.706-.858-1.337-1.803-2.252-2.513a23.198 23.198 0 0 0-8.438-3.989 48.892 48.892 0 0 0-10.416-1.653c-.511-.019-1.019-.1-1.527-.157-.508-.056-1.129.167-1.669-.135a3.345 3.345 0 0 1-.078-.528c.039-1.256.088-2.506.144-3.75.038-.845.125-1.693.141-2.541.022-1.42.079-2.846 0-4.263-.119-1.885-.448-3.729-.527-5.601-.091-2.098 0-4.206 0-6.311v-1.02c-.028-1.48-.103-2.959-.078-4.439a3.617 3.617 0 0 1 .408-1.624c.57-1.043 1.141-2.101 2.07-2.899a4.884 4.884 0 0 0 1.044-1.326c.345-.628.643-1.335 1.393-1.718 1.433 3.022 2.597 6.103 4.174 8.99.1.267.186.538.258.814.379.942.627 1.985 1.207 2.795.627.889.841 1.847 1.066 2.827.035.282.104.558.204.823 1.148 2.29 1.832 4.762 2.789 7.128.426 1.055.787 2.142 1.311 3.141a139.364 139.364 0 0 0 3.371 6.116c.913 1.571 1.936 3.05 3.764 3.769.46.209.95.342 1.452.396 2.491.142 4.567-.873 6.333-2.472a50.834 50.834 0 0 0 5.15-5.186c1.568-1.885 3.174-3.713 4.582-5.717a473.778 473.778 0 0 1 4.658-6.512c1.506-2.057 3.322-3.889 4.419-6.235a1.55 1.55 0 0 1 .192-.283c.709-.942 1.442-1.885 2.123-2.871.907-1.3 1.769-2.632 2.654-3.948 1.072-1.593 1.819-3.399 3.246-4.763.395-.376.627-.942.906-1.426.668-1.124 1.28-2.286 1.998-3.376a28.221 28.221 0 0 0 2.218-4.219 16.06 16.06 0 0 1 3.318-4.929c1.198-1.2 1.829-2.72 2.534-4.193.207-.434.142-1.005.176-1.514a5.643 5.643 0 0 0-.044-.735c1.195-1.046 2.299-2.036 3.795-2.397a25.428 25.428 0 0 0 4.344-1.498c.242-.043.489-.043.731 0 0 .71.066 1.335.041 1.957-.085 1.982-.195 3.967-.298 5.949-.069 1.357.558 1.897 1.882 1.621.166-.035.329-.088.492-.138 2.378-.773 4.746-1.571 7.136-2.312 1.844-.563 3.694-1.134 5.579-1.517 2.51-.509 5.082-.541 7.635-.698 1.361-.081 2.757.094 4.077-.144 1.957-.349 3.877-.142 5.765.157 3.249.512 6.511.942 9.742 1.611 3.058.628 6.107 1.257 9.03 2.362a13.88 13.88 0 0 1 2.289 1.1c.741.455 1.569.279 1.948-.628.207-.585.368-1.184.48-1.794.075-.314.094-.672.147-1.012.64-3.978 1.279-7.957 1.917-11.936l1.091-6.732c.163-1.011.33-2.023.493-3.034.467-2.856.712-5.764 2.007-8.428.133-.372.155-.775.063-1.16a2.433 2.433 0 0 0-1.117-1.66c-1.148-.717-2.277-1.572-3.541-1.983-1.336-.433-2.616-1.03-4.008-1.354-2.484-.578-4.887-1.514-7.371-2.098-2.368-.56-4.689-1.307-7.085-1.766-1.569-.314-3.137-.383-4.733-.556a52.032 52.032 0 0 0-14.742.346c-2.126.37-4.275.628-6.301 1.432a8.52 8.52 0 0 1-1.151.314c-1.477.4-2.918.926-4.306 1.571a3.68 3.68 0 0 0-1.013.6c-1.151 1.021-2.328 1.966-3.905 2.25a3.154 3.154 0 0 0-.9.47c-1.183.673-2.369 1.348-3.564 1.98-2.258 1.2-4.482 2.443-6.633 3.822-.477.314-.988.563-1.477.852a3.71 3.71 0 0 0-.556.383c-.73.628-1.474 1.256-2.179 1.906-1.459 1.357-2.908 2.727-3.861 4.521-.292.552-.647 1.071-.941 1.624-.399.744-.628 1.649-1.186 2.227a16.722 16.722 0 0 0-1.694 1.884c-.828 1.153-1.64 2.325-2.509 3.456a67.991 67.991 0 0 1-5.724 6.763c-1.16 1.172-2.327 2.331-3.491 3.499-.643.628-1.311 1.257-1.916 1.932-1.026 1.137-1.948 2.372-3.024 3.455-1.919 1.945-3.585 4.106-5.376 6.16a19.13 19.13 0 0 0-3.045 4.737c-.374-.732-.806-1.256-.885-1.8-.169-1.256-.796-2.365-1.079-3.574-.153-.66-.232-1.339-.329-2.008-.075-.499-.079-1.017-.201-1.504a25.347 25.347 0 0 0-1.534-4.69c-.746-1.593-1.354-3.248-2.032-4.872a4.742 4.742 0 0 0-.417-.738c-.957-1.474-1.926-2.94-2.879-4.417-.182-.283-.314-.606-.477-.901-.477-.836-.941-1.687-1.452-2.494-.869-1.339-1.729-2.671-2.23-4.203a6.209 6.209 0 0 0-.6-1.024c-1.113-1.979-2.324-3.908-3.29-5.969a24.358 24.358 0 0 0-1.743-2.909c-.214-.314-.493-.609-.719-.942-.906-1.297-1.49-2.827-2.75-3.88a1.195 1.195 0 0 1-.198-.279c-.941-1.423-1.816-2.887-2.823-4.256a18.384 18.384 0 0 0-3.045-3.43 42.363 42.363 0 0 1-1.939-1.665c-1.185-1.097-2.471-1.986-4.127-2.2a3.12 3.12 0 0 1-.753-.291c.016-.189 0-.314.041-.396.774-1.219.596-2.645.868-3.97a1.287 1.287 0 0 0-.094-.666c-.392-1.069-.774-2.143-1.22-3.192a3.318 3.318 0 0 0-.809-1.291c-1.496-1.219-2.704-2.805-4.498-3.647-.941-.437-1.138-1.21-1.035-2.123.061-.338.148-.67.261-.993.608-2.24 1.17-4.495 1.847-6.716.546-1.8.427-3.581.166-5.387a4.428 4.428 0 0 0-.796-2.048c-.167-.226-.298-.475-.496-.792a12.932 12.932 0 0 0 1.129-3.716c.126-.83.59-1.59 1.644-1.721a3.51 3.51 0 0 0 1.223-.534 15.725 15.725 0 0 0 1.998-1.57c1.712-1.402 3.099-2.979 3.764-5.127a6.55 6.55 0 0 1 .313-.607c1.214-2.89 1.779-5.855 1.051-8.97a2.464 2.464 0 0 1-.132-.67c.047-.328.119-.653.214-.97a6.42 6.42 0 0 0-3.491-.808c-1.195.04-2.39.079-3.582.16-.628.041-1.233.17-1.851.252-.269.034-.539.047-.774.069-.509-1.21-.515-1.213-.189-1.998a6.08 6.08 0 0 1 .455-.914c.979-1.536 1.233-3.29 1.396-5.026a4.723 4.723 0 0 0-.464-2.315c-.574-1.229-1.136-2.485-2.03-3.534-.627-.735-1.254-1.48-1.916-2.17-1.029-1.062-2.014-2.2-3.171-3.095-1.694-1.322-3.522-2.478-5.307-3.684-.37-.252-.825-.377-1.198-.629a17.362 17.362 0 0 0-3.03-1.514c-1.379-.519-2.8-.92-4.247-1.2a12.583 12.583 0 0 0-4.077-.213c-2.262.248-4.514.58-6.766.908-2.91.42-5.554 1.57-8.088 3.024a45.027 45.027 0 0 0-4.533 3.02 23.914 23.914 0 0 0-5.078 5.025 118.215 118.215 0 0 0-4.425 6.487c-1.647 2.607-3.049 5.365-3.814 8.362a50.067 50.067 0 0 0-1.481 10.12 18.672 18.672 0 0 1-.225 1.857 31.619 31.619 0 0 1-1.569 5.928c-.476 1.335-.868 2.71-1.568 3.945-.652 1.13-1.255 2.318-2.101 3.305-1.471 1.727-3.102 3.317-4.661 4.969a7.68 7.68 0 0 0-.897 1.027c-1.255 1.954-2.792 3.729-3.83 5.83-.731 1.48-1.631 2.9-1.744 4.596a33.831 33.831 0 0 0-.037 3.575c.056 1.645.247 3.288.26 4.934a8.77 8.77 0 0 1-.941 4.115c-.728 1.442-1.778 2.648-2.791 3.864a27.813 27.813 0 0 0-3.109 4.674c-1.05 1.95-2.092 3.905-3.152 5.85-.975 1.787-1.537 3.668-1.339 5.726.075.794.128 1.592.248 2.377a6.527 6.527 0 0 1-.22 3.208 32.158 32.158 0 0 1-1.371 3.31c-.762 1.571-1.254 3.179-.941 4.945.059.28.086.565.082.851a2.45 2.45 0 0 1-.163.829c-.37.892-.772 1.772-1.17 2.652-.655 1.441-1.436 2.827-1.625 4.451a4.93 4.93 0 0 1-.348.961c-.765 2.261-1.653 4.492-2.242 6.797-.396 1.536-1.032 3.01-1.23 4.596a5.975 5.975 0 0 1-.313.977c-.339 1.121-.941 2.167-.97 3.386a2.572 2.572 0 0 1-.213.628c-.144.484-.289.971-.42 1.458-.087.445-.2.885-.339 1.316-.681 1.649-.91 3.408-1.308 5.127-.314 1.325-.583 2.66-.878 3.989-.113.499-.267.989-.345 1.495-.342 2.246-.627 4.511-1.01 6.747a75.18 75.18 0 0 0-.841 6.773c-.056.732-.348 1.457-.313 2.199.009.909-.103 1.815-.333 2.695a7.384 7.384 0 0 0-.097 1.018c-.216 2.484-.373 4.975-.684 7.448a35.49 35.49 0 0 0-.244 3.047c.014.569-.017 1.138-.091 1.702a26.918 26.918 0 0 0-.643 5.573c.019 1.523-.361 3.056.185 4.573.179.503.084 1.106.119 1.781-.734 0-1.383.12-1.964-.028-.94-.233-1.803-.113-2.706 0-.45.039-.902.039-1.352 0-.627-.035-1.239-.16-1.857-.151-.737 0-1.468.164-2.195.195-2.152.1-4.3.082-6.458.346-1.72.21-3.494.122-5.245.244-1.91.106-3.823.106-5.733 0a68.694 68.694 0 0 0-3.397-.021c-1.189 0-2.38.065-3.57.094a5.944 5.944 0 0 0-.68 0 17.2 17.2 0 0 1-3.572 0c-1.255-.079-2.488.081-3.736.11-.564 0-1.132-.054-1.7-.082a12.193 12.193 0 0 0-1.687-.072 65.584 65.584 0 0 1-8.855.179c-1.003-.047-2.035-.182-3.039.188a2.467 2.467 0 0 1-1.185.063c-2.215-.349-4.392.233-6.587.242-.906 0-1.807.204-2.716.276a51.19 51.19 0 0 1-2.698.129c-.9.025-1.721.374-2.656.22-.756-.126-1.568.192-2.362-.028a2.238 2.238 0 0 0-.837.088c-.5.108-1.008.18-1.518.216a26.8 26.8 0 0 0-5.078.494 5.526 5.526 0 0 1-.681.037c-1.524.117-3.02.431-4.551.528-2.261.141-4.513.456-6.772.694h-.17c-1.304.11-2.605.214-3.907.34-.383.04-.73.402-.627.666.103.263.313.54.523.571 1.067.157 2.158.399 3.212.295a17.897 17.897 0 0 1 2.71-.044c.91.048 1.835.173 2.723.048a32.384 32.384 0 0 1 3.563-.211 320.82 320.82 0 0 1 7.339-.135l13.672-.71a4.014 4.014 0 0 1 1.694-.217h2.684c1.935-.034 3.87-.128 5.803-.26 1.182-.082 2.368-.098 3.553-.11 1.186-.013 2.387.05 3.576.025 1.255-.025 2.494-.107 3.736-.176.793-.044 1.568-.116 2.374-.166a11.493 11.493 0 0 0 3.023-.428 4.35 4.35 0 0 1 1.183-.1c1.079-.044 2.161-.057 3.243-.116a45.555 45.555 0 0 1 6.292.028c1.465.116 2.926.468 4.39.414 1.751-.066 3.489.481 5.233.029a.695.695 0 0 1 .335-.029c1.587.412 3.165-.05 4.749-.05 1.584 0 3.177-.21 4.767-.314a7.149 7.149 0 0 1 1.534 0c.787.102 1.585.08 2.365-.066a4.524 4.524 0 0 1 1.675.113 5.264 5.264 0 0 0 2.823-.031c.816-.24 1.659-.38 2.509-.415.509-.01 1.01.122 1.449.38a8.744 8.744 0 0 0 3.215 1.065c2.529.409 5.087.612 7.65.606 1.822 0 3.644-.075 5.463-.044 2.042.032 4.078.176 6.12.22 4.202.091 8.412.245 12.614.182 2.563-.037 5.1.211 7.65.245 1.02 0 2.042-.022 3.065 0 1.254.026 2.478-.197 3.745-.034 1.166.151 2.371.031 3.556 0 2.049-.041 4.094-.107 6.139-.151 2.446-.053 4.892-.082 7.339-.135 3.641-.078 7.286.173 10.918-.254 2.271.194 4.529-.192 6.8-.088 1.477.066 2.961.044 4.438 0 .925-.032 1.778-.314 2.352-1.141.254-.37.577-.691.941-1.115 1.713.314 3.428-.107 5.169-.355a68.481 68.481 0 0 1 7.65-.628c1.6-.047 3.171.116 4.749.217.784.05 1.549.342 2.33.487 1.057.198 2.12.421 3.19.518a1.837 1.837 0 0 0 1.988-1.86 14.575 14.575 0 0 0-.131-1.602c.451.104.822.173 1.182.277 1.145.33 2.274.716 3.431.992a2.567 2.567 0 0 0 1.503-.034c1.568-.688 3.243-.528 4.874-.531 1.085 0 2.152-.047 3.227-.151a31.893 31.893 0 0 1 2.899-.141c1.587 0 3.183-.072 4.761.063 2.111.182 4.184-.314 6.291-.17.716.05 1.453-.176 2.18-.242 2.713-.248 5.433-.374 8.155-.405 1.697-.019 3.391-.314 5.088-.446a6.95 6.95 0 0 1 1.693-.019c1.255.207 2.509.075 3.742-.019a19.668 19.668 0 0 1 2.544-.169c1.649.053 3.3-.025 4.937-.236.169 0 .338-.038.511-.047 2.509-.101 4.996-.192 7.465-.628a3.54 3.54 0 0 1 1.188-.054c1.528.267 3.043-.028 4.561-.037a8.035 8.035 0 0 0 1.176-.173c.268-.092.548-.138.831-.138 1.484.282 2.945-.164 4.423-.085 1.013.053 2.038.085 3.033-.289a3.17 3.17 0 0 1 1.188-.069c1.296.047 2.597.251 3.861-.223 1.531.421 3.04-.054 4.561-.085.395.03.787.084 1.176.16.332.072.674.081 1.01.028 1.007-.314 2.026-.213 3.048-.248 1.133-.038 2.265-.248 3.394-.235 1.245.035 2.49-.07 3.711-.315.222-.047.451-.056.674-.091 1.016-.16 2.001.271 3.045.051a12.534 12.534 0 0 1 3.04-.157c2.148.081 4.297.276 6.445.37 1.757.079 3.519.072 5.276.104.448 0 .909-.082 1.336.082l5.131.175c.035-.053.074-.103.116-.15 1.321-.157 2.556-.314 3.799-.45 1.414-.141 2.822-.295 4.246-.348 1.707-.063 3.416 0 5.122-.035.781 0 1.597.082 2.437-.493a16.6 16.6 0 0 0-2.66-.427ZM209.936 29.11c.241-.062.486-.101.734-.117.38 1.1.204 2.177.138 3.22-.135 2.136-1.132 3.993-1.963 5.921-.863 1.995-2.462 3.195-4.053 4.458-.188.15-.483.166-.89.314.58-3.845-.063-7.514.122-11.362a.407.407 0 0 1 .204-.217c1.898-.754 3.798-1.49 5.699-2.208l.009-.01Zm-6.063-.858a19.235 19.235 0 0 1 3.159-.405 8.747 8.747 0 0 1-3.221 1.285c-.361-.384-.323-.786.062-.87v-.01Zm90.538 62.705c.029-.117.072-.23.129-.336 1.609-.707 3.105-1.376 4.61-2.023a26.702 26.702 0 0 1 6.684-1.954c1.515-.223 3.03-.452 4.548-.628a11.226 11.226 0 0 1 1.866-.091c1.744.069 3.488-.11 5.238.16 1.844.283 3.726.298 5.58.53 1.405.177 2.795.485 4.181.783.828.18 1.64.45 2.453.694.429.13.843.314 1.273.437.417.157.854.25 1.298.276.716-.019 1.327.248 1.964.484.74.276 1.49.547 2.252.757 1.254.352 2.534.61 3.764.996.539.17 1.032.455 1.628.396.17.005.338.046.492.119 1.007.383 2.036.72 3.011 1.172.906.42 1.913.732 2.509 1.721-.1.465-.103 1.024-.342 1.448-.599 1.075-.759 2.265-1.007 3.424-.313 1.442-.486 2.912-.696 4.376-.27 1.856-.514 3.716-.768 5.575-.06.45-.107.902-.163 1.351-.496 3.946-.973 7.897-1.506 11.839a24.108 24.108 0 0 1-.684 2.727 5.853 5.853 0 0 1-1.207-.254c-1.967-.905-3.943-1.778-6.05-2.303-1.111-.751-2.485-.741-3.683-1.256a6.719 6.719 0 0 0-1.966-.462c-1.75-.185-3.45-.738-5.229-.723a24.802 24.802 0 0 1-2.879-.279c-1.694-.179-3.372-.349-5.084-.038-1.158.214-2.362.185-3.545.27-1.693.123-3.387.236-5.077.374-.672.057-1.34.17-2.008.267a45.045 45.045 0 0 0-10.037 2.601c-1.063.396-2.154.716-3.224 1.099-.674.239-1.33.531-2.155.867.076-1.275-.025-2.39.104-3.518.091-.848.119-1.702.081-2.554-.081-2.161-.16-4.325-.335-6.48-.154-1.885-.424-3.732-.665-5.594a326.19 326.19 0 0 0-.859-6.264c-.098-.647.185-1.087.567-1.53.744-.86 1.534-1.687 2.196-2.607a15.217 15.217 0 0 0 2.741-5.84v-.009Zm-17.847 11.227c.828-.917 1.882-1.637 2.914-2.35 1.569-1.1 3.206-2.14 4.84-3.141.818-.509 1.722-.876 2.553-1.367 1.509-.892 2.992-1.825 4.617-2.827.006.21-.008.42-.041.629-.414 1.41-1.314 2.54-2.302 3.55-1.189 1.212-1.819 2.735-2.607 4.168-.21.383-.461.923.026 1.517l1.521-1.37c.392 4.712.608 9.242 1 13.822-1.86.493-3.378 1.542-5.046 2.198a10.856 10.856 0 0 0-3.51 2.319c-.37.342-.674.754-1.082 1.215-.969-1.344-1.186-2.971-2.033-4.297-.846-1.325-1.461-2.698-2.295-3.977-.835-1.278-1.882-2.553-2.899-3.929a28.83 28.83 0 0 1 4.344-6.151v-.009Zm-69.187-17.905c.386.096.757.244 1.104.44a24.63 24.63 0 0 1 5.608 4.13 23.629 23.629 0 0 1 3.155 3.993c.659 1.043 1.23 2.139 2.048 3.1 1.597 1.885 2.635 4.109 3.764 6.283.411.804.627 1.724 1.151 2.453.941 1.354 1.449 2.927 2.334 4.313.756 1.187 1.21 2.563 1.803 3.854 1.082 2.359 2.233 4.677 3.814 6.757.402.531.627 1.184.988 1.765.373.628.781 1.257 1.176 1.866.139.18.266.369.38.565.734 1.59 1.466 3.184 2.195 4.781.084.148.146.307.185.472.198 1.228.383 2.459.568 3.69-.004.227.033.453.11.666.608.996.706 2.155 1.079 3.223.596 1.715 1.515 3.286 2.434 4.844.589.996 1.029 1.228 2.346 1.674.314-.628.627-1.256.941-1.919 1.066-2.243 2.66-4.084 4.341-5.877.627-.663 1.22-1.354 1.828-2.029.756-.839 1.484-1.709 2.277-2.513 1.365-1.376 2.588-2.871 3.814-4.37.863-1.052 1.904-1.957 2.823-2.953 1.71-1.825 3.45-3.615 5.078-5.519a40.222 40.222 0 0 0 2.983-4.155 30.616 30.616 0 0 1 2.911-3.833c.991.889 1.568 2.014 2.236 3.054.888 1.382 1.703 2.808 2.509 4.231.296.494.531 1.021.703 1.57a7.626 7.626 0 0 0 2.129 3.638c-.906 1.991-2.22 3.631-3.503 5.299-.552.719-1.029 1.495-1.531 2.252-.345.519-.674 1.05-1.007 1.571a5.325 5.325 0 0 0-.445.726 35.071 35.071 0 0 1-3.193 5.622c-.718 1.087-1.32 2.253-2.061 3.324-1.063 1.536-2.016 3.141-3.161 4.627-.627.801-.96 1.809-1.54 2.645-1.035 1.495-2.164 2.921-3.237 4.397-.599.827-1.17 1.675-1.741 2.513-.627.943-1.135 2.004-1.913 2.802s-1.361 1.807-2.051 2.702a79.395 79.395 0 0 0-2.196 3.022 66.54 66.54 0 0 1-5.285 6.681c-.875.961-1.938 1.762-2.744 2.771-1.045 1.313-2.368 2.268-3.657 3.282a3.77 3.77 0 0 1-1.732.675 2.71 2.71 0 0 1-2.383-.647c-.719-.628-1.443-1.303-1.826-2.23a2.718 2.718 0 0 0-.188-.477c-.627-1.006-1.427-1.945-1.882-3.022a85.72 85.72 0 0 0-1.443-3.261c-.759-1.57-1.515-3.163-2.136-4.818-.392-1.043-.627-2.199-1.386-3.085a.73.73 0 0 1-.176-.292c-.313-1.759-1.583-3.141-1.979-4.882-.191-.851-.843-1.599-1.254-2.403-.684-1.31-1.349-2.632-2.026-3.945a984.256 984.256 0 0 0-2.118-4.084c-.363-.703-.762-1.391-1.078-2.117a1.908 1.908 0 0 1-.06-.98c.05-.337.156-.663.314-.964.514-.983.611-2.045.771-3.123.342-2.308-.179-4.526-.53-6.766a5.164 5.164 0 0 1-.144-.839c.025-1.686-.549-3.241-1.001-4.828a38.4 38.4 0 0 1-.627-2.648c-.232-1.052-.314-2.151-.859-3.116-.076-1.57-.941-2.912-1.233-4.426a9.233 9.233 0 0 0-.8-2.054.655.655 0 0 0-.555-.27.755.755 0 0 0-.464.421 1.866 1.866 0 0 0-.195.82 8.04 8.04 0 0 0 .12 1.884c.291 1.163.457 2.344.658 3.522.37 2.199.806 4.363 1.346 6.511.627 2.488.941 5.026 1.279 7.539.161.83.266 1.67.314 2.513.007.84-.038 1.679-.135 2.513-.119.943-.583 1.819-.925 2.717a8.22 8.22 0 0 1-1.568 2.589c-1.095 1.225-2.033 2.591-3.036 3.898-.138.179-.345.349-.393.55-.263 1.165-.997 2.199-.984 3.424.015 1.473-.135 2.937-.135 4.397 0 2.513.075 5.004.138 7.502.053 2.148.351 4.294.527 6.442.125 1.533.21 3.069.345 4.602.138 1.571.313 3.173.47 4.759.022.214.041.43.069.723-.335.1-.678.169-1.025.207-4.119.031-8.121.795-12.063 1.925-.919.264-1.421-.157-1.236-1.134.106-.568.204-1.086-.025-1.664-.141-.346-.044-.786-.072-1.182-.079-1.074.103-2.176-.348-3.207.216-1.768-.518-3.455-.471-5.22.047-1.766-.314-3.49-.486-5.237-.022-.229-.047-.455-.06-.681-.103-2.099-.219-4.197-.313-6.283a31.428 31.428 0 0 1 0-2.896c.178-3.565.313-7.131.335-10.699 0-2.199-.041-4.423-.097-6.631-.05-2.029-.125-4.055-.147-6.085-.029-2.553-.314-5.107-.44-7.664-.097-1.885-.122-3.77-.219-5.636-.122-2.39-.285-4.777-.417-7.165.03-.23.091-.455.182-.669 1.254 1.002 2.02 2.249 2.979 3.324.252.309.522.603.81.879a1.46 1.46 0 0 0 1.75.157c.709-.487 1.383-1.014 1.254-2.054a3.362 3.362 0 0 1 .11-1.181c.361-1.461.279-2.934.226-4.414-.079-2.198-.082-4.432-.122-6.65 0-.628-.029-1.256-.073-1.86-.081-1.19-.294-2.38-.257-3.564.085-2.539-.58-4.957-.978-7.42a35.336 35.336 0 0 0-.656-3.179c-.226-.873-.558-1.721-.881-2.692.289-.05.583-.06.875-.031 1.509.339 2.86 1.1 4.281 1.677 1.593.685 3.209 1.382 4.934 1.772v.003Zm-24.763 93.35c-.505-1.969-.37-3.961-.414-5.949a49.467 49.467 0 0 0-.414-6.436 9.981 9.981 0 0 1-.025-1.527c.033-.226.046-.454.038-.682-.358-1.9-.22-3.841-.471-5.754a26.236 26.236 0 0 1-.144-3.578 33.11 33.11 0 0 0-.15-4.42 1.61 1.61 0 0 1 0-.509c.272-1.423-.051-2.827 0-4.256.094-3.631-.226-7.253-.195-10.884 0-1.361-.028-2.721.26-4.084.101-.481-.028-1.008-.043-1.514a25.097 25.097 0 0 1 .37-5.221 1.09 1.09 0 0 0 0-.342c-.455-2.827-.107-5.676-.48-8.507a53.852 53.852 0 0 0-1.346-6.483c-.194-.748-.727-1.401-1.101-2.101-.313-.6-.627-1.204-.897-1.7.559-1.492.998-2.902 1.606-4.237.8-1.76 1.321-3.632 2.218-5.34.279-.625.523-1.265.73-1.917 1.569-4.03 3.137-8.063 4.705-12.084.35-.84.752-1.659 1.201-2.45.568-1.05 1.032-1.13 2.036-.383.684.509 1.346 1.049 2.014 1.57.89.71 1.769 1.43 2.666 2.133a3.41 3.41 0 0 1 1.279 2.328c.399 2.93.693 5.87 1.02 8.811.2 1.81.106 3.615.313 5.419.173 1.514 0 3.069-.047 4.605-.031 1.193-.091 2.387-.122 3.584s-.053 2.475-.075 3.732c-.599-.044-.853-.516-1.12-.943-.427-.675-.8-1.382-1.568-1.74a.973.973 0 0 1-.377-.346c-.778-1.196-1.963-1.884-3.199-2.462-1.236-.578-2.34-1.351-3.729-1.618-1.39-.267-2.71-.848-4.078-1.206a11.306 11.306 0 0 0-2.352-.314 1.16 1.16 0 0 0-.885.257 1.167 1.167 0 0 0-.417.823 1.295 1.295 0 0 0 .941 1.445c.159.061.326.099.496.113 2.428.154 4.617 1.112 6.822 2.017a7.24 7.24 0 0 1 2.33 1.373c.404.308.84.573 1.299.791.345.817.313 1.671.313 2.513.019 2.557.057 5.114.054 7.671 0 2.274-.066 4.545-.076 6.82 0 1.074.051 2.151.079 3.229 0 .339.031.681.025 1.021-.032 1.809-.088 3.615-.082 5.428 0 2.601.05 5.211-.069 7.815-.072 1.53-.273 3.053-.373 4.58-.041.628.057 1.256.044 1.885-.028 1.649-.097 3.295-.119 4.944-.022 1.536.05 3.075-.022 4.605-.072 1.53-.138 3.047.241 4.548.01.057.01.114 0 .17-.207 2.463.389 4.838.737 7.225.142.942.22 1.919.33 2.88.254 2.262.514 4.521.762 6.782.034.333 0 .672 0 1.191-3.306.314-6.43.094-9.544.1a8.318 8.318 0 0 1-1.227-.176c.083-.358.148-.721.195-1.087.028-.697.21-1.479.037-2.161v.003Zm-15.39-.157c-.12-1.178-.032-2.39-.69-3.455a1.717 1.717 0 0 1-.079-.675 54.45 54.45 0 0 0-.894-6.239c-.26-1.219-.244-2.494-.36-3.744-.245-2.667-.508-5.34-.734-7.998-.079-.907-.038-1.825-.11-2.732a523.712 523.712 0 0 0-.627-6.977c-.223-2.325-.49-4.64-.687-6.964-.201-2.381-.314-4.769-.515-7.15-.172-2.092-.335-4.19-.608-6.282-.361-2.708-.813-5.406-1.255-8.101-.194-1.181-.458-2.347-.683-3.487.222-.672.721-1.055 1.254-1.401 1.421-.942 2.895-1.803 4.266-2.808 1.75-1.285 3.745-2.133 5.545-3.311a11.447 11.447 0 0 0 1.596-1.257.823.823 0 0 0 .123-1.093.847.847 0 0 0-.402-.311.847.847 0 0 0-.508-.022 5.985 5.985 0 0 0-1.411.56c-2.117 1.212-4.206 2.475-6.326 3.687a37.022 37.022 0 0 0-6.22 4.461c-.941.829-1.913 1.608-2.955 2.478-.153-.289-.251-.386-.251-.48.029-1.533.173-3.072.085-4.596-.107-1.885-.072-3.769-.508-5.601a5.36 5.36 0 0 1-.078-.848c-.236-3.408-.48-6.81-1.293-10.15-.282-1.155-.373-2.358-.596-3.53-.392-2.073-1.069-4.068-1.706-6.075-.069-.21-.119-.427-.163-.597.061-.12.138-.233.229-.333.172-.149.361-.279.561-.386 1.224-.606 2.444-1.216 3.683-1.79a12.62 12.62 0 0 1 1.436-.475l.37.59 1.064-.445c.103.078.225.125.282.216 1.28 2.052 3.114 3.616 4.705 5.394a38.173 38.173 0 0 1 2.822 3.634c1.396 2.004 2.707 4.059 4.448 5.802a23.043 23.043 0 0 1 3.205 3.936c.6.942.941 2.057 1.387 3.097.671 1.571 1.355 3.107 2.01 4.668.267.628.602 1.256.684 1.916.177 1.174.457 2.331.837 3.455.075.215.125.437.151.663.129 2.042.292 4.084.354 6.126.035 1.077-.113 2.161-.166 3.241-.1 1.986-.122 3.983-.313 5.969-.192 1.985-.063 3.964-.079 5.949-.022 3.236.104 6.465.201 9.697.1 3.408.091 6.82.163 10.228.044 1.995.154 3.983.232 5.968.022.569.016 1.14.05 1.709.038.628.116 1.234.16 1.856a290.1 290.1 0 0 1 .239 3.735c.141 2.557.266 5.114.414 7.671.059 1.081.166 2.155.244 3.233.063.845.116 1.686.176 2.553-.59.207-1.219.28-1.841.214-.966-.038-1.932-.101-2.898-.148l-6.653-.314c-.502-.028-1.025.057-1.537-.286.13-.41.226-.83.286-1.256a8.224 8.224 0 0 0-.116-1.392v.003Zm35.263-104.678c.356.27.666.596.919.965.298.477.665.917.997 1.376.65.886 1.152 1.81 1.086 2.971-.001.453.072.903.216 1.332.18.507.187 1.06.019 1.57-.511.123-.941-.235-1.418-.313a6.91 6.91 0 0 1-1.33-.277c-2.509-.977-5.137-1.36-7.784-1.683a3.182 3.182 0 0 1-1.255-.428c-.765-.487-1.477-1.058-2.195-1.599-1.631-1.203-1.631-1.206-3.366-1.592 0-.713-.047-1.448 0-2.177a37.217 37.217 0 0 0-.107-7.319c-.254-2.105-.084-4.2-.313-6.367.423-.063.768-.21 1.063-.145a5.6 5.6 0 0 0 3.337-.342c.628-.242 1.324-.346 1.967-.569.746-.26 1.537-.446 2.114-1.055 1.38-.421 2.139-1.57 3.064-2.554a1.53 1.53 0 0 1 .392-.185c.091.176.279.364.261.534a158.767 158.767 0 0 1-.568 4.73 3.449 3.449 0 0 1-.336 1.14c-.655 1.223-.856 2.576-1.157 3.89a10.016 10.016 0 0 0-.148 4.064 2.888 2.888 0 0 0 1.026 1.69c1.057.961 2.434 1.414 3.516 2.34v.004Zm-2.195-23.76c-.234.394-.443.8-.628 1.22a6.262 6.262 0 0 1-2.076 2.826c-.809.597-1.412 1.474-2.356 1.926-1.74.832-3.497 1.592-5.473 1.652-1.417.04-2.823.129-4.25.192-.73.034-1.123.248-1.254.681-.132.434.216 1.04.853 1.32.44.171.89.32 1.345.446.061.269.092.544.091.82-.266 2.38-.034 4.762-.078 7.14-.031 1.64.122 3.276-.035 4.922a24.892 24.892 0 0 0 .048 3.744 3.298 3.298 0 0 1-.496 2.105 13.889 13.889 0 0 0-.979 1.991c-.862 1.982-1.75 3.955-2.55 5.969-1.013 2.535-1.941 5.101-2.923 7.645-.627 1.643-1.32 3.264-1.948 4.907-.222.581-.313 1.206-.511 1.803-.11.364-.26.719-.477 1.294-.341-.773-.721-1.31-.809-1.885-.257-1.674-1.226-2.971-2.293-4.105a59.181 59.181 0 0 1-6.156-7.715 24.507 24.507 0 0 0-3.764-4.184c-1.568-1.48-3.171-2.93-4.391-4.756a5.003 5.003 0 0 0-.919-.826 6.38 6.38 0 0 1 .602-1.096c.627-.751.762-1.596.687-2.545-.138-1.815-.21-3.634-.314-5.453-.223-3.86-.489-7.718-.662-11.582-.144-3.185-.178-6.376-.266-9.568 0-.226-.044-.449-.072-.713-1.227-1.162-2.466-2.327-3.692-3.505a6.289 6.289 0 0 1-.649-.792 2.906 2.906 0 0 1-.53-1.758 2.905 2.905 0 0 1 .627-1.726c.246-.315.539-.59.869-.816 1.047-.679 2.067-1.43 3.196-1.929 1.286-.572 2.675-.898 4.077-1.35.173.314.408.537.427.782.119 1.473 1 2.654 1.515 3.97.235.606.774 1.125 1.254 1.593 1.387 1.328 2.635 2.792 4.231 3.91a9.584 9.584 0 0 0 5.264 1.716 10.45 10.45 0 0 0 6.432-1.93 40.204 40.204 0 0 0 3.993-3.162c.568-.506.941-1.257 1.311-1.948.395-.748.681-1.552 1.164-2.676.589 2.139 1.882 3.546 2.823 5.274-1.986.88-3.651 1.973-4.57 4.168.348-.069.527-.047.611-.129.992-.923 2.224-1.347 3.482-1.72.314-.098.659-.177.982-.287 1.273-.424 1.298-.455 1.86-1.866a11.598 11.598 0 0 0 3.845 2.124c1.399.43 2.885.565 4.391.845a9.41 9.41 0 0 1-.859 3.047v-.01Zm.749-22.199a57.493 57.493 0 0 0-11.62 3.142c-.057.333-.117.7-.195 1.15l-1.549-.422c-.141-.386-.267-.82-.452-1.222-.496-1.064-1.223-1.41-2.349-1.033a3.574 3.574 0 0 1-1.835.145c-4.181-.73-8.403-.629-12.609-.39-1.976.107-3.933.594-5.896.917a8.786 8.786 0 0 1-1.333.242 1.017 1.017 0 0 0-1.101.858 7.709 7.709 0 0 0-.179 1.344c-.031.446 0 .895 0 1.43-2.638 1.008-5.332 1.664-7.895 2.443a.568.568 0 0 1-.31-.357.579.579 0 0 1 .063-.469c.702-1.671 1.292-3.386 2.49-4.822a26.815 26.815 0 0 1 3.303-3.427 16.378 16.378 0 0 1 4.391-2.55c3.698-1.515 7.214-3.32 10.137-6.163 1.841-1.791 3.66-3.582 5.05-5.761.047-.079.182-.104.288-.158.358.057.361.396.458.629.941 2.352 2.65 3.904 4.865 5.026 1.502.76 3.118 1.02 4.733 1.306 1.788.314 3.597.537 5.388.842 1.791.305 3.341 1.1 4.956 1.803.286.186.549.407.781.657-.398 1.668.392 3.176.42 4.837v.003Zm-11.329 9.738c-.348-.405-.571-.553-.627-.744a24.187 24.187 0 0 1-.461-2.12c-.072-.403.16-.629.549-.682.066.078.178.157.188.242.119 1.011.216 1.988.351 3.31v-.006Zm-25.782-6.012c.813-.465 1.794-.496 2.723-.71.775-.18 1.564-.292 2.358-.336 2.431-.135 4.853-.474 7.302-.157 1.007.132 2.042.044 3.065.075.442.016.849.025 1.21.453.198.232.722.238 1.104.25.904.035 1.81 0 2.757 0 .753.733.772 1.722.913 2.661.075.503.056 1.021.141 1.524a7.52 7.52 0 0 1-1.273 5.654c-1.653 2.431-3.99 4.03-6.665 5.105a6.578 6.578 0 0 1-4.984-.117 7.317 7.317 0 0 1-2.582-1.57c-1.085-1.078-2.239-2.08-3.258-3.23a7.023 7.023 0 0 1-1.302-2.18c-.226-.577-.314-1.206-.561-1.78-.421-1.05-.581-2.077.075-3.142-.772-.666-1.562-1.294-1.023-2.494v-.006Zm37.654 13.01a2.75 2.75 0 0 1-.831.199c-2.334-.227-4.58-.691-6.468-2.253a7.37 7.37 0 0 1-2.136-3c-.752-1.818-.878-3.769-1.333-5.632-.066-.264.163-.596.248-.873a34.988 34.988 0 0 0-.696-1.09c1.113.242 1.963-.044 2.823-.28 2.195-.6 4.366-1.196 6.555-1.765a9.678 9.678 0 0 1 1.433-.144l.201 1.47c-1.283.182-2.346.314-3.4.49-1.678.29-3.318.768-4.89 1.426-.21.085-.412.19-.602.314a.84.84 0 0 0-.26 1.062.743.743 0 0 0 .887.314c1.446-.292 2.895-.556 4.325-.905a11.797 11.797 0 0 1 3.887-.286c.338.54.15 1.1.163 1.646-1.051-.116-2.055-.314-3.058-.314-1.603-.028-3.153.405-4.683.814-1.286.342-1.863 1.127-1.28 2.805a3.767 3.767 0 0 0 2.34 2.337 6.265 6.265 0 0 0 5.718-.575c.373-.23.759-.433 1.226-.7.646 1.759.301 3.336-.169 4.947v-.006Zm-2.864-8.129h2.914c-.314 1.596-1.43 2.322-2.823 2.903-.313-.537 0-1.012 0-1.477 0-.465-.059-.86-.091-1.42v-.006Zm-2.537 3.088c-1.39.226-2.08-.154-3.03-1.753.772-.942 1.807-.782 2.76-1.04.091.956.182 1.876.27 2.8v-.007Zm-76.345 64.229a26.839 26.839 0 0 1-.176-2.718c-.078-1.146.499-2.098.941-3.065.866-1.854 1.882-3.644 2.744-5.491a27.307 27.307 0 0 1 3.821-5.84 17.043 17.043 0 0 0 2.986-4.712c.566-1.436.834-2.973.787-4.517-.041-1.256-.188-2.513-.314-3.747-.185-1.941-.313-3.917.555-5.71.844-1.728 1.92-3.346 2.92-4.998.295-.484.697-.902 1.01-1.373 1.211-1.816 2.949-3.141 4.391-4.747a31.772 31.772 0 0 0 4.156-5.594 33.357 33.357 0 0 0 3.137-8.258 31.01 31.01 0 0 0 .815-6.066 35.14 35.14 0 0 1 .537-4.907c.313-1.727.432-3.52 1.116-5.142.969-2.293 1.832-4.655 3.303-6.713a233.761 233.761 0 0 0 3.51-5.026 25.273 25.273 0 0 1 4.102-4.554 17.207 17.207 0 0 1 2.472-1.79c1.345-.846 2.728-1.628 4.096-2.432a6.57 6.57 0 0 0 .746-.415c1.776-1.36 3.915-1.884 6.007-2.318a29.65 29.65 0 0 1 6.602-.562 19.02 19.02 0 0 1 8.362 2.11c.75.393 1.568.66 2.28 1.125.753.5 1.484 1.03 2.233 1.54a32.64 32.64 0 0 1 5.172 4.432c.327.39.63.8.907 1.228 1.013 1.366 2.086 2.704 2.823 4.231.561 1.15 1.013 2.394.392 3.876-.916-.593-1.685-1.184-2.531-1.62a18.528 18.528 0 0 0-6.995-1.998 52.86 52.86 0 0 1-5.071-.66 9.162 9.162 0 0 1-5.731-3.43c-.731-.942-1.301-1.998-1.951-2.997-.053-.085-.163-.132-.313-.245-.148.138-.386.255-.452.434-.47 1.256-1.349 2.246-2.196 3.232a33.973 33.973 0 0 1-6.354 5.654c-2.123 1.47-4.482 2.47-6.885 3.342-2.782 1.012-5.203 2.479-7.17 4.712-1.433 1.64-2.728 3.34-3.629 5.34a13.387 13.387 0 0 0-1.147 3.729c-.022.17-.126.361-.079.503.477 1.444-.16 2.789-.367 4.165-.27 1.765.373 3.14 1.719 4.193.941.735 1.945 1.376 2.926 2.055.464.314.941.628 1.412.942 0 .565.031 1.074 0 1.57-.364 5.18-.314 10.367-.204 15.556.034 1.649 0 3.301.044 4.954.044 1.413.172 2.827.257 4.237.072 1.16-.314 2.233-.565 3.342-1.938.255-3.578 1.09-5.159 2.108-.941.628-1.973 1.137-2.955 1.712-.342.201-.834.377-.941.685-.313.851-1.066 1.121-1.728 1.53a136.91 136.91 0 0 0-13.082 9.285c-2.045 1.618-3.861 3.528-5.721 5.371a51.141 51.141 0 0 0-5.21 6.283c-.564.773-1.057 1.599-1.596 2.39-.22.314-.48.603-.728.911-.408-.232-.213-.527-.166-.75.316-1.44.362-2.926.135-4.382ZM193.2 195.55a13.994 13.994 0 0 0-.342 2.705 1.945 1.945 0 0 1-.706 1.438c.088.315.163.572.273.943a1.24 1.24 0 0 1-.379.257 8.136 8.136 0 0 1-1.487.333 30.095 30.095 0 0 1-3.409.157c-3.814-.128-7.619.139-11.427.208-3.07.053-6.144.019-9.214.037-1.823 0-3.642.06-5.464.066-4.263 0-8.525.038-12.788-.157-3.051-.138-6.11-.132-9.164-.201-.91-.022-1.826-.166-2.729-.119-3.45.182-6.926-.066-10.394.135-2.773.16-5.568 0-8.353-.038-1.138 0-2.277-.028-3.412-.028a33.866 33.866 0 0 1-7.17-.726l.677-1.281c-.627-.481-1.255-.38-1.857-.456l-1.599-.204c-.167-.135-.258-.204-.342-.276-1.343-1.159-1.612-2.576-1.355-4.313.339-2.303.398-4.646.59-6.971.04-.508.15-1.011.203-1.52.107-1.071.201-2.145.289-3.22a6.42 6.42 0 0 1 .05-1.184c.609-2.164.467-4.398.646-6.596.019-.227-.091-.478-.025-.679.627-1.853.549-3.795.718-5.704.019-.223.126-.437.16-.66.142-.895.292-1.787.399-2.689.219-1.86.533-3.7.862-5.544.289-1.618.505-3.251.916-4.838.558-2.148.991-4.319 1.364-6.505.029-.167.082-.314.107-.5.113-.735.919-1.193.797-2.026-.104-.713.285-1.313.464-1.966.665-2.469 1.283-4.951 1.907-7.429.251-1.171.591-2.32 1.016-3.44.36-.899.631-1.831.809-2.783a56.459 56.459 0 0 1 2.224-7.853 65.68 65.68 0 0 1 2.657-6.442c.84-1.738 1.615-3.506 2.575-5.183 1.069-1.866 2.101-3.748 3.318-5.538a52.595 52.595 0 0 1 5.448-6.537c1.054-1.11 1.976-2.356 3.099-3.39a67.282 67.282 0 0 1 5.103-4.25c3.052-2.287 6.173-4.48 9.278-6.697.495-.355.941-.848 1.709-.876.148.48.314.942.436 1.435.512 2.1.91 4.227 1.195 6.37.273 2.319.674 4.621.991 6.933.05.566.07 1.135.06 1.703-.012.453.002.906.044 1.357.499 3.386.43 6.81.671 10.215.085 1.188.019 2.387.044 3.581a3.683 3.683 0 0 0 .511 1.96 1.122 1.122 0 0 0 1.305.559c.33-.071.648-.193.941-.361.721-.452 1.411-.942 2.12-1.426.458-.314.847-.751 1.39-.804.116.082.191.107.197.141.145.943.314 1.91.417 2.871.226 2.199.449 4.423.628 6.641.238 3.238.555 6.48.58 9.738.022 2.334.298 4.642.354 6.97.066 2.783.486 5.557.628 8.343.138 2.494.432 4.976.476 7.482.044 2.507.345 4.989.527 7.486.088 1.256.129 2.513.267 3.738.144 1.291.411 2.573.574 3.864.201 1.633.414 3.267.502 4.906.014.911.254 1.804.699 2.598.104.238.187.485.248.738-1.568.107-3.005-.314-4.46-.402-1.455-.088-2.942-.166-4.413-.267-1.531-.107-3.061-.251-4.592-.349a139.377 139.377 0 0 0-4.419-.213c-1.478-.05-2.958-.06-4.548-.091a8.147 8.147 0 0 1-.414-1.257c-.872-5.39-2.029-10.73-2.509-16.183-.254-2.89-.788-5.755-1.139-8.635a14.232 14.232 0 0 1-.107-3.066c.418-4.266.267-8.538.217-12.81 0-1.078-.072-2.152 0-3.232a4.32 4.32 0 0 0-.342-2.027c-.213.349-.408.538-.445.754a28.469 28.469 0 0 0-.408 2.878c-.151 2.271-.286 4.545-.348 6.822-.047 1.703.116 3.415.025 5.114a60.423 60.423 0 0 1-.599 6.11c-.436 2.868-1.013 5.714-1.54 8.569-.261 1.398-.577 2.783-.809 4.184-.568 3.415-1.299 6.804-1.393 10.288-.028 1.074-.242 2.148-.132 3.232.06.591.314.757.888.754h6.135c1.646 0 3.299.038 4.946.126 2.268.122 4.535.314 6.803.471 1.527.11 3.055.239 4.582.352 2.437.182 4.874.373 7.315.531 2.151.138 4.303.282 6.464.27 1.527 0 3.055.138 4.585.223 1.412.075 2.823.188 4.232.235 2.383.079 4.767.11 7.148.179 1.254.035 2.509.104 3.763.148 1.534.057 3.068.088 4.602.151.812.031 1.301.411 1.402 1.184.097.726.251 1.451.034 2.199-.266.942-.433 1.885-.674 2.827-.568 2.152-1.176 4.285-1.697 6.439v-.006Zm-55.955-33.165a3.593 3.593 0 0 0 0-.842c.035-.788.079-1.57.119-2.362l.248.047c.929 6.442 1.859 12.883 2.792 19.325-.891.182-5.176.421-6 .314.26-1.495.492-2.993.793-4.476.179-.889.383-1.762.483-2.673.132-1.172.508-2.315.778-3.456a3.48 3.48 0 0 0 .179-.826 16.565 16.565 0 0 1 .608-5.045v-.006Zm89.732 34.217c-.392-.54-.781-1.074-1.336-1.831l4.391 1.169c-1.001.688-1.998.675-3.055.669v-.007Zm-3.45-6.565c.675.41 1.388.754 2.129 1.027 1.685.594 3.118 1.596 4.529 2.645.035.026.032.104.044.157a4.583 4.583 0 0 1-2.352-.219 356.732 356.732 0 0 0-6.668-2.077 8.556 8.556 0 0 0-1.841-.279.67.67 0 0 0-.534.339c-.071.262-.053.54.051.791.11.199.28.359.486.456.787.44 1.587.861 2.387 1.278a6.266 6.266 0 0 1 2.917 2.985c-.556.267-1.095.11-1.638-.022-1.615-.39-3.08-1.144-4.532-1.92-.502-.267-.985-.578-1.502-.813a2.506 2.506 0 0 0-.979-.214.882.882 0 0 0-.948.966.892.892 0 0 0 .189.47c.298.414.632.8 1.001 1.152.439.447.941.827 1.358 1.295.238.27.338.659.577 1.156a4.855 4.855 0 0 1-.979.037c-1.671-.314-3.328-.732-5.018-1.014a26.02 26.02 0 0 0-3.557-.343 166.142 166.142 0 0 0-6.47-.025 23.376 23.376 0 0 0-4.391.471c-.879.183-1.766.315-2.742.478a4.18 4.18 0 0 1-.081-.723c.166-2.101.818-4.121.988-6.232.109-1.347.533-2.679.919-3.989a8.687 8.687 0 0 0 .191-4.712 8.386 8.386 0 0 1 1.126-.292c3.162-.352 6.324-.691 9.488-1.018a11.126 11.126 0 0 1 2.048-.075 12.26 12.26 0 0 0 2.713-.145 12.39 12.39 0 0 1 2.196-.025c3.93.132 7.841.487 11.551 1.885a17.174 17.174 0 0 1 6.173 3.842c.174.225.375.427.599.603.956.549 1.289 1.551 1.794 2.422.075.128.031.314.041.53a2.882 2.882 0 0 1-1.666 0c-2.694-.7-5.401-1.36-8.095-2.06a2.026 2.026 0 0 0-1.327 0c-.514.195-.662.945-.182 1.219l.007-.007Z"/><path d="M138.023 44.985a2.487 2.487 0 0 1-.147.66c-.923 1.439-1.835 2.887-3.482 3.647-.511.236-.941.628-1.462.864a3.923 3.923 0 0 0-2.195 2.883c-.201 1.053-.527 2.077-.565 3.18a5.413 5.413 0 0 1-1.464 3.389 17.124 17.124 0 0 1-3.579 3.14c-1.449.912-2.628 2.005-3.105 3.695-.537 1.9-.75 3.804.157 5.673a.977.977 0 0 1 .028.314c-.245.239-.411.041-.543-.129a4.619 4.619 0 0 1-1.076-2.65 14.426 14.426 0 0 1 .251-4.084 7.26 7.26 0 0 1 2.403-4.021c.941-.807 1.838-1.69 2.804-2.479a5.41 5.41 0 0 0 1.985-4.36c0-1.86.744-3.436 1.569-4.988a4.14 4.14 0 0 1 1.405-1.46 12.648 12.648 0 0 1 2.766-1.282 8.465 8.465 0 0 0 2.588-1.257c.436-.323.843-.76 1.662-.735Zm106.61 81.926c-.693-.132-.941-.606-1.104-1.083-.314-.855-.568-1.731-.825-2.604-.746-2.513-1.474-5.026-2.594-7.414-.552-1.171-.978-2.403-1.693-3.499a2.205 2.205 0 0 1-.201-1.973c.288-.857 1.066-1.256 1.882-.864.411.187.761.488 1.007.867.699 1.235 1.314 2.513 1.951 3.77.06.159.098.326.112.496.596 3.537 1.19 7.075 1.782 10.614.07.335.086.679.047 1.018a2.13 2.13 0 0 1-.364.672ZM115.188 61.169c-1.324-1.103-1.681-2.406-.941-3.845a6.83 6.83 0 0 1 2.468-2.758c.866-.537 1.735-1.074 2.553-1.677a3.397 3.397 0 0 0 1.499-2.551c.079-1.075.282-2.136.606-3.163.536-1.602 1.631-2.727 3.384-2.972a8.964 8.964 0 0 1 2.029.035.624.624 0 0 1 .436.433.63.63 0 0 1-.294.525c-.664.318-1.352.582-2.058.788a2.224 2.224 0 0 0-1.691 1.718 13.165 13.165 0 0 0-.505 3.186c-.043 1.7-.881 2.896-2.292 3.728-.731.43-1.506.782-2.249 1.19a21.16 21.16 0 0 0-2.196 1.276c-1.135.817-1.392 1.803-.941 3.141.076.315.374.572.192.946Zm207.376 67.483a4.919 4.919 0 0 1 2.582-.176c.941.144 1.882.402 2.823.578 1.329.288 2.672.508 4.024.659 1.941.151 3.393 1.238 4.761 2.41.941.801 1.646 1.866 2.443 2.827.097.113.101.314.191.593a3.375 3.375 0 0 1-1.016-.169 170.17 170.17 0 0 1-4.852-2.793c-1.345-.81-2.857-1.033-4.35-1.332-.163-.031-.364.051-.505 0-1.757-.785-3.701-1.093-5.367-2.107l-.734-.49Zm-73.817-6.041c-.254-.371-.521-.606-.59-.889a185.738 185.738 0 0 1-1.333-5.949 3.608 3.608 0 0 1 .069-1.338c.066-.374.697-.528.979-.252.206.189.371.419.483.676.201.468.337.961.405 1.467.156 1.916.429 3.822.313 5.751-.003.097-.106.185-.326.534Zm97.433 15.957a8.157 8.157 0 0 1-2.794-2.666.943.943 0 0 1 .084-1.257.893.893 0 0 1 1.293.355c.533.917 1.006 1.885 1.48 2.827.063.148-.022.339-.063.741Zm-94.057-20.044c.627-.75 1.179-1.646 2.177-2.472a4.372 4.372 0 0 1-1.521 2.874c-.229.195-.527.019-.656-.402Zm-102.631 48.07a28.047 28.047 0 0 0-.076 5.815c.015.224-.034.449-.141.647a.455.455 0 0 1-.429.11 1.009 1.009 0 0 1-.487-.427 5.684 5.684 0 0 1-.577-1.571 51.865 51.865 0 0 1-.313-4.222c.009-.449.101-.893.269-1.31a.84.84 0 0 1 .941-.581.855.855 0 0 1 .775.767c.025.273.022.559.038.772Zm-36.914 13.636c-.787-.263-.972-.81-1.047-1.369a22.178 22.178 0 0 1-.035-5.079.735.735 0 0 1 .038-.167c.147-.424.238-.905.793-.986.443-.066.85.345.982.983.048.221.062.447.044.672-.173 1.801-.356 3.6-.549 5.397a2.37 2.37 0 0 1-.226.549Zm-4.348.871c-.358-1.433-.276-5.394.194-7.26.207-.829.188-1.79.878-2.494.145.154.276.232.273.314a59.74 59.74 0 0 1-1.345 9.44Zm94.462-32.528c.843.038 1.687.066 2.531.117a.81.81 0 0 1 .771.552.938.938 0 0 1-.432 1.018c-1.042.66-2.196.792-3.4.785-.562 0-1.123 0-1.685.035-.903.041-1.436-.368-1.515-1.178-.069-.719.524-1.338 1.365-1.423.113-.006.226-.006.339 0h2.029l-.003.094Zm134.056-48.871c-.314-.314-.577-.584-.872-.83-.392-.313-.834-.596-1.208-.941a1.401 1.401 0 0 1-.066-1.982c.158-.165.358-.283.578-.343.705-.173 2.314.478 2.471 1.181.157.704.53 1.04.941 1.492a1.74 1.74 0 0 1 .314 2.061 6.38 6.38 0 0 1-2.052 2.469 4.236 4.236 0 0 0-1.398 1.36c.197.314.401.628.627.942.285.421.627.82.866 1.257.589 1.027.627 2.051-.095 3.05-.232.314-.426.672-.646 1.008a11.19 11.19 0 0 0-1.468 3.987c-.181.904-.787 1.331-1.568 1.633-.075.031-.2-.072-.42-.163a7.35 7.35 0 0 1 .436-2.077c.646-1.639 1.223-3.314 1.96-4.913.502-1.09.455-1.963-.426-2.776a1.162 1.162 0 0 1-.12-.123c-1.367-1.753-1.364-2.312.085-3.967.446-.509.963-.943 1.424-1.455.23-.277.442-.567.637-.87Zm-27.441 14.626c-.104-.12-.167-.161-.16-.189a9.71 9.71 0 0 0-.396-5.177c-.392-1.14-.247-2.349.069-3.518.117-.436.248-.873.314-1.316a1.76 1.76 0 0 0-.483-1.724 2.204 2.204 0 0 1-.332-.39c-1.428-2.123-1.142-2.456-.098-4.143.27-.434.559-.855.85-1.275a3.091 3.091 0 0 0 .628-2.074 3.156 3.156 0 0 1 .066-.845.777.777 0 0 1 .912-.571.662.662 0 0 1 .53.75c-.21 1.863-.455 3.7-1.722 5.237-.627.747-.511 1.171.066 1.991.43.523.796 1.096 1.089 1.706a3.742 3.742 0 0 1-.132 3.141 3.539 3.539 0 0 0-.201 2.953c.552 1.571.201 3.141-.42 4.646a4.173 4.173 0 0 1-.58.798Zm13.908-20.227-.806.845c.019.186 0 .314.047.402.474.629.941 1.298 1.458 1.885a3.236 3.236 0 0 1 .694 3.477c-.211.71-.459 1.407-.744 2.089a3.486 3.486 0 0 0-.257 2.322c.276 1.256-.05 2.488-.414 3.675a33.344 33.344 0 0 1-1.255 3.352c-.351.826-.734 1.658-1.489 2.22-.574-.295-.49-.832-.408-1.212.248-1.162.571-2.312.941-3.455.283-.865.615-1.712.994-2.538.38-.773.478-1.654.276-2.491a4.088 4.088 0 0 1 .179-2.344c.285-.86.52-1.737.796-2.604a1.88 1.88 0 0 0-.357-1.91c-.408-.472-.785-.97-1.129-1.492a4.938 4.938 0 0 1-.555-1.237 1.09 1.09 0 0 1 .608-1.279c.445-.245.935-.471 1.421.295Zm-24.494 21.009c.141-.594.235-1.206.433-1.781a2.993 2.993 0 0 0-.465-3.032 3.38 3.38 0 0 1-.561-1.042 4.048 4.048 0 0 1-.138-2.513c.26-.87.423-1.766.627-2.648a2.536 2.536 0 0 0-.21-1.819c-.357-.707-.718-1.417-1.038-2.142a3.653 3.653 0 0 1 .034-3.142 1.592 1.592 0 0 1 1.155-.91c.244-.06.627.27.536.505-.105.32-.24.629-.401.924a2.738 2.738 0 0 0-.11 2.46c.222.58.52 1.133.8 1.689.718 1.433.941 2.893.272 4.398a1.802 1.802 0 0 0-.059.16c-.787 2.306-.819 2.321.445 4.445.378.639.503 1.396.351 2.123-.106.767-.614 1.565-1.671 2.325ZM130.973 89.157c.313-.904.574-1.834.941-2.71a14.16 14.16 0 0 0 1.207-6.139 10.455 10.455 0 0 1 1.769-6.134c1.073-1.624 2.393-3.035 3.538-4.587.91-1.228 2.001-2.327 2.641-3.74.255-.505.445-1.04.565-1.593.21-1.291.313-2.598.489-3.899a25.04 25.04 0 0 1 1.493-6.112 29.834 29.834 0 0 1 2.653-5.152c.703-1.096 1.528-2.114 2.324-3.141.222-.26.476-.492.756-.688.424-.336.753-.358 1.086-.107.332.251.379.71-.019 1.2-1.735 2.13-2.958 4.583-4.329 6.933-1.038 1.778-1.477 3.813-1.844 5.84a25.994 25.994 0 0 0-.426 3.894 8.76 8.76 0 0 1-1.688 5.086c-1.254 1.696-2.509 3.392-3.883 4.976a12.2 12.2 0 0 0-2.217 3.43 16.242 16.242 0 0 0-.963 3.77 13.533 13.533 0 0 1-1.321 4.212c-.693 1.372-1.351 2.764-2.038 4.14a6.855 6.855 0 0 1-.446.684l-.288-.163Zm26.597-67.269c-.091-.283-.238-.493-.204-.666a9.67 9.67 0 0 1 .574-2.127 29.203 29.203 0 0 1 1.773-3.106 29.977 29.977 0 0 1 1.794-2.485 26.117 26.117 0 0 1 3.911-3.977c1.405-1.156 3.086-1.652 4.629-2.462.455-.242 1.111-.186 1.663-.13.238.026.442.387.765.692-1.126.71-2.13 1.322-3.115 1.97-3.284 2.154-6.323 4.601-8.782 7.683-.771.964-1.323 2.11-1.963 3.179-.286.465-.411 1.043-1.045 1.429Zm-6.943 39.24c-.628.943-1.076 1.59-1.468 2.274a45.348 45.348 0 0 0-1.255 2.422 3.257 3.257 0 0 0-.188 2.331c.09.446.203.888.339 1.323.455 1.184.169 2.217-.549 3.194-.436.594-.819 1.231-1.283 1.803-1.568 1.948-3.161 3.873-4.752 5.802-.056.07-.191.075-.395.148.035-.691.392-1.2.703-1.712.884-1.458 1.791-2.906 2.688-4.357.119-.192.247-.38.357-.581.857-1.571 1.427-3.17 1.198-5.026-.36-2.956 1.013-5.274 3.036-7.275a1.38 1.38 0 0 1 .549-.384c.34-.027.683-.015 1.02.038Zm43.619-45.947c-.612-.144-1.277-.276-1.929-.458-1.518-.43-3.062-.81-4.423-1.665a6.536 6.536 0 0 1-2.264-2.664 2.002 2.002 0 0 1-.12-.995.536.536 0 0 1 .354-.493.525.525 0 0 1 .211-.029c.337.005.671.07.985.192.881.377 1.747.8 2.616 1.212.153.07.296.162.423.274 1.255 1.146 2.77 1.938 4.247 2.764.35.185.68.406.985.66a.843.843 0 0 1 .219.593c0 .314-.279.468-.57.528-.208.044-.421.05-.734.082Zm-28.057 3.811c.062-.19.149-.37.258-.537a617.586 617.586 0 0 1 4.861-5.475 9.889 9.889 0 0 1 1.255-1.138c.19-.112.406-.173.627-.179a.46.46 0 0 1 .434.384c.011.07.006.14-.014.207a2.93 2.93 0 0 1-.467.697 577.457 577.457 0 0 1-5.58 5.51c-.345.28-.716.525-1.107.735l-.267-.204ZM193.48 49.06c-.285.328-.6.63-.941.898-2.823 1.885-5.91 2.906-9.306 2.74-1.591-.08-3.137-.507-4.363-1.644a.862.862 0 0 1-.239-1.074c.217-.503.59-.732 1.076-.547a9.604 9.604 0 0 1 1.854.84c1.568 1.017 3.296 1.08 5.062.904 2.038-.229 4-.911 5.74-1.998.276-.163.58-.28.872-.418l.245.298Zm-1.876 25.78c-.12-.173-.314-.315-.342-.51-.101-.502-.141-1.014-.198-1.523-.185-1.636-.332-3.282-.571-4.913a4.696 4.696 0 0 0-.627-1.57 3.544 3.544 0 0 1-.472-1.36 3.535 3.535 0 0 1 .105-1.436c.264-.993.492-1.992 1.123-2.827.179-.239.373-.427.699-.352.327.075.468.415.386.836-.056.28-.147.55-.226.823-.157.546-.313 1.093-.473 1.64-.239.822-.176 1.57.492 2.198.812.76 1.001 1.772 1.02 2.808 0 1.993-.211 3.98-.628 5.928.003.075-.135.132-.288.257Zm-8.819-38.675c-.254-.1-.627-.098-.756-.28-.665-.91-1.659-1.121-2.65-1.366-1.691-.421-3.391-.252-5.088-.094-.623.047-1.24.152-1.844.314-.963.27-1.587.864-1.568 1.957a3.667 3.667 0 0 1-.053.543c-.345.493-.982.606-.941 1.38l1.474-.488.357.764c-.486.502-.941.942-1.333 1.4-.113.132-.091.377-.156.673.887-.226 1.424-.723 2.001-1.153.241-.18.523-.185.683.236-.263.395-.552.81-.812 1.24a.487.487 0 0 0 .144.77l2.155-1.467c1.653.312 3.355.244 4.978-.198a6.483 6.483 0 0 0 3.864-2.868c.367-.584.188-1.1-.455-1.363Zm-6.154 2.956c-1.013.248-1.86 0-2.71-.314a3.95 3.95 0 0 1-1.816-1.486 1.011 1.011 0 0 1 .014-1.298c.103-.12.233-.213.378-.273a4.48 4.48 0 0 1 1.283-.43 11.213 11.213 0 0 1 3.817-.022c-1.123 1.203-1.195 2.466-.966 3.829v-.006Zm3.35-1.232-.132-2.252c.725-.11 1.277.393 1.948.77-.455.719-.919 1.306-1.816 1.489v-.007Zm2.346-5.396a6.768 6.768 0 0 1-4.012 1.178c-1.016-.022-2.035 0-3.052.025-.79.031-1.568.12-2.368.21-.941.11-1.913 0-2.863.283a4.814 4.814 0 0 1-1.688.044c-.448-.031-.671-.386-.774-.795a.781.781 0 0 1 .555-.942c1.019-.314 1.998-.782 3.114-.773.9 0 1.801-.182 2.704-.207 1.753-.05 3.513-.126 5.26-.041a7.25 7.25 0 0 1 3.124 1.018Z"/></g><defs><clipPath id="a"><path fill="#fff" d="M0 0h362v204H0z"/></clipPath></defs></svg>