<svg width="62" height="63" fill="none" xmlns="http://www.w3.org/2000/svg"><path d="M54.2.89H.136v41.219a6.912 6.912 0 0 0 2.02 4.875 6.888 6.888 0 0 0 4.867 2.023h35.84l10.89 13.979h7.33V47.419h.009V7.787a6.912 6.912 0 0 0-2.02-4.876A6.889 6.889 0 0 0 54.2.889Zm3.706 46.529v12.39h-2.609L44.407 45.83H7.022c-.985 0-1.93-.393-2.626-1.09a3.727 3.727 0 0 1-1.09-2.631V4.066h50.895c.985.001 1.93.393 2.626 1.091a3.728 3.728 0 0 1 1.089 2.63V47.42h-.01Z" fill="#3BC4F4"/><path d="M45.495 17.32H15.643v3.178h29.852V17.32Zm0 12.062H15.643v3.177h29.852v-3.177Z" fill="#3BC4F4"/></svg>