<svg width="64" height="64" fill="none" xmlns="http://www.w3.org/2000/svg"><path d="M31.808.025a31.46 31.46 0 0 0-12.145 2.402A31.502 31.502 0 0 0 9.38 9.33a31.562 31.562 0 0 0-6.892 10.3A31.603 31.603 0 0 0 .09 31.796 31.604 31.604 0 0 0 2.488 43.96a31.562 31.562 0 0 0 6.892 10.3 31.503 31.503 0 0 0 10.283 6.903 31.46 31.46 0 0 0 12.145 2.402 31.46 31.46 0 0 0 12.144-2.402 31.503 31.503 0 0 0 10.283-6.903 31.562 31.562 0 0 0 6.892-10.3 31.603 31.603 0 0 0 2.398-12.165 31.603 31.603 0 0 0-2.398-12.164 31.563 31.563 0 0 0-6.892-10.3 31.502 31.502 0 0 0-10.283-6.904A31.46 31.46 0 0 0 31.808.025Zm1.691 60.311v-8.42h-3.172v8.434c-14.53-.741-26.22-12.427-27.02-26.966h8.413v-3.177H3.306c.802-14.509 12.431-26.158 26.916-26.96v30.137h16.81v-3.177H33.394V3.247c15.005.827 26.96 13.315 26.96 28.548 0 15.198-11.899 27.661-26.855 28.541Z" fill="#3BC4F4"/></svg>