<svg width="53" height="68" fill="none" xmlns="http://www.w3.org/2000/svg"><path d="M38.323 29.416H8.471v3.177h29.852v-3.177Zm0 12.062H8.471v3.177h29.852v-3.177Zm0 12.061H8.471v3.177h29.852v-3.177Z" fill="#3BC4F4"/><path d="M45.934.729H5.599v6.154H0v54.315c0 3.303 2.897 5.991 6.457 5.991h40.336V61.28h5.597V6.72c0-3.304-2.896-5.991-6.456-5.991ZM6.458 64.01c-1.811 0-3.285-1.263-3.285-2.815V10.06h24.663v7.295H8.471v3.177h19.364v3.646h15.786V64.01H6.457Zm42.761-5.907h-2.425v-35.91L29.861 6.882H8.77V3.906h37.165c1.81 0 3.283 1.262 3.283 2.814v51.383Z" fill="#3BC4F4"/></svg>