<svg width="63" height="57" fill="none" xmlns="http://www.w3.org/2000/svg"><path d="M60.572 53.513H1.957v3.177h58.615v-3.177ZM55.262.914H.391V42.32a6.9 6.9 0 0 0 2.016 4.864 6.878 6.878 0 0 0 4.856 2.019h54.871V7.797a6.901 6.901 0 0 0-2.016-4.864 6.878 6.878 0 0 0-4.856-2.02Zm3.7 45.113h-51.7a3.705 3.705 0 0 1-2.614-1.088 3.717 3.717 0 0 1-1.086-2.618V4.09h51.7c.98.002 1.921.393 2.614 1.087a3.717 3.717 0 0 1 1.087 2.62v38.229Z" fill="#3BC4F4"/><path d="M20.107 25.272c-1.034-.877-2.487-1.566-4.361-2.066-1.774-.476-2.912-.875-3.412-1.196-.5-.321-.75-.793-.75-1.415 0-.642.234-1.151.7-1.527.467-.376 1.195-.563 2.186-.563.992 0 1.738.238 2.238.713.5.476.75 1.102.75 1.878v.263h3.849v-.318c0-1.652-.625-2.975-1.875-3.968-1.25-.993-2.908-1.49-4.974-1.489-2.075 0-3.726.48-4.954 1.44-1.229.959-1.844 2.244-1.844 3.855.008 1.493.512 2.665 1.513 3.517 1 .851 2.453 1.522 4.36 2.012 1.775.46 2.922.883 3.443 1.27.521.388.782.942.782 1.661a1.989 1.989 0 0 1-.825 1.665c-.55.417-1.337.626-2.362.626-1.025 0-1.829-.223-2.412-.67-.575-.446-.862-1.117-.862-2.011v-.289H7.385v.326c0 1.81.67 3.187 2.009 4.13 1.339.942 3.07 1.415 5.192 1.418 2.132 0 3.847-.48 5.142-1.44 1.296-.959 1.943-2.301 1.941-4.027-.008-1.654-.529-2.92-1.562-3.795Zm16.008 0c-1.033-.877-2.487-1.566-4.361-2.066-1.776-.476-2.913-.875-3.412-1.196-.499-.321-.75-.793-.753-1.415 0-.642.233-1.151.7-1.527.465-.376 1.194-.563 2.187-.563.991 0 1.737.238 2.237.713.5.476.75 1.102.75 1.878v.263h3.853v-.318c0-1.652-.625-2.975-1.875-3.968-1.25-.993-2.907-1.49-4.97-1.489-2.074 0-3.726.48-4.955 1.44-1.23.959-1.843 2.244-1.843 3.855.009 1.493.513 2.665 1.512 3.517 1 .851 2.453 1.522 4.361 2.012 1.776.46 2.924.883 3.444 1.27.52.388.78.941.781 1.66a1.99 1.99 0 0 1-.825 1.664c-.55.417-1.337.626-2.361.626-1.024 0-1.829-.223-2.413-.67-.575-.446-.862-1.117-.862-2.011v-.289h-3.912v.325c0 1.811.67 3.188 2.01 4.13 1.338.943 3.07 1.414 5.191 1.414 2.134 0 3.848-.48 5.143-1.439 1.295-.96 1.94-2.3 1.935-4.02-.009-1.655-.53-2.92-1.562-3.796Zm16.553-7.08c-1.655-1.497-3.702-2.246-6.143-2.246h-6.11v18.226h6.11c2.44 0 4.488-.752 6.143-2.254 1.654-1.502 2.48-3.601 2.48-6.296v-1.14c0-2.695-.827-4.792-2.48-6.29Zm-1.444 7.52c0 1.844-.44 3.238-1.319 4.18-.879.942-2.026 1.414-3.442 1.415h-2.238V18.824h2.238c1.415 0 2.562.47 3.442 1.409.88.939 1.32 2.33 1.319 4.174v1.304Z" fill="#3BC4F4"/></svg>