<svg width="38" height="20" fill="none" xmlns="http://www.w3.org/2000/svg"><path d="M33.276 0H4.724c-.62 0-1.235.115-1.808.34a4.745 4.745 0 0 0-1.533.974A4.478 4.478 0 0 0 .359 2.771 4.293 4.293 0 0 0 0 4.489V15.51c0 .59.122 1.174.359 1.718a4.47 4.47 0 0 0 1.024 1.457c.438.417.96.748 1.533.973A4.934 4.934 0 0 0 4.724 20h28.552c.62 0 1.235-.116 1.808-.341a4.742 4.742 0 0 0 1.533-.973 4.478 4.478 0 0 0 1.024-1.457c.238-.544.36-1.128.359-1.718V4.49c0-.59-.121-1.174-.359-1.718a4.478 4.478 0 0 0-1.024-1.457A4.744 4.744 0 0 0 35.084.34 4.935 4.935 0 0 0 33.276 0ZM13.788 16.553V3.725l11.692 6.414-11.692 6.414Z" fill="#fff"/></svg>